<svg xmlns="http://www.w3.org/2000/svg" xmlns:xlink="http://www.w3.org/1999/xlink" viewBox="0 0 960 303.3"><defs><style>.cls-1{fill:url(#linear-gradient);}.cls-2{fill:url(#linear-gradient-2);}.cls-3{fill:url(#linear-gradient-3);}</style><linearGradient id="linear-gradient" x1="269.8" y1="396.14" x2="65.56" y2="42.38" gradientUnits="userSpaceOnUse"><stop offset="0" stop-color="#656565"/><stop offset="0.39" stop-color="#78887d"/><stop offset="1" stop-color="#98c5a6"/></linearGradient><linearGradient id="linear-gradient-2" x1="489.27" y1="369.39" x2="429.38" y2="29.76" gradientUnits="userSpaceOnUse"><stop offset="0" stop-color="#4f4f4f"/><stop offset="0.12" stop-color="#59635c"/><stop offset="0.38" stop-color="#6b8974"/><stop offset="0.62" stop-color="#78a486"/><stop offset="0.84" stop-color="#80b490"/><stop offset="1" stop-color="#83ba94"/></linearGradient><linearGradient id="linear-gradient-3" x1="898.45" y1="354.95" x2="684.81" y2="100.35" gradientUnits="userSpaceOnUse"><stop offset="0" stop-color="#4f4f4f"/><stop offset="0.06" stop-color="#525753"/><stop offset="0.34" stop-color="#5e7d68"/><stop offset="0.59" stop-color="#689876"/><stop offset="0.82" stop-color="#6da87f"/><stop offset="1" stop-color="#6fae82"/></linearGradient></defs><title>back-mountains</title><g id="Layer_2" data-name="Layer 2"><g id="Hills"><path class="cls-1" d="M0,110.34C11.61,99.09,24.72,65.77,46.68,62c23.76-4.1,33.66-31.87,42.42-32.62,17.53-1.5,70.48-40,81.13-26.49s27.1,45.28,57.19,45.64,64.87,81.36,90.08,76.86,27.74,73.47,51.32,79.47,44,98.47,61.28,98.47H0Z"/><path class="cls-2" d="M96,303.3S231.09,102.94,264.09,122.15s57.07-28.5,70.57-22.79,47.93-54,68.93-49.5,99.87-40.5,116.68-34.5,73.76,40.5,91,34.5,46.52,74.07,73.9,72.28,61.87,74.71,87.37,74.71,91.5,106.44,91.5,106.44Z"/><path class="cls-3" d="M960,303.3V49.3c-29.93-1.43-51.26-19.43-62.34-19.43s-20.75,24-36.17,22.5-30.62-41.11-47-35.55-49.4,47.55-55.4,38.55-39,64.5-64.5,49.5-42.57,55.5-81.28,60S577.59,303.3,537.09,303.3Z"/></g></g></svg>