<svg xmlns="http://www.w3.org/2000/svg" viewBox="0 0 210.75 120.3"><defs><style>.cls-1,.cls-2{fill:#fff;}.cls-2{stroke:#232323;stroke-miterlimit:10;stroke-width:2px;}.cls-3{fill:#dfe7ff;}</style></defs><title>cloud4</title><g id="Layer_2" data-name="Layer 2"><g id="Hills"><path class="cls-1" d="M118.15,120.3A59.69,59.69,0,0,1,84.52,110a31.27,31.27,0,0,1-41.3-18.72A44.5,44.5,0,1,1,76.94,16.35a60.12,60.12,0,0,1,89.73,8.26,25.76,25.76,0,0,1,18.08-7.31,26,26,0,0,1,19.19,43.53A32.77,32.77,0,0,1,157,106,59.92,59.92,0,0,1,118.15,120.3Z"/><path class="cls-2" d="M207.75,43.3a23,23,0,0,0-41.39-13.82,57.12,57.12,0,0,0-89.58-8.75A41.5,41.5,0,1,0,44.5,88.3l.94,0a28.26,28.26,0,0,0,39.41,18.3A57.1,57.1,0,0,0,157.06,102a29.77,29.77,0,0,0,42.8-41.36A22.94,22.94,0,0,0,207.75,43.3Z"/><path class="cls-3" d="M197.26,49.36l-5.43,4.73L194,56.45l1.25-1.09a16,16,0,0,0,5.36-10.11A16,16,0,0,1,197.26,49.36Z"/><path class="cls-3" d="M180,97.59A22.63,22.63,0,0,1,164,91l-4.77-4.72-4.91,4.57a50.1,50.1,0,0,1-63.36,4l-3.36-2.41-3.73,1.77A21.26,21.26,0,0,1,54.21,80.49L52.8,75.16l-6.3.14A34.47,34.47,0,0,1,12.91,33,34.48,34.48,0,0,0,44.5,81.3l6.3-.14,1.41,5.33a21.26,21.26,0,0,0,29.64,13.77l3.73-1.77,3.36,2.41a50.1,50.1,0,0,0,63.36-4l4.91-4.57L162,97a22.76,22.76,0,0,0,38.39-12.07A22.79,22.79,0,0,1,180,97.59Z"/></g></g></svg>