<svg xmlns="http://www.w3.org/2000/svg" xmlns:xlink="http://www.w3.org/1999/xlink" viewBox="0 0 32 63.47"><defs><style>.cls-1{fill:#fff;}.cls-2{fill:#1b4c29;}.cls-2,.cls-3{stroke:#232323;stroke-miterlimit:10;stroke-width:0.5px;}.cls-3{fill:url(#linear-gradient);}</style><linearGradient id="linear-gradient" x1="-94.1" y1="38.04" x2="-64.54" y2="38.04" gradientTransform="matrix(0.91, -0.41, 0.41, 0.91, 72.72, -51.25)" gradientUnits="userSpaceOnUse"><stop offset="0" stop-color="#54795e"/><stop offset="1" stop-color="#1b4c29"/></linearGradient></defs><title>clover-right</title><g id="Layer_2" data-name="Layer 2"><g id="Hills"><path class="cls-1" d="M8.66,62.5A95.05,95.05,0,0,1,7,45.77c-.13-8.75,1-21.22,6.85-30.9l.52-.85,4.27,2.6-.52.85C8,34.14,13.5,61.19,13.56,61.46l.21,1-4.89,1Z"/><path class="cls-2" d="M9.64,62.29A94.16,94.16,0,0,1,8,45.75c-.13-8.62.93-20.89,6.7-30.37l2.56,1.56C6.88,34,12.52,61.39,12.58,61.67Z"/><path class="cls-1" d="M17.76,32a5.31,5.31,0,0,1-4.84-3.13,10.71,10.71,0,0,1-.65-3.17,10.62,10.62,0,0,1-2.55,1.88,5.3,5.3,0,0,1-7-2.66,5.32,5.32,0,0,1-.43-2.81,5.3,5.3,0,0,1,.84-9.19,10.58,10.58,0,0,1,3.17-.66A10.6,10.6,0,0,1,4.42,9.72,5.3,5.3,0,0,1,9.89,2.28,5.32,5.32,0,0,1,12.07.47a5.3,5.3,0,0,1,7,2.66,10.74,10.74,0,0,1,.65,3.17,10.61,10.61,0,0,1,2.55-1.88,5.3,5.3,0,0,1,7.44,5.46,5.3,5.3,0,0,1-.84,9.19,10.6,10.6,0,0,1-3.17.66,10.6,10.6,0,0,1,1.87,2.55,5.3,5.3,0,0,1-5.46,7.44,5.32,5.32,0,0,1-2.18,1.82A5.26,5.26,0,0,1,17.76,32Z"/><path class="cls-3" d="M28.38,7.49a4.3,4.3,0,0,0-5.69-2.16A14.39,14.39,0,0,0,18.8,8.71a14.32,14.32,0,0,0-.64-5.18,4.3,4.3,0,0,0-7.78-.14A4.3,4.3,0,0,0,5.33,9.31,14.39,14.39,0,0,0,8.71,13.2a14.32,14.32,0,0,0-5.18.64,4.3,4.3,0,0,0-.14,7.78,4.3,4.3,0,0,0,5.91,5.05,14.39,14.39,0,0,0,3.89-3.38,14.32,14.32,0,0,0,.64,5.18,4.3,4.3,0,0,0,7.78.14,4.3,4.3,0,0,0,5.05-5.91,14.39,14.39,0,0,0-3.38-3.89,14.32,14.32,0,0,0,5.18-.64,4.3,4.3,0,0,0,.14-7.78A4.28,4.28,0,0,0,28.38,7.49Z"/></g></g></svg>