<svg xmlns="http://www.w3.org/2000/svg" xmlns:xlink="http://www.w3.org/1999/xlink" viewBox="0 0 32 63.47"><defs><style>.cls-1{fill:#fff;}.cls-2{fill:#1b4c29;}.cls-2,.cls-3{stroke:#232323;stroke-miterlimit:10;stroke-width:0.5px;}.cls-3{fill:url(#linear-gradient);}</style><linearGradient id="linear-gradient" x1="-99.83" y1="64.72" x2="-70.27" y2="64.72" gradientTransform="matrix(-0.91, -0.41, -0.41, 0.91, -34.99, -77.92)" gradientUnits="userSpaceOnUse"><stop offset="0" stop-color="#54795e"/><stop offset="1" stop-color="#1b4c29"/></linearGradient></defs><title>clover-left</title><g id="Layer_2" data-name="Layer 2"><g id="Hills"><path class="cls-1" d="M23.34,62.5A95.05,95.05,0,0,0,25,45.77c.13-8.75-1-21.22-6.85-30.9L17.65,14l-4.27,2.6.52.85c10.15,16.68,4.61,43.72,4.55,44l-.21,1,4.89,1Z"/><path class="cls-2" d="M22.36,62.29A94.16,94.16,0,0,0,24,45.75c.13-8.62-.93-20.89-6.7-30.37l-2.56,1.56c10.38,17,4.73,44.44,4.68,44.72Z"/><path class="cls-1" d="M14.24,32a5.31,5.31,0,0,0,4.84-3.13,10.71,10.71,0,0,0,.65-3.17,10.62,10.62,0,0,0,2.55,1.88,5.3,5.3,0,0,0,7-2.66,5.32,5.32,0,0,0,.43-2.81,5.3,5.3,0,0,0-.84-9.19,10.58,10.58,0,0,0-3.17-.66,10.6,10.6,0,0,0,1.87-2.55,5.3,5.3,0,0,0-5.46-7.44A5.32,5.32,0,0,0,19.94.47a5.3,5.3,0,0,0-7,2.66,10.74,10.74,0,0,0-.65,3.17A10.61,10.61,0,0,0,9.72,4.42,5.3,5.3,0,0,0,2.29,9.88a5.3,5.3,0,0,0,.84,9.19,10.6,10.6,0,0,0,3.17.66,10.6,10.6,0,0,0-1.87,2.55,5.3,5.3,0,0,0,5.46,7.44,5.32,5.32,0,0,0,2.18,1.82A5.26,5.26,0,0,0,14.24,32Z"/><path class="cls-3" d="M3.63,7.49A4.3,4.3,0,0,1,9.31,5.33,14.39,14.39,0,0,1,13.2,8.71a14.32,14.32,0,0,1,.64-5.18,4.3,4.3,0,0,1,7.78-.14,4.3,4.3,0,0,1,5.05,5.91,14.39,14.39,0,0,1-3.38,3.89,14.32,14.32,0,0,1,5.18.64,4.3,4.3,0,0,1,.14,7.78,4.3,4.3,0,0,1-5.91,5.05,14.39,14.39,0,0,1-3.89-3.38,14.32,14.32,0,0,1-.64,5.18,4.3,4.3,0,0,1-7.78.14,4.3,4.3,0,0,1-5.05-5.91A14.39,14.39,0,0,1,8.71,18.8a14.32,14.32,0,0,1-5.18-.64,4.3,4.3,0,0,1-.14-7.78A4.28,4.28,0,0,1,3.63,7.49Z"/></g></g></svg>