<svg id="Layer_1" data-name="Layer 1" xmlns="http://www.w3.org/2000/svg" xmlns:xlink="http://www.w3.org/1999/xlink" viewBox="0 0 816 130"><defs><style>.cls-1{fill:url(#linear-gradient);}.cls-2{fill:url(#linear-gradient-2);}.cls-3{fill:url(#linear-gradient-3);}.cls-4{fill:url(#linear-gradient-4);}.cls-5{fill:#169b62;}.cls-6{fill:#fff;}.cls-7{fill:#ff883e;}.cls-8{fill:url(#linear-gradient-5);}.cls-9{fill:url(#linear-gradient-6);}.cls-10{fill:url(#linear-gradient-7);}.cls-11{fill:url(#linear-gradient-8);}.cls-12{fill:url(#linear-gradient-9);}.cls-13{fill:url(#linear-gradient-10);}.cls-14{fill:url(#linear-gradient-11);}.cls-15{fill:url(#linear-gradient-12);}.cls-16{fill:url(#linear-gradient-13);}.cls-17{fill:url(#linear-gradient-14);}.cls-18{fill:url(#linear-gradient-15);}.cls-19{fill:url(#linear-gradient-16);}.cls-20{fill:url(#linear-gradient-17);}.cls-21{fill:url(#linear-gradient-18);}.cls-22{fill:url(#linear-gradient-19);}.cls-23{fill:url(#linear-gradient-20);}.cls-24{fill:url(#linear-gradient-21);}.cls-25{fill:url(#linear-gradient-22);}.cls-26{fill:url(#linear-gradient-23);}.cls-27{fill:url(#linear-gradient-24);}.cls-28{fill:url(#linear-gradient-25);}.cls-29{fill:url(#linear-gradient-26);}.cls-30{fill:url(#linear-gradient-27);}.cls-31{fill:url(#linear-gradient-28);}.cls-32{fill:url(#linear-gradient-29);}.cls-33{fill:url(#linear-gradient-30);}.cls-34{fill:url(#linear-gradient-31);}.cls-35{fill:url(#linear-gradient-32);}</style><linearGradient id="linear-gradient" x1="14.07" y1="129.28" x2="14.07" y2="7.94" gradientUnits="userSpaceOnUse"><stop offset="0" stop-color="#b2b2b2"/><stop offset="0.29" stop-color="#c5c5c5"/><stop offset="0.73" stop-color="#dcdcdc"/><stop offset="1" stop-color="#e5e5e5"/></linearGradient><linearGradient id="linear-gradient-2" x1="14.07" y1="68.61" x2="17.1" y2="68.61" gradientUnits="userSpaceOnUse"><stop offset="0" stop-color="#e5e5e5" stop-opacity="0"/><stop offset="1" stop-color="gray"/></linearGradient><linearGradient id="linear-gradient-3" x1="14.07" y1="12.85" x2="14.07" y2="0.72" xlink:href="#linear-gradient"/><linearGradient id="linear-gradient-4" x1="8" y1="6.79" x2="20.13" y2="6.79" xlink:href="#linear-gradient-2"/><linearGradient id="linear-gradient-5" x1="116.07" y1="129.28" x2="116.07" y2="7.94" xlink:href="#linear-gradient"/><linearGradient id="linear-gradient-6" x1="116.07" y1="68.61" x2="119.11" y2="68.61" xlink:href="#linear-gradient-2"/><linearGradient id="linear-gradient-7" x1="116.07" y1="12.85" x2="116.07" y2="0.72" xlink:href="#linear-gradient"/><linearGradient id="linear-gradient-8" x1="110.01" y1="6.79" x2="122.14" y2="6.79" xlink:href="#linear-gradient-2"/><linearGradient id="linear-gradient-9" x1="728.12" y1="129.28" x2="728.12" y2="7.94" xlink:href="#linear-gradient"/><linearGradient id="linear-gradient-10" x1="728.12" y1="68.61" x2="731.15" y2="68.61" xlink:href="#linear-gradient-2"/><linearGradient id="linear-gradient-11" x1="728.12" y1="12.85" x2="728.12" y2="0.72" xlink:href="#linear-gradient"/><linearGradient id="linear-gradient-12" x1="722.05" y1="6.79" x2="734.19" y2="6.79" xlink:href="#linear-gradient-2"/><linearGradient id="linear-gradient-13" x1="218.08" y1="129.28" x2="218.08" y2="7.94" xlink:href="#linear-gradient"/><linearGradient id="linear-gradient-14" x1="218.08" y1="68.61" x2="221.12" y2="68.61" xlink:href="#linear-gradient-2"/><linearGradient id="linear-gradient-15" x1="218.08" y1="12.85" x2="218.08" y2="0.72" xlink:href="#linear-gradient"/><linearGradient id="linear-gradient-16" x1="212.01" y1="6.79" x2="224.15" y2="6.79" xlink:href="#linear-gradient-2"/><linearGradient id="linear-gradient-17" x1="626.11" y1="129.28" x2="626.11" y2="7.94" xlink:href="#linear-gradient"/><linearGradient id="linear-gradient-18" x1="626.11" y1="68.61" x2="629.14" y2="68.61" xlink:href="#linear-gradient-2"/><linearGradient id="linear-gradient-19" x1="626.11" y1="12.85" x2="626.11" y2="0.72" xlink:href="#linear-gradient"/><linearGradient id="linear-gradient-20" x1="620.04" y1="6.79" x2="632.18" y2="6.79" xlink:href="#linear-gradient-2"/><linearGradient id="linear-gradient-21" x1="320.09" y1="129.28" x2="320.09" y2="7.94" xlink:href="#linear-gradient"/><linearGradient id="linear-gradient-22" x1="320.09" y1="68.61" x2="323.12" y2="68.61" xlink:href="#linear-gradient-2"/><linearGradient id="linear-gradient-23" x1="320.09" y1="12.85" x2="320.09" y2="0.72" xlink:href="#linear-gradient"/><linearGradient id="linear-gradient-24" x1="314.02" y1="6.79" x2="326.16" y2="6.79" xlink:href="#linear-gradient-2"/><linearGradient id="linear-gradient-25" x1="524.1" y1="129.28" x2="524.1" y2="7.94" xlink:href="#linear-gradient"/><linearGradient id="linear-gradient-26" x1="524.1" y1="68.61" x2="527.14" y2="68.61" xlink:href="#linear-gradient-2"/><linearGradient id="linear-gradient-27" x1="524.1" y1="12.85" x2="524.1" y2="0.72" xlink:href="#linear-gradient"/><linearGradient id="linear-gradient-28" x1="518.04" y1="6.79" x2="530.17" y2="6.79" xlink:href="#linear-gradient-2"/><linearGradient id="linear-gradient-29" x1="422.1" y1="129.28" x2="422.1" y2="7.94" xlink:href="#linear-gradient"/><linearGradient id="linear-gradient-30" x1="422.1" y1="68.61" x2="425.13" y2="68.61" xlink:href="#linear-gradient-2"/><linearGradient id="linear-gradient-31" x1="422.1" y1="12.85" x2="422.1" y2="0.72" xlink:href="#linear-gradient"/><linearGradient id="linear-gradient-32" x1="416.03" y1="6.79" x2="428.16" y2="6.79" xlink:href="#linear-gradient-2"/></defs><title>flag-sprite</title><rect class="cls-1" x="11.03" y="7.94" width="6.07" height="121.34"/><rect class="cls-2" x="14.07" y="7.94" width="3.03" height="121.34"/><circle class="cls-3" cx="14.07" cy="6.79" r="6.07"/><circle class="cls-4" cx="14.07" cy="6.79" r="6.07"/><path class="cls-5" d="M39.71,54c-8.54-1.8-17.08-1.8-25.62,3.6V17.1c8.54-5.39,17.08-5.39,25.62-3.6Z"/><path class="cls-6" d="M65.33,61.14c-8.54-1.8-17.08-5.39-25.62-7.19V13.5c8.54,1.8,17.08,5.39,25.62,7.19Z"/><path class="cls-7" d="M90.95,57.55c-8.54,5.39-17.08,5.39-25.62,3.6V20.69c8.54,1.8,17.08,1.8,25.62-3.6Z"/><rect class="cls-8" x="113.04" y="7.94" width="6.07" height="121.34"/><rect class="cls-9" x="116.07" y="7.94" width="3.03" height="121.34"/><circle class="cls-10" cx="116.07" cy="6.79" r="6.07"/><circle class="cls-11" cx="116.07" cy="6.79" r="6.07"/><path class="cls-5" d="M141.72,55.75c-8.54-.9-17.08-.9-25.62,1.8V17.1c8.54-2.7,17.08-2.7,25.62-1.8Z"/><path class="cls-6" d="M167.34,59.34c-8.54-.9-17.08-2.7-25.62-3.6V15.3c8.54.9,17.08,2.7,25.62,3.6Z"/><path class="cls-7" d="M193,57.55c-8.54,2.7-17.08,2.7-25.62,1.8V18.9c8.54.9,17.08.9,25.62-1.8Z"/><rect class="cls-12" x="725.09" y="7.94" width="6.07" height="121.34"/><rect class="cls-13" x="728.12" y="7.94" width="3.03" height="121.34"/><circle class="cls-14" cx="728.12" cy="6.79" r="6.07"/><circle class="cls-15" cx="728.12" cy="6.79" r="6.07"/><path class="cls-5" d="M753.77,55.75c-8.54-.9-17.08-.9-25.62,1.8V17.1c8.54-2.7,17.08-2.7,25.62-1.8Z"/><path class="cls-6" d="M779.38,59.34c-8.54-.9-17.08-2.7-25.62-3.6V15.3c8.54.9,17.08,2.7,25.62,3.6Q779.38,39.12,779.38,59.34Z"/><path class="cls-7" d="M805,57.55c-8.54,2.7-17.08,2.7-25.62,1.8q0-20.22,0-40.45c8.54.9,17.08.9,25.62-1.8Z"/><rect class="cls-16" x="215.05" y="7.94" width="6.07" height="121.34"/><rect class="cls-17" x="218.08" y="7.94" width="3.03" height="121.34"/><circle class="cls-18" cx="218.08" cy="6.79" r="6.07"/><circle class="cls-19" cx="218.08" cy="6.79" r="6.07"/><rect class="cls-5" x="218.11" y="17.1" width="25.62" height="40.45"/><rect class="cls-6" x="243.73" y="17.1" width="25.62" height="40.45"/><rect class="cls-7" x="269.34" y="17.1" width="25.62" height="40.45"/><rect class="cls-20" x="623.08" y="7.94" width="6.07" height="121.34"/><rect class="cls-21" x="626.11" y="7.94" width="3.03" height="121.34"/><circle class="cls-22" cx="626.11" cy="6.79" r="6.07"/><circle class="cls-23" cx="626.11" cy="6.79" r="6.07"/><rect class="cls-5" x="626.14" y="17.1" width="25.62" height="40.45"/><rect class="cls-6" x="651.76" y="17.1" width="25.62" height="40.45"/><rect class="cls-7" x="677.37" y="17.1" width="25.62" height="40.45"/><rect class="cls-24" x="317.06" y="7.94" width="6.07" height="121.34"/><rect class="cls-25" x="320.09" y="7.94" width="3.03" height="121.34"/><circle class="cls-26" cx="320.09" cy="6.79" r="6.07"/><circle class="cls-27" cx="320.09" cy="6.79" r="6.07"/><path class="cls-5" d="M345.74,59.34c-8.54.9-17.08.9-25.62-1.8V17.1c8.54,2.7,17.08,2.7,25.62,1.8Q345.74,39.12,345.74,59.34Z"/><path class="cls-6" d="M371.35,55.75c-8.54.9-17.08,2.7-25.62,3.6q0-20.22,0-40.45c8.54-.9,17.08-2.7,25.62-3.6Q371.35,35.53,371.35,55.75Z"/><path class="cls-7" d="M397,57.55c-8.54-2.7-17.08-2.7-25.62-1.8q0-20.22,0-40.45c8.54-.9,17.08-.9,25.62,1.8Z"/><rect class="cls-28" x="521.07" y="7.94" width="6.07" height="121.34"/><rect class="cls-29" x="524.1" y="7.94" width="3.03" height="121.34"/><circle class="cls-30" cx="524.1" cy="6.79" r="6.07"/><circle class="cls-31" cx="524.1" cy="6.79" r="6.07"/><path class="cls-5" d="M549.75,59.34c-8.54.9-17.08.9-25.62-1.8V17.1c8.54,2.7,17.08,2.7,25.62,1.8Z"/><path class="cls-6" d="M575.37,55.75c-8.54.9-17.08,2.7-25.62,3.6V18.9c8.54-.9,17.08-2.7,25.62-3.6Q575.37,35.53,575.37,55.75Z"/><path class="cls-7" d="M601,57.55c-8.54-2.7-17.08-2.7-25.62-1.8q0-20.22,0-40.45c8.54-.9,17.08-.9,25.62,1.8Z"/><rect class="cls-32" x="419.06" y="7.94" width="6.07" height="121.34"/><rect class="cls-33" x="422.1" y="7.94" width="3.03" height="121.34"/><circle class="cls-34" cx="422.1" cy="6.79" r="6.07"/><circle class="cls-35" cx="422.1" cy="6.79" r="6.07"/><path class="cls-5" d="M447.74,61.14c-8.54,1.8-17.08,1.8-25.62-3.6V17.1c8.54,5.39,17.08,5.39,25.62,3.6Q447.74,40.92,447.74,61.14Z"/><path class="cls-6" d="M473.36,54c-8.54,1.8-17.08,5.39-25.62,7.19q0-20.22,0-40.45c8.54-1.8,17.08-5.39,25.62-7.19Z"/><path class="cls-7" d="M499,57.55c-8.54-5.39-17.08-5.39-25.62-3.6V13.5c8.54-1.8,17.08-1.8,25.62,3.6Q499,37.32,499,57.55Z"/></svg>