<svg xmlns="http://www.w3.org/2000/svg" xmlns:xlink="http://www.w3.org/1999/xlink" viewBox="0 0 534.21 202.48"><defs><style>.cls-1{fill:url(#linear-gradient);}.cls-2{fill:#fff;}.cls-3{fill:url(#linear-gradient-2);}.cls-4{fill:#232323;}</style><linearGradient id="linear-gradient" x1="114.38" y1="-64.04" x2="333.88" y2="316.14" gradientUnits="userSpaceOnUse"><stop offset="0" stop-color="#64a979"/><stop offset="1" stop-color="#318c4d"/></linearGradient><linearGradient id="linear-gradient-2" x1="112.66" y1="-60.31" x2="327.56" y2="311.91" xlink:href="#linear-gradient"/></defs><title>hill-left</title><g id="Layer_2" data-name="Layer 2"><g id="Hills"><path class="cls-1" d="M2,201.48a1,1,0,0,1-1-1V2A1,1,0,0,1,2,1c191.94,0,254.19,48.18,320.09,99.19C371.52,138.46,422.64,178,532.4,199.5a1,1,0,0,1-.19,2Z"/><path class="cls-2" d="M2,2.24c336.1,0,274.37,148.31,530.21,198.36L2,200.48V2.48M2,0A2,2,0,0,0,0,2V200.48a2,2,0,0,0,2,2H532.21a2,2,0,0,0,.38-4C423.07,177.09,372,137.6,322.7,99.4,256.66,48.28,194.28,0,2,0Z"/><path class="cls-3" d="M3,3c190.46.17,252.36,48.07,317.86,98.77C369,139,418.73,177.48,522.29,199.48H3Z"/><path class="cls-4" d="M4,4.24c189.36.33,251,47.93,316.25,98.44,46.81,36.23,95.13,73.57,192.84,95.86L4,198.48V4.48M2,2V200.48H532.21C276.37,150.43,338.1,2,2,2Z"/></g></g></svg>