<svg xmlns="http://www.w3.org/2000/svg" xmlns:xlink="http://www.w3.org/1999/xlink" viewBox="0 0 563.1 204"><defs><style>.cls-1{fill:url(#linear-gradient);}.cls-2{fill:#fff;}.cls-3{fill:url(#linear-gradient-2);}.cls-4{fill:#232323;}</style><linearGradient id="linear-gradient" x1="269.72" y1="70.04" x2="346.44" y2="280.82" gradientUnits="userSpaceOnUse"><stop offset="0" stop-color="#64a979"/><stop offset="1" stop-color="#318c4d"/></linearGradient><linearGradient id="linear-gradient-2" x1="275.3" y1="70.96" x2="349.97" y2="276.12" xlink:href="#linear-gradient"/></defs><title>hill-right</title><g id="Layer_2" data-name="Layer 2"><g id="Hills"><path class="cls-1" d="M3,203a1.74,1.74,0,0,1-1.49-1.62,1.63,1.63,0,0,1,1.24-1.73c120.31-21,187.94-63.43,253.34-104.23C333.68,47,407,1,558.92,1h1.19c.83,0,1,1.11,1,1.94V201c0,.83-.17,2-1,2Z"/><path class="cls-2" d="M559.1,3h1V201H3C268.74,154.72,281.5,3,558.92,3m0-3C406.55,0,333.08,45.81,255.29,94.33,190,135.06,122.51,177.16,2.49,198.06A3,3,0,0,0,3,204H560.1a3,3,0,0,0,3-3V2.94a3,3,0,0,0-3-2.94Z"/><path class="cls-3" d="M14.09,200c114-21.63,179.72-62.62,243.32-102.3C296.76,73.15,333.93,50,380.66,32.62,433.28,13.07,489.92,4,558.92,4h.18V200Z"/><path class="cls-4" d="M558.1,5V199H24.3c45.83-9.41,87.7-22.88,127.41-41,40.42-18.41,73.88-39.29,106.23-59.48C297.25,74,334.37,50.86,381,33.53A428.66,428.66,0,0,1,459.1,12.74C489.65,7.53,522,5,558.1,5m.82-2C281.5,3,268.74,154.72,3,201H560.1V3Z"/></g></g></svg>