<svg xmlns="http://www.w3.org/2000/svg" viewBox="0 0 1458 732"><defs><style>.cls-1{fill:#fff;}.cls-2{fill:#ff8080;}.cls-3{fill:#ffbf80;}.cls-4{fill:#ffff80;}.cls-5{fill:#80ff80;}.cls-6{fill:#8080ff;}.cls-7{fill:#a580c0;}.cls-8{fill:#c780ff;}.cls-9{fill:none;stroke:#232323;stroke-miterlimit:10;stroke-width:2px;}</style></defs><title>rainbow</title><g id="Layer_2" data-name="Layer 2"><g id="Hills"><path class="cls-1" d="M1325,732v-3c0-184-64.49-338.46-186.22-446.63-54.54-48.47-118.79-86-190.84-111.63C878.44,146,804.79,133.5,729.1,133.5S579.78,146,510.28,170.73c-72,25.61-136.45,63.17-191,111.63C197.57,390.54,133,545,133,729v3H0v-3C0,503.83,78.9,314.77,227.94,182.26,294.71,122.9,373.32,76.9,461.48,45.55,546.47,15.32,636.5,0,729,0S911.59,15.32,996.57,45.55c88.16,31.35,166.77,77.35,233.54,136.71C1379.16,314.77,1458,503.83,1458,729v3Z"/><path class="cls-2" d="M1436.41,727.59c0-942.84-1414.26-942.84-1414.26,0H3.44c0-967.78,1451.68-967.78,1451.68,0Z"/><path class="cls-3" d="M1418.95,727.59c0-919.56-1379.34-919.56-1379.34,0H20.9c0-944.5,1416.75-944.5,1416.75,0Z"/><path class="cls-4" d="M1401.49,727.59c0-896.28-1344.42-896.28-1344.42,0H38.36c0-921.22,1381.83-921.22,1381.83,0Z"/><path class="cls-5" d="M1382.78,727.59c0-871.34-1307-871.34-1307,0H57.07c0-896.28,1344.42-896.28,1344.42,0Z"/><path class="cls-6" d="M1364.07,727.59c0-846.39-1269.59-846.39-1269.59,0H75.78c0-871.34,1307-871.34,1307,0Z"/><path class="cls-7" d="M1346.61,727.59c0-823.11-1234.67-823.11-1234.67,0H93.24c0-848.06,1272.08-848.06,1272.08,0Z"/><path class="cls-8" d="M1327.91,727.59c0-798.17-1197.26-798.17-1197.26,0H111.94c0-823.11,1234.67-823.11,1234.67,0Z"/><path class="cls-9" d="M3.23,729H130.44c0-798,1197.26-798,1197.26,0H1454.9C1454.9-239,3.23-239,3.23,729Z"/></g></g></svg>