<?xml version="1.0" encoding="utf-8"?>
<!-- Generator: Adobe Illustrator 20.1.0, SVG Export Plug-In . SVG Version: 6.00 Build 0)  -->
<svg version="1.1" id="Layer_1" xmlns="http://www.w3.org/2000/svg" xmlns:xlink="http://www.w3.org/1999/xlink" x="0px" y="0px"
	 viewBox="0 0 1440 250" style="enable-background:new 0 0 1440 250;" xml:space="preserve">
<style type="text/css">
	.st0{fill:url(#SVGID_1_);}
	.st1{fill:url(#SVGID_2_);}
	.st2{fill:url(#SVGID_3_);}
	.st3{fill:url(#SVGID_4_);}
	.st4{fill:url(#SVGID_5_);}
	.st5{fill:url(#SVGID_6_);}
	.st6{fill:url(#SVGID_7_);}
	.st7{fill:url(#SVGID_8_);}
	.st8{fill:url(#SVGID_9_);}
	.st9{fill:url(#SVGID_10_);}
	.st10{fill:url(#SVGID_11_);}
	.st11{fill:url(#SVGID_12_);}
	.st12{fill:url(#SVGID_13_);}
	.st13{fill:url(#SVGID_14_);}
	.st14{fill:url(#SVGID_15_);}
	.st15{fill:url(#SVGID_16_);}
	.st16{fill:url(#SVGID_17_);}
	.st17{fill:url(#SVGID_18_);}
	.st18{fill:url(#SVGID_19_);}
	.st19{fill:url(#SVGID_20_);}
	.st20{fill:url(#SVGID_21_);}
	.st21{fill:url(#SVGID_22_);}
	.st22{fill:url(#SVGID_23_);}
	.st23{fill:url(#SVGID_24_);}
	.st24{fill:url(#SVGID_25_);}
	.st25{fill:url(#SVGID_26_);}
	.st26{fill:url(#SVGID_27_);}
	.st27{fill:url(#SVGID_28_);}
	.st28{fill:url(#SVGID_29_);}
	.st29{fill:url(#SVGID_30_);}
	.st30{fill:url(#SVGID_31_);}
	.st31{fill:url(#SVGID_32_);}
	.st32{fill:url(#SVGID_33_);}
	.st33{fill:url(#SVGID_34_);}
	.st34{fill:url(#SVGID_35_);}
	.st35{fill:url(#SVGID_36_);}
	.st36{fill:#FFFFFF;}
</style>
<g>
	<linearGradient id="SVGID_1_" gradientUnits="userSpaceOnUse" x1="90" y1="250" x2="90" y2="-9.094947e-13">
		<stop  offset="0" style="stop-color:#BFCEFF"/>
		<stop  offset="0.5251" style="stop-color:#B0C2FF"/>
		<stop  offset="1" style="stop-color:#A8BCFF"/>
	</linearGradient>
	<rect class="st0" width="180" height="250"/>
	<linearGradient id="SVGID_2_" gradientUnits="userSpaceOnUse" x1="90" y1="208.0261" x2="90" y2="-9.094947e-13">
		<stop  offset="0" style="stop-color:#A0B6FF"/>
		<stop  offset="0.5251" style="stop-color:#90AAFF"/>
		<stop  offset="1" style="stop-color:#88A3FF"/>
	</linearGradient>
	<path class="st1" d="M180,195c-6.7,0-5.7-5.1-9.1-5.1c-4.4,0-3.1,13.9-8.8,13.9c-6.4,0-5-9.6-7.2-9.6c-4.2,0-3.2,6-9.6,6
		c-5.9,0-4.5-12.6-7.6-12.6c-6.2,0-5.2,17.8-11.6,17.8c-6.2,0-7.9-14.2-12.2-14.2c-4.6,0-5.7,12.8-12.2,13
		c-5.4,0.1-4.2-8.5-10.6-8.5c-6.2,0-4.2,12.3-10.3,12.3c-5.1,0-7.5-16.8-12.6-16.8c-5.4,0-8.9,8.8-14.3,8.8c-9,0-7.1-15.1-14.8-15.1
		c-6.7,0-6.6,20.8-12,20.8c-5.7,0-4.7-16.3-11.3-16.3c-6.4,0-7.5,18.9-15.8,5.7V0h180V195z"/>
	<linearGradient id="SVGID_3_" gradientUnits="userSpaceOnUse" x1="90" y1="136.6374" x2="90" y2="-9.094947e-13">
		<stop  offset="0" style="stop-color:#809DFF"/>
		<stop  offset="0.4315" style="stop-color:#7D9BFF"/>
		<stop  offset="0.7835" style="stop-color:#7293FF"/>
		<stop  offset="1" style="stop-color:#688BFF"/>
	</linearGradient>
	<path class="st2" d="M180,124.7c-4.7-0.8-4.2,7.2-8.4,7.2c-5.2,0-6.4-11.1-9.1-11.1c-3.9,0-2.5,8.8-6.7,8.8c-4.7,0-4.7-7.8-7.6-7.8
		c-4.9,0-3.4,14.8-7.6,14.8c-5.2,0-6.5-16.1-9.6-16.1c-4.2,0-3,10.3-7.1,10.3c-3.9,0-3.4,5.8-9.9,5.8c-4.7,0-4.9-16.3-10.1-16.3
		c-5.4,0-4.4,11.6-8.9,11.6c-5,0-7.6-14.8-10.3-14.8c-5.4,0-3.2,19.6-8.4,19.6c-5.4,0-4.4-14.6-8.6-14.6c-3.9,0-6.2,7.8-8.4,7.8
		c-5.7,0-4.8-8.5-9.1-8.5c-3.4,0-7.7,13.1-11.1,13.1c-1.3,0-3-6.3-6.7-6.3c-4.4,0-5.9-8.8-11.1-8.8c-4.7,0-4.9,12.3-10.6,12.3
		c-2.8,0-6.7-11.8-10.8-7V0h180V124.7z"/>
	<linearGradient id="SVGID_4_" gradientUnits="userSpaceOnUse" x1="90" y1="72.0429" x2="90" y2="0">
		<stop  offset="0" style="stop-color:#DFE7FF"/>
		<stop  offset="0.5251" style="stop-color:#D0DBFF"/>
		<stop  offset="1" style="stop-color:#C7D4FF"/>
	</linearGradient>
	<path class="st3" d="M180,62.9c-7.2-7.3-8.8,3.9-12.6,3.9c-2.7,0-5.1-10.9-7.8-10.9c-3.4,0-7.6,6.5-11.3,6.5
		c-3.8,0-1.5-11.6-5.7-11.6c-3.8,0-4.5,6.2-6.9,6.2c-3.8,0-4.4,8.2-7.9,8.2c-4.8,0-6.6-12.2-9.9-12.2c-4.6,0-2.9,13.1-7.1,13.1
		c-4.1,0-5.3-7.5-9.4-7.5c-6.2,0-3.8,8.5-9,8.5c-4.6,0-4.8-13.1-8.7-13.1C79.2,54.1,81,69,77.4,69c-2.1,0-3.6-6.5-6.7-6.5
		c-3,0-1.6,9.6-6.2,9.6S61.1,56,57,56c-3.4,0-6.1,11.6-7.4,11.6c-2.8,0-2.5-6.5-5.3-6.5c-1.9,0-2.2-6.5-6.6-6.5
		c-6.2,0-2.3,14.9-9,14.9c-4.6,0-4.6-9-7.2-9c-4.1,0-2.8,5.7-6.7,5.7C11.3,66,13.6,56,7.9,56c-4.1,0-2.5,11.2-7.9,7V0h180V62.9z"/>
</g>
<g>
	<linearGradient id="SVGID_5_" gradientUnits="userSpaceOnUse" x1="270" y1="250" x2="270" y2="-9.094947e-13">
		<stop  offset="0" style="stop-color:#BFCEFF"/>
		<stop  offset="0.5251" style="stop-color:#B0C2FF"/>
		<stop  offset="1" style="stop-color:#A8BCFF"/>
	</linearGradient>
	<rect x="180" class="st4" width="180" height="250"/>
	<linearGradient id="SVGID_6_" gradientUnits="userSpaceOnUse" x1="270" y1="238.2111" x2="270" y2="30.185">
		<stop  offset="0" style="stop-color:#A0B6FF"/>
		<stop  offset="0.5251" style="stop-color:#90AAFF"/>
		<stop  offset="1" style="stop-color:#88A3FF"/>
	</linearGradient>
	<path class="st5" d="M360,225.2c-6.7,0-5.7-5.1-9.1-5.1c-4.4,0-3.1,13.9-8.8,13.9c-6.4,0-5-9.6-7.2-9.6c-4.2,0-3.2,6-9.6,6
		c-5.9,0-4.5-12.6-7.6-12.6c-6.2,0-5.2,17.8-11.6,17.8c-6.2,0-7.9-14.2-12.2-14.2c-4.6,0-5.7,12.8-12.2,13
		c-5.4,0.1-4.2-8.5-10.6-8.5c-6.2,0-4.2,12.3-10.3,12.3c-5.1,0-7.5-16.8-12.6-16.8c-5.4,0-8.9,8.8-14.3,8.8c-9,0-7.1-15.1-14.8-15.1
		c-6.7,0-6.6,20.8-12,20.8c-5.7,0-4.7-16.3-11.3-16.3c-6.4,0-7.5,18.9-15.8,5.7v-195h180V225.2z"/>
	<linearGradient id="SVGID_7_" gradientUnits="userSpaceOnUse" x1="270" y1="176.884" x2="270" y2="40.2467">
		<stop  offset="0" style="stop-color:#809DFF"/>
		<stop  offset="0.4315" style="stop-color:#7D9BFF"/>
		<stop  offset="0.7835" style="stop-color:#7293FF"/>
		<stop  offset="1" style="stop-color:#688BFF"/>
	</linearGradient>
	<path class="st6" d="M360,164.9c-4.7-0.8-4.2,7.2-8.4,7.2c-5.2,0-6.4-11.1-9.1-11.1c-3.9,0-2.5,8.8-6.7,8.8c-4.7,0-4.7-7.8-7.6-7.8
		c-4.9,0-3.4,14.8-7.6,14.8c-5.2,0-6.5-16.1-9.6-16.1c-4.2,0-3,10.3-7.1,10.3c-3.9,0-3.4,5.8-9.9,5.8c-4.7,0-4.9-16.3-10.1-16.3
		c-5.4,0-4.4,11.6-8.9,11.6c-5,0-7.6-14.8-10.3-14.8c-5.4,0-3.2,19.6-8.4,19.6c-5.4,0-4.4-14.6-8.6-14.6c-3.9,0-6.2,7.8-8.4,7.8
		c-5.7,0-4.8-8.5-9.1-8.5c-3.4,0-7.7,13.1-11.1,13.1c-1.3,0-3-6.3-6.7-6.3c-4.4,0-5.9-8.8-11.1-8.8c-4.7,0-4.9,12.3-10.6,12.3
		c-2.8,0-6.7-11.8-10.8-7V40.2h180V164.9z"/>
	<linearGradient id="SVGID_8_" gradientUnits="userSpaceOnUse" x1="270" y1="102.2279" x2="270" y2="10.0617">
		<stop  offset="0" style="stop-color:#DFE7FF"/>
		<stop  offset="0.5251" style="stop-color:#D0DBFF"/>
		<stop  offset="1" style="stop-color:#C7D4FF"/>
	</linearGradient>
	<path class="st7" d="M360,93.1c-7.2-7.3-8.8,3.9-12.6,3.9c-2.7,0-5.1-10.9-7.8-10.9c-3.4,0-7.6,6.5-11.3,6.5
		c-3.8,0-1.5-11.6-5.7-11.6c-3.8,0-4.5,6.2-6.9,6.2c-3.8,0-4.4,8.2-7.9,8.2c-4.8,0-6.6-12.2-9.9-12.2c-4.6,0-2.9,13.1-7.1,13.1
		c-4.1,0-5.3-7.5-9.4-7.5c-6.2,0-3.8,8.5-9,8.5c-4.6,0-4.8-13.1-8.7-13.1c-4.6,0-2.8,14.9-6.4,14.9c-2.1,0-3.6-6.5-6.7-6.5
		c-3,0-1.6,9.6-6.2,9.6s-3.3-16.1-7.4-16.1c-3.4,0-6.1,11.6-7.4,11.6c-2.8,0-2.5-6.5-5.3-6.5c-1.9,0-2.2-6.5-6.6-6.5
		c-6.2,0-2.3,14.9-9,14.9c-4.6,0-4.6-9-7.2-9c-4.1,0-2.8,5.7-6.7,5.7c-3.4,0-1.1-10.1-6.9-10.1c-4.1,0-2.5,11.2-7.9,7V10.1h180V93.1
		z"/>
	<linearGradient id="SVGID_9_" gradientUnits="userSpaceOnUse" x1="270" y1="40.2467" x2="270" y2="0">
		<stop  offset="0" style="stop-color:#BFCEFF"/>
		<stop  offset="0.5251" style="stop-color:#B0C2FF"/>
		<stop  offset="1" style="stop-color:#A8BCFF"/>
	</linearGradient>
	<path class="st8" d="M360,27.3c-6.7,0-5.7-5.1-9.1-5.1c-4.4,0-3.1,13.9-8.8,13.9c-6.4,0-5-9.6-7.2-9.6c-4.2,0-3.2,6-9.6,6
		c-5.9,0-4.5-12.6-7.6-12.6c-6.2,0-5.2,17.8-11.6,17.8c-6.2,0-7.9-14.2-12.2-14.2c-4.6,0-5.7,12.8-12.2,13
		c-5.4,0.1-4.2-8.5-10.6-8.5c-6.2,0-4.2,12.3-10.3,12.3c-5.1,0-7.5-16.8-12.6-16.8c-5.4,0-8.9,8.8-14.3,8.8c-9,0-7.1-15.1-14.8-15.1
		c-6.7,0-6.6,20.8-12,20.8c-5.7,0-4.7-16.3-11.3-16.3c-6.4,0-7.5,18.9-15.8,5.7V0h180V27.3z"/>
</g>
<g>
	<linearGradient id="SVGID_10_" gradientUnits="userSpaceOnUse" x1="450" y1="250" x2="450" y2="-9.094947e-13">
		<stop  offset="0" style="stop-color:#A0B6FF"/>
		<stop  offset="0.5251" style="stop-color:#90AAFF"/>
		<stop  offset="1" style="stop-color:#88A3FF"/>
	</linearGradient>
	<rect x="360" class="st9" width="180" height="250"/>
	<linearGradient id="SVGID_11_" gradientUnits="userSpaceOnUse" x1="450" y1="207.069" x2="450" y2="70.4316">
		<stop  offset="0" style="stop-color:#809DFF"/>
		<stop  offset="0.4315" style="stop-color:#7D9BFF"/>
		<stop  offset="0.7835" style="stop-color:#7293FF"/>
		<stop  offset="1" style="stop-color:#688BFF"/>
	</linearGradient>
	<path class="st10" d="M540,195.1c-4.7-0.8-4.2,7.2-8.4,7.2c-5.2,0-6.4-11.1-9.1-11.1c-3.9,0-2.5,8.8-6.7,8.8
		c-4.7,0-4.7-7.8-7.6-7.8c-4.9,0-3.4,14.8-7.6,14.8c-5.2,0-6.5-16.1-9.6-16.1c-4.2,0-3,10.3-7.1,10.3c-3.9,0-3.4,5.8-9.9,5.8
		c-4.7,0-4.9-16.3-10.1-16.3c-5.4,0-4.4,11.6-8.9,11.6c-5,0-7.6-14.8-10.3-14.8c-5.4,0-3.2,19.6-8.4,19.6c-5.4,0-4.4-14.6-8.6-14.6
		c-3.9,0-6.2,7.8-8.4,7.8c-5.7,0-4.8-8.5-9.1-8.5c-3.4,0-7.7,13.1-11.1,13.1c-1.3,0-3-6.3-6.7-6.3c-4.4,0-5.9-8.8-11.1-8.8
		c-4.7,0-4.9,12.3-10.6,12.3c-2.8,0-6.7-11.8-10.8-7V70.4h180V195.1z"/>
	<linearGradient id="SVGID_12_" gradientUnits="userSpaceOnUse" x1="450" y1="142.4745" x2="450" y2="43.2651">
		<stop  offset="0" style="stop-color:#DFE7FF"/>
		<stop  offset="0.5251" style="stop-color:#D0DBFF"/>
		<stop  offset="1" style="stop-color:#C7D4FF"/>
	</linearGradient>
	<path class="st11" d="M540,133.4c-7.2-7.3-8.8,3.9-12.6,3.9c-2.7,0-5.1-10.9-7.8-10.9c-3.4,0-7.6,6.5-11.3,6.5
		c-3.8,0-1.5-11.6-5.7-11.6c-3.8,0-4.5,6.2-6.9,6.2c-3.8,0-4.4,8.2-7.9,8.2c-4.8,0-6.6-12.2-9.9-12.2c-4.6,0-2.9,13.1-7.1,13.1
		c-4.1,0-5.3-7.5-9.4-7.5c-6.2,0-3.8,8.5-9,8.5c-4.6,0-4.8-13.1-8.7-13.1c-4.6,0-2.8,14.9-6.4,14.9c-2.1,0-3.6-6.5-6.7-6.5
		c-3,0-1.6,9.6-6.2,9.6c-4.6,0-3.3-16.1-7.4-16.1c-3.4,0-6.1,11.6-7.4,11.6c-2.8,0-2.5-6.5-5.3-6.5c-1.9,0-2.2-6.5-6.6-6.5
		c-6.2,0-2.3,14.9-9,14.9c-4.6,0-4.6-9-7.2-9c-4.1,0-2.8,5.7-6.7,5.7c-3.4,0-1.1-10.1-6.9-10.1c-4.1,0-2.5,11.2-7.9,7V43.3h180
		V133.4z"/>
	<linearGradient id="SVGID_13_" gradientUnits="userSpaceOnUse" x1="450" y1="70.4316" x2="450" y2="0">
		<stop  offset="0" style="stop-color:#BFCEFF"/>
		<stop  offset="0.5251" style="stop-color:#B0C2FF"/>
		<stop  offset="1" style="stop-color:#A8BCFF"/>
	</linearGradient>
	<path class="st12" d="M540,57.5c-6.7,0-5.7-5.1-9.1-5.1c-4.4,0-3.1,13.9-8.8,13.9c-6.4,0-5-9.6-7.2-9.6c-4.2,0-3.2,6-9.6,6
		c-5.9,0-4.5-12.6-7.6-12.6c-6.2,0-5.2,17.8-11.6,17.8c-6.2,0-7.9-14.2-12.2-14.2c-4.6,0-5.7,12.8-12.2,13
		c-5.4,0.1-4.2-8.5-10.6-8.5c-6.2,0-4.2,12.3-10.3,12.3c-5.1,0-7.5-16.8-12.6-16.8c-5.4,0-8.9,8.8-14.3,8.8c-9,0-7.1-15.1-14.8-15.1
		c-6.7,0-6.6,20.8-12,20.8c-5.7,0-4.7-16.3-11.3-16.3c-6.4,0-7.5,18.9-15.8,5.7V0h180V57.5z"/>
</g>
<g>
	<linearGradient id="SVGID_14_" gradientUnits="userSpaceOnUse" x1="630" y1="250" x2="630" y2="-9.094947e-13">
		<stop  offset="0" style="stop-color:#A0B6FF"/>
		<stop  offset="0.5251" style="stop-color:#90AAFF"/>
		<stop  offset="1" style="stop-color:#88A3FF"/>
	</linearGradient>
	<rect x="540" class="st13" width="180" height="250"/>
	<linearGradient id="SVGID_15_" gradientUnits="userSpaceOnUse" x1="630" y1="237.254" x2="630" y2="100.6166">
		<stop  offset="0" style="stop-color:#809DFF"/>
		<stop  offset="0.4315" style="stop-color:#7D9BFF"/>
		<stop  offset="0.7835" style="stop-color:#7293FF"/>
		<stop  offset="1" style="stop-color:#688BFF"/>
	</linearGradient>
	<path class="st14" d="M720,225.3c-4.7-0.8-4.2,7.2-8.4,7.2c-5.2,0-6.4-11.1-9.1-11.1c-3.9,0-2.5,8.8-6.7,8.8
		c-4.7,0-4.7-7.8-7.6-7.8c-4.9,0-3.4,14.8-7.6,14.8c-5.2,0-6.5-16.1-9.6-16.1c-4.2,0-3,10.3-7.1,10.3c-3.9,0-3.4,5.8-9.9,5.8
		c-4.7,0-4.9-16.3-10.1-16.3c-5.4,0-4.4,11.6-8.9,11.6c-5,0-7.6-14.8-10.3-14.8c-5.4,0-3.2,19.6-8.4,19.6c-5.4,0-4.4-14.6-8.6-14.6
		c-3.9,0-6.2,7.8-8.4,7.8c-5.7,0-4.8-8.5-9.1-8.5c-3.4,0-7.7,13.1-11.1,13.1c-1.3,0-3-6.3-6.7-6.3c-4.4,0-5.9-8.8-11.1-8.8
		c-4.7,0-4.9,12.3-10.6,12.3c-2.8,0-6.7-11.8-10.8-7V100.6h180V225.3z"/>
	<linearGradient id="SVGID_16_" gradientUnits="userSpaceOnUse" x1="630" y1="172.6595" x2="630" y2="60.37">
		<stop  offset="0" style="stop-color:#DFE7FF"/>
		<stop  offset="0.5251" style="stop-color:#D0DBFF"/>
		<stop  offset="1" style="stop-color:#C7D4FF"/>
	</linearGradient>
	<path class="st15" d="M720,163.6c-7.2-7.3-8.8,3.9-12.6,3.9c-2.7,0-5.1-10.9-7.8-10.9c-3.4,0-7.6,6.5-11.3,6.5
		c-3.8,0-1.5-11.6-5.7-11.6c-3.8,0-4.5,6.2-6.9,6.2c-3.8,0-4.4,8.2-7.9,8.2c-4.8,0-6.6-12.2-9.9-12.2c-4.6,0-2.9,13.1-7.1,13.1
		c-4.1,0-5.3-7.5-9.4-7.5c-6.2,0-3.8,8.5-9,8.5c-4.6,0-4.8-13.1-8.7-13.1c-4.6,0-2.8,14.9-6.4,14.9c-2.1,0-3.6-6.5-6.7-6.5
		c-3,0-1.6,9.6-6.2,9.6c-4.6,0-3.3-16.1-7.4-16.1c-3.4,0-6.1,11.6-7.4,11.6c-2.8,0-2.5-6.5-5.3-6.5c-1.9,0-2.2-6.5-6.6-6.5
		c-6.2,0-2.3,14.9-9,14.9c-4.6,0-4.6-9-7.2-9c-4.1,0-2.8,5.7-6.7,5.7c-3.4,0-1.1-10.1-6.9-10.1c-4.1,0-2.5,11.2-7.9,7V60.4h180
		V163.6z"/>
	<linearGradient id="SVGID_17_" gradientUnits="userSpaceOnUse" x1="630" y1="100.6166" x2="630" y2="10.0617">
		<stop  offset="0" style="stop-color:#BFCEFF"/>
		<stop  offset="0.5251" style="stop-color:#B0C2FF"/>
		<stop  offset="1" style="stop-color:#A8BCFF"/>
	</linearGradient>
	<path class="st16" d="M720,87.6c-6.7,0-5.7-5.1-9.1-5.1c-4.4,0-3.1,13.9-8.8,13.9c-6.4,0-5-9.6-7.2-9.6c-4.2,0-3.2,6-9.6,6
		c-5.9,0-4.5-12.6-7.6-12.6c-6.2,0-5.2,17.8-11.6,17.8c-6.2,0-7.9-14.2-12.2-14.2c-4.6,0-5.7,12.8-12.2,13
		c-5.4,0.1-4.2-8.5-10.6-8.5c-6.2,0-4.2,12.3-10.3,12.3c-5.1,0-7.5-16.8-12.6-16.8c-5.4,0-8.9,8.8-14.3,8.8c-9,0-7.1-15.1-14.8-15.1
		c-6.7,0-6.6,20.8-12,20.8c-5.7,0-4.7-16.3-11.3-16.3c-6.4,0-7.5,18.9-15.8,5.7V10.1h180V87.6z"/>
	<linearGradient id="SVGID_18_" gradientUnits="userSpaceOnUse" x1="630" y1="46.0831" x2="630" y2="0">
		<stop  offset="0" style="stop-color:#A0B6FF"/>
		<stop  offset="0.5251" style="stop-color:#90AAFF"/>
		<stop  offset="1" style="stop-color:#88A3FF"/>
	</linearGradient>
	<path class="st17" d="M720,33.1c-6.7,0-5.7-5.1-9.1-5.1c-4.4,0-3.1,13.9-8.8,13.9c-6.4,0-5-9.6-7.2-9.6c-4.2,0-3.2,6-9.6,6
		c-5.9,0-4.5-12.6-7.6-12.6c-6.2,0-5.2,17.8-11.6,17.8c-6.2,0-7.9-14.2-12.2-14.2c-4.6,0-5.7,12.8-12.2,13
		c-5.4,0.1-4.2-8.5-10.6-8.5c-6.2,0-4.2,12.3-10.3,12.3c-5.1,0-7.5-16.8-12.6-16.8c-5.4,0-8.9,8.8-14.3,8.8c-9,0-7.1-15.1-14.8-15.1
		c-6.7,0-6.6,20.8-12,20.8c-5.7,0-4.7-16.3-11.3-16.3c-6.4,0-7.5,18.9-15.8,5.7V0h180V33.1z"/>
</g>
<g>
	<linearGradient id="SVGID_19_" gradientUnits="userSpaceOnUse" x1="810" y1="250" x2="810" y2="-9.094947e-13">
		<stop  offset="0" style="stop-color:#809DFF"/>
		<stop  offset="0.4315" style="stop-color:#7D9BFF"/>
		<stop  offset="0.7835" style="stop-color:#7293FF"/>
		<stop  offset="1" style="stop-color:#688BFF"/>
	</linearGradient>
	<rect x="720" class="st18" width="180" height="250"/>
	<linearGradient id="SVGID_20_" gradientUnits="userSpaceOnUse" x1="810" y1="212.9062" x2="810" y2="100.6166">
		<stop  offset="0" style="stop-color:#DFE7FF"/>
		<stop  offset="0.5251" style="stop-color:#D0DBFF"/>
		<stop  offset="1" style="stop-color:#C7D4FF"/>
	</linearGradient>
	<path class="st19" d="M900,203.8c-7.2-7.3-8.8,3.9-12.6,3.9c-2.7,0-5.1-10.9-7.8-10.9c-3.4,0-7.6,6.5-11.3,6.5
		c-3.8,0-1.5-11.6-5.7-11.6c-3.8,0-4.5,6.2-6.9,6.2c-3.8,0-4.4,8.2-7.9,8.2c-4.8,0-6.6-12.2-9.9-12.2c-4.6,0-2.9,13.1-7.1,13.1
		c-4.1,0-5.3-7.5-9.4-7.5c-6.2,0-3.8,8.5-9,8.5c-4.6,0-4.8-13.1-8.7-13.1c-4.6,0-2.8,14.9-6.4,14.9c-2.1,0-3.6-6.5-6.7-6.5
		c-3,0-1.6,9.6-6.2,9.6c-4.6,0-3.3-16.1-7.4-16.1c-3.4,0-6.1,11.6-7.4,11.6c-2.8,0-2.5-6.5-5.3-6.5c-1.9,0-2.2-6.5-6.6-6.5
		c-6.2,0-2.3,14.9-9,14.9c-4.6,0-4.6-9-7.2-9c-4.1,0-2.8,5.7-6.7,5.7c-3.4,0-1.1-10.1-6.9-10.1c-4.1,0-2.5,11.2-7.9,7V100.6h180
		V203.8z"/>
	<linearGradient id="SVGID_21_" gradientUnits="userSpaceOnUse" x1="810" y1="140.8633" x2="810" y2="50.3083">
		<stop  offset="0" style="stop-color:#BFCEFF"/>
		<stop  offset="0.5251" style="stop-color:#B0C2FF"/>
		<stop  offset="1" style="stop-color:#A8BCFF"/>
	</linearGradient>
	<path class="st20" d="M900,127.9c-6.7,0-5.7-5.1-9.1-5.1c-4.4,0-3.1,13.9-8.8,13.9c-6.4,0-5-9.6-7.2-9.6c-4.2,0-3.2,6-9.6,6
		c-5.9,0-4.5-12.6-7.6-12.6c-6.2,0-5.2,17.8-11.6,17.8c-6.2,0-7.9-14.2-12.2-14.2c-4.6,0-5.7,12.8-12.2,13
		c-5.4,0.1-4.2-8.5-10.6-8.5c-6.2,0-4.2,12.3-10.3,12.3c-5.1,0-7.5-16.8-12.6-16.8c-5.4,0-8.9,8.8-14.3,8.8c-9,0-7.1-15.1-14.8-15.1
		c-6.7,0-6.6,20.8-12,20.8c-5.7,0-4.7-16.3-11.3-16.3c-6.4,0-7.5,18.9-15.8,5.7V50.3h180V127.9z"/>
	<linearGradient id="SVGID_22_" gradientUnits="userSpaceOnUse" x1="810" y1="76.2681" x2="810" y2="0">
		<stop  offset="0" style="stop-color:#A0B6FF"/>
		<stop  offset="0.5251" style="stop-color:#90AAFF"/>
		<stop  offset="1" style="stop-color:#88A3FF"/>
	</linearGradient>
	<path class="st21" d="M900,63.3c-6.7,0-5.7-5.1-9.1-5.1c-4.4,0-3.1,13.9-8.8,13.9c-6.4,0-5-9.6-7.2-9.6c-4.2,0-3.2,6-9.6,6
		c-5.9,0-4.5-12.6-7.6-12.6c-6.2,0-5.2,17.8-11.6,17.8c-6.2,0-7.9-14.2-12.2-14.2c-4.6,0-5.7,12.8-12.2,13
		c-5.4,0.1-4.2-8.5-10.6-8.5c-6.2,0-4.2,12.3-10.3,12.3c-5.1,0-7.5-16.8-12.6-16.8c-5.4,0-8.9,8.8-14.3,8.8c-9,0-7.1-15.1-14.8-15.1
		c-6.7,0-6.6,20.8-12,20.8c-5.7,0-4.7-16.3-11.3-16.3c-6.4,0-7.5,18.9-15.8,5.7V0h180V63.3z"/>
</g>
<g>
	<linearGradient id="SVGID_23_" gradientUnits="userSpaceOnUse" x1="990" y1="250" x2="990" y2="-9.094947e-13">
		<stop  offset="0" style="stop-color:#809DFF"/>
		<stop  offset="0.4315" style="stop-color:#7D9BFF"/>
		<stop  offset="0.7835" style="stop-color:#7293FF"/>
		<stop  offset="1" style="stop-color:#688BFF"/>
	</linearGradient>
	<rect x="900" class="st22" width="180" height="250"/>
	<linearGradient id="SVGID_24_" gradientUnits="userSpaceOnUse" x1="990" y1="233.0295" x2="990" y2="120.7399">
		<stop  offset="0" style="stop-color:#DFE7FF"/>
		<stop  offset="0.5251" style="stop-color:#D0DBFF"/>
		<stop  offset="1" style="stop-color:#C7D4FF"/>
	</linearGradient>
	<path class="st23" d="M1080,223.9c-7.2-7.3-8.8,3.9-12.6,3.9c-2.7,0-5.1-10.9-7.8-10.9c-3.4,0-7.6,6.5-11.3,6.5
		c-3.8,0-1.5-11.6-5.7-11.6c-3.8,0-4.5,6.2-6.9,6.2c-3.8,0-4.4,8.2-7.9,8.2c-4.8,0-6.6-12.2-9.9-12.2c-4.6,0-2.9,13.1-7.1,13.1
		c-4.1,0-5.3-7.5-9.4-7.5c-6.2,0-3.8,8.5-9,8.5c-4.6,0-4.8-13.1-8.7-13.1c-4.6,0-2.8,14.9-6.4,14.9c-2.1,0-3.6-6.5-6.7-6.5
		c-3,0-1.6,9.6-6.2,9.6c-4.6,0-3.3-16.1-7.4-16.1c-3.4,0-6.1,11.6-7.4,11.6c-2.8,0-2.5-6.5-5.3-6.5c-1.9,0-2.2-6.5-6.6-6.5
		c-6.2,0-2.3,14.9-9,14.9c-4.6,0-4.6-9-7.2-9c-4.1,0-2.8,5.7-6.7,5.7c-3.4,0-1.1-10.1-6.9-10.1c-4.1,0-2.5,11.2-7.9,7V120.7h180
		V223.9z"/>
	<linearGradient id="SVGID_25_" gradientUnits="userSpaceOnUse" x1="990" y1="171.0483" x2="990" y2="80.4933">
		<stop  offset="0" style="stop-color:#BFCEFF"/>
		<stop  offset="0.5251" style="stop-color:#B0C2FF"/>
		<stop  offset="1" style="stop-color:#A8BCFF"/>
	</linearGradient>
	<path class="st24" d="M1080,158.1c-6.7,0-5.7-5.1-9.1-5.1c-4.4,0-3.1,13.9-8.8,13.9c-6.4,0-5-9.6-7.2-9.6c-4.2,0-3.2,6-9.6,6
		c-5.9,0-4.5-12.6-7.6-12.6c-6.2,0-5.2,17.8-11.6,17.8c-6.2,0-7.9-14.2-12.2-14.2c-4.6,0-5.7,12.8-12.2,13
		c-5.4,0.1-4.2-8.5-10.6-8.5c-6.2,0-4.2,12.3-10.3,12.3c-5.1,0-7.5-16.8-12.6-16.8c-5.4,0-8.9,8.8-14.3,8.8c-9,0-7.1-15.1-14.8-15.1
		c-6.7,0-6.6,20.8-12,20.8c-5.7,0-4.7-16.3-11.3-16.3c-6.4,0-7.5,18.9-15.8,5.7V80.5h180V158.1z"/>
	<linearGradient id="SVGID_26_" gradientUnits="userSpaceOnUse" x1="990" y1="106.4531" x2="990" y2="0">
		<stop  offset="0" style="stop-color:#A0B6FF"/>
		<stop  offset="0.5251" style="stop-color:#90AAFF"/>
		<stop  offset="1" style="stop-color:#88A3FF"/>
	</linearGradient>
	<path class="st25" d="M1080,93.5c-6.7,0-5.7-5.1-9.1-5.1c-4.4,0-3.1,13.9-8.8,13.9c-6.4,0-5-9.6-7.2-9.6c-4.2,0-3.2,6-9.6,6
		c-5.9,0-4.5-12.6-7.6-12.6c-6.2,0-5.2,17.8-11.6,17.8c-6.2,0-7.9-14.2-12.2-14.2c-4.6,0-5.7,12.8-12.2,13
		c-5.4,0.1-4.2-8.5-10.6-8.5c-6.2,0-4.2,12.3-10.3,12.3c-5.1,0-7.5-16.8-12.6-16.8c-5.4,0-8.9,8.8-14.3,8.8c-9,0-7.1-15.1-14.8-15.1
		c-6.7,0-6.6,20.8-12,20.8c-5.7,0-4.7-16.3-11.3-16.3c-6.4,0-7.5,18.9-15.8,5.7V0h180V93.5z"/>
	<linearGradient id="SVGID_27_" gradientUnits="userSpaceOnUse" x1="990" y1="46.0831" x2="990" y2="0">
		<stop  offset="0" style="stop-color:#809DFF"/>
		<stop  offset="0.4315" style="stop-color:#7D9BFF"/>
		<stop  offset="0.7835" style="stop-color:#7293FF"/>
		<stop  offset="1" style="stop-color:#688BFF"/>
	</linearGradient>
	<path class="st26" d="M1080,34.1c-4.7-0.8-4.2,7.2-8.4,7.2c-5.2,0-6.4-11.1-9.1-11.1c-3.9,0-2.5,8.8-6.7,8.8
		c-4.7,0-4.7-7.8-7.6-7.8c-4.9,0-3.4,14.8-7.6,14.8c-5.2,0-6.5-16.1-9.6-16.1c-4.2,0-3,10.3-7.1,10.3c-3.9,0-3.4,5.8-9.9,5.8
		c-4.7,0-4.9-16.3-10.1-16.3c-5.4,0-4.4,11.6-8.9,11.6c-5,0-7.6-14.8-10.3-14.8c-5.4,0-3.2,19.6-8.4,19.6c-5.4,0-4.4-14.6-8.6-14.6
		c-3.9,0-6.2,7.8-8.4,7.8c-5.7,0-4.8-8.5-9.1-8.5c-3.4,0-7.7,13.1-11.1,13.1c-1.3,0-3-6.3-6.7-6.3c-4.4,0-5.9-8.8-11.1-8.8
		c-4.7,0-4.9,12.3-10.6,12.3c-2.8,0-6.7-11.8-10.8-7V0h180V34.1z"/>
</g>
<g>
	<linearGradient id="SVGID_28_" gradientUnits="userSpaceOnUse" x1="1170" y1="250" x2="1170" y2="-9.094947e-13">
		<stop  offset="0" style="stop-color:#DFE7FF"/>
		<stop  offset="0.5251" style="stop-color:#D0DBFF"/>
		<stop  offset="1" style="stop-color:#C7D4FF"/>
	</linearGradient>
	<rect x="1080" class="st27" width="180" height="250"/>
	<linearGradient id="SVGID_29_" gradientUnits="userSpaceOnUse" x1="1170" y1="211.2949" x2="1170" y2="120.7399">
		<stop  offset="0" style="stop-color:#BFCEFF"/>
		<stop  offset="0.5251" style="stop-color:#B0C2FF"/>
		<stop  offset="1" style="stop-color:#A8BCFF"/>
	</linearGradient>
	<path class="st28" d="M1260,198.3c-6.7,0-5.7-5.1-9.1-5.1c-4.4,0-3.1,13.9-8.8,13.9c-6.4,0-5-9.6-7.2-9.6c-4.2,0-3.2,6-9.6,6
		c-5.9,0-4.5-12.6-7.6-12.6c-6.2,0-5.2,17.8-11.6,17.8c-6.2,0-7.9-14.2-12.2-14.2c-4.6,0-5.7,12.8-12.2,13
		c-5.4,0.1-4.2-8.5-10.6-8.5c-6.2,0-4.2,12.3-10.3,12.3c-5.1,0-7.5-16.8-12.6-16.8c-5.4,0-8.9,8.8-14.3,8.8c-9,0-7.1-15.1-14.8-15.1
		c-6.7,0-6.6,20.8-12,20.8c-5.7,0-4.7-16.3-11.3-16.3c-6.4,0-7.5,18.9-15.8,5.7v-77.6h180V198.3z"/>
	<linearGradient id="SVGID_30_" gradientUnits="userSpaceOnUse" x1="1170" y1="146.6997" x2="1170" y2="40.2467">
		<stop  offset="0" style="stop-color:#A0B6FF"/>
		<stop  offset="0.5251" style="stop-color:#90AAFF"/>
		<stop  offset="1" style="stop-color:#88A3FF"/>
	</linearGradient>
	<path class="st29" d="M1260,133.7c-6.7,0-5.7-5.1-9.1-5.1c-4.4,0-3.1,13.9-8.8,13.9c-6.4,0-5-9.6-7.2-9.6c-4.2,0-3.2,6-9.6,6
		c-5.9,0-4.5-12.6-7.6-12.6c-6.2,0-5.2,17.8-11.6,17.8c-6.2,0-7.9-14.2-12.2-14.2c-4.6,0-5.7,12.8-12.2,13
		c-5.4,0.1-4.2-8.5-10.6-8.5c-6.2,0-4.2,12.3-10.3,12.3c-5.1,0-7.5-16.8-12.6-16.8c-5.4,0-8.9,8.8-14.3,8.8c-9,0-7.1-15.1-14.8-15.1
		c-6.7,0-6.6,20.8-12,20.8c-5.7,0-4.7-16.3-11.3-16.3c-6.4,0-7.5,18.9-15.8,5.7V40.2h180V133.7z"/>
	<linearGradient id="SVGID_31_" gradientUnits="userSpaceOnUse" x1="1170" y1="76.2681" x2="1170" y2="0">
		<stop  offset="0" style="stop-color:#809DFF"/>
		<stop  offset="0.4315" style="stop-color:#7D9BFF"/>
		<stop  offset="0.7835" style="stop-color:#7293FF"/>
		<stop  offset="1" style="stop-color:#688BFF"/>
	</linearGradient>
	<path class="st30" d="M1260,64.3c-4.7-0.8-4.2,7.2-8.4,7.2c-5.2,0-6.4-11.1-9.1-11.1c-3.9,0-2.5,8.8-6.7,8.8
		c-4.7,0-4.7-7.8-7.6-7.8c-4.9,0-3.4,14.8-7.6,14.8c-5.2,0-6.5-16.1-9.6-16.1c-4.2,0-3,10.3-7.1,10.3c-3.9,0-3.4,5.8-9.9,5.8
		c-4.7,0-4.9-16.3-10.1-16.3c-5.4,0-4.4,11.6-8.9,11.6c-5,0-7.6-14.8-10.3-14.8c-5.4,0-3.2,19.6-8.4,19.6c-5.4,0-4.4-14.6-8.6-14.6
		c-3.9,0-6.2,7.8-8.4,7.8c-5.7,0-4.8-8.5-9.1-8.5c-3.4,0-7.7,13.1-11.1,13.1c-1.3,0-3-6.3-6.7-6.3c-4.4,0-5.9-8.8-11.1-8.8
		c-4.7,0-4.9,12.3-10.6,12.3c-2.8,0-6.7-11.8-10.8-7V0h180V64.3z"/>
</g>
<g>
	<linearGradient id="SVGID_32_" gradientUnits="userSpaceOnUse" x1="1350" y1="250" x2="1350" y2="-9.094947e-13">
		<stop  offset="0" style="stop-color:#DFE7FF"/>
		<stop  offset="0.5251" style="stop-color:#D0DBFF"/>
		<stop  offset="1" style="stop-color:#C7D4FF"/>
	</linearGradient>
	<rect x="1260" class="st31" width="180" height="250"/>
	<linearGradient id="SVGID_33_" gradientUnits="userSpaceOnUse" x1="1350" y1="231.4182" x2="1350" y2="140.8633">
		<stop  offset="0" style="stop-color:#BFCEFF"/>
		<stop  offset="0.5251" style="stop-color:#B0C2FF"/>
		<stop  offset="1" style="stop-color:#A8BCFF"/>
	</linearGradient>
	<path class="st32" d="M1440,218.4c-6.7,0-5.7-5.1-9.1-5.1c-4.4,0-3.1,13.9-8.8,13.9c-6.4,0-5-9.6-7.2-9.6c-4.2,0-3.2,6-9.6,6
		c-5.9,0-4.5-12.6-7.6-12.6c-6.2,0-5.2,17.8-11.6,17.8c-6.2,0-7.9-14.2-12.2-14.2c-4.6,0-5.7,12.8-12.2,13
		c-5.4,0.1-4.2-8.5-10.6-8.5c-6.2,0-4.2,12.3-10.3,12.3c-5.1,0-7.5-16.8-12.6-16.8c-5.4,0-8.9,8.8-14.3,8.8c-9,0-7.1-15.1-14.8-15.1
		c-6.7,0-6.6,20.8-12,20.8c-5.7,0-4.7-16.3-11.3-16.3c-6.4,0-7.5,18.9-15.8,5.7v-77.6h180V218.4z"/>
	<linearGradient id="SVGID_34_" gradientUnits="userSpaceOnUse" x1="1350" y1="176.8847" x2="1350" y2="70.4316">
		<stop  offset="0" style="stop-color:#A0B6FF"/>
		<stop  offset="0.5251" style="stop-color:#90AAFF"/>
		<stop  offset="1" style="stop-color:#88A3FF"/>
	</linearGradient>
	<path class="st33" d="M1440,163.9c-6.7,0-5.7-5.1-9.1-5.1c-4.4,0-3.1,13.9-8.8,13.9c-6.4,0-5-9.6-7.2-9.6c-4.2,0-3.2,6-9.6,6
		c-5.9,0-4.5-12.6-7.6-12.6c-6.2,0-5.2,17.8-11.6,17.8c-6.2,0-7.9-14.2-12.2-14.2c-4.6,0-5.7,12.8-12.2,13
		c-5.4,0.1-4.2-8.5-10.6-8.5c-6.2,0-4.2,12.3-10.3,12.3c-5.1,0-7.5-16.8-12.6-16.8c-5.4,0-8.9,8.8-14.3,8.8c-9,0-7.1-15.1-14.8-15.1
		c-6.7,0-6.6,20.8-12,20.8c-5.7,0-4.7-16.3-11.3-16.3c-6.4,0-7.5,18.9-15.8,5.7V70.4h180V163.9z"/>
	<linearGradient id="SVGID_35_" gradientUnits="userSpaceOnUse" x1="1350" y1="106.4531" x2="1350" y2="0">
		<stop  offset="0" style="stop-color:#809DFF"/>
		<stop  offset="0.4315" style="stop-color:#7D9BFF"/>
		<stop  offset="0.7835" style="stop-color:#7293FF"/>
		<stop  offset="1" style="stop-color:#688BFF"/>
	</linearGradient>
	<path class="st34" d="M1440,94.5c-4.7-0.8-4.2,7.2-8.4,7.2c-5.2,0-6.4-11.1-9.1-11.1c-3.9,0-2.5,8.8-6.7,8.8
		c-4.7,0-4.7-7.8-7.6-7.8c-4.9,0-3.4,14.8-7.6,14.8c-5.2,0-6.5-16.1-9.6-16.1c-4.2,0-3,10.3-7.1,10.3c-3.9,0-3.4,5.8-9.9,5.8
		c-4.7,0-4.9-16.3-10.1-16.3c-5.4,0-4.4,11.6-8.9,11.6c-5,0-7.6-14.8-10.3-14.8c-5.4,0-3.2,19.6-8.4,19.6c-5.4,0-4.4-14.6-8.6-14.6
		c-3.9,0-6.2,7.8-8.4,7.8c-5.7,0-4.8-8.5-9.1-8.5c-3.4,0-7.7,13.1-11.1,13.1c-1.3,0-3-6.3-6.7-6.3c-4.4,0-5.9-8.8-11.1-8.8
		c-4.7,0-4.9,12.3-10.6,12.3c-2.8,0-6.7-11.8-10.8-7V0h180V94.5z"/>
	<linearGradient id="SVGID_36_" gradientUnits="userSpaceOnUse" x1="1350" y1="46.0831" x2="1350" y2="0">
		<stop  offset="0" style="stop-color:#DFE7FF"/>
		<stop  offset="0.5251" style="stop-color:#D0DBFF"/>
		<stop  offset="1" style="stop-color:#C7D4FF"/>
	</linearGradient>
	<path class="st35" d="M1440,37c-7.2-7.3-8.8,3.9-12.6,3.9c-2.7,0-5.1-10.9-7.8-10.9c-3.4,0-7.6,6.5-11.3,6.5
		c-3.8,0-1.5-11.6-5.7-11.6c-3.8,0-4.5,6.2-6.9,6.2c-3.8,0-4.4,8.2-7.9,8.2c-4.8,0-6.6-12.2-9.9-12.2c-4.6,0-2.9,13.1-7.1,13.1
		c-4.1,0-5.3-7.5-9.4-7.5c-6.2,0-3.8,8.5-9,8.5c-4.6,0-4.8-13.1-8.7-13.1c-4.6,0-2.8,14.9-6.4,14.9c-2.1,0-3.6-6.5-6.7-6.5
		c-3,0-1.6,9.6-6.2,9.6c-4.6,0-3.3-16.1-7.4-16.1c-3.4,0-6.1,11.6-7.4,11.6c-2.8,0-2.5-6.5-5.3-6.5c-1.9,0-2.2-6.5-6.6-6.5
		c-6.2,0-2.3,14.9-9,14.9c-4.6,0-4.6-9-7.2-9c-4.1,0-2.8,5.7-6.7,5.7c-3.4,0-1.1-10.1-6.9-10.1c-4.1,0-2.5,11.2-7.9,7V0h180V37z"/>
</g>
<path class="st36" d="M25,0H0v25C0,11.2,11.2,0,25,0z"/>
<path class="st36" d="M205,0h-25v25C180,11.2,191.2,0,205,0z"/>
<path class="st36" d="M385,0h-25v25C360,11.2,371.2,0,385,0z"/>
<path class="st36" d="M565,0h-25v25C540,11.2,551.2,0,565,0z"/>
<path class="st36" d="M745,0h-25v25C720,11.2,731.2,0,745,0z"/>
<path class="st36" d="M925,0h-25v25C900,11.2,911.2,0,925,0z"/>
<path class="st36" d="M1105,0h-25v25C1080,11.2,1091.2,0,1105,0z"/>
<path class="st36" d="M1285,0h-25v25C1260,11.2,1271.2,0,1285,0z"/>
</svg>
