<svg xmlns="http://www.w3.org/2000/svg" xmlns:xlink="http://www.w3.org/1999/xlink" viewBox="0 0 436.59 313.3"><defs><style>.cls-1{fill:#fff;}.cls-2{stroke:#232323;stroke-miterlimit:10;stroke-width:2px;fill:url(#linear-gradient);}</style><linearGradient id="linear-gradient" x1="220.3" y1="5" x2="220.3" y2="308.3" gradientUnits="userSpaceOnUse"><stop offset="0" stop-color="#c1dcca"/><stop offset="0.16" stop-color="#a6cdb3"/><stop offset="0.37" stop-color="#89bd9a"/><stop offset="0.59" stop-color="#75b287"/><stop offset="0.8" stop-color="#68ab7d"/><stop offset="1" stop-color="#64a979"/></linearGradient></defs><title>bg-mt-1</title><g id="Layer_2" data-name="Layer 2"><g id="Hills"><path class="cls-1" d="M0,313.3V113.22l1.52-1.47c3.28-3.18,7-8.83,11-14.82C21.95,82.71,33.68,65,50.83,62c12.72-2.2,21.18-12.5,28-20.78C84,34.89,88.18,29.84,93.68,29.38c5.77-.49,17.91-6.62,29.65-12.54C139.73,8.56,156.69,0,167.93,0c5,0,8.73,1.6,11.23,4.77C181,7.1,183,9.94,185.1,12.93c10.47,14.9,24.81,35.3,47.38,35.57,17.56.21,34.63,21.8,51.14,42.67,12.74,16.11,27.18,34.37,36.81,34.37a6.76,6.76,0,0,0,1.19-.1,16.74,16.74,0,0,1,2.95-.27c15.54,0,22.58,20.68,30,42.57,5.59,16.44,11.93,35.07,20.46,37.24,14.76,3.75,26,30,37.83,57.82,4.75,11.14,9.24,21.66,13.53,29.46,5.85,10.63,8.62,11,8.69,11H436v10Z"/><path class="cls-2" d="M5,115.34C16.61,104.09,29.72,70.77,51.68,67c23.76-4.1,33.66-31.87,42.42-32.62,17.53-1.5,70.48-40,81.13-26.49s27.1,45.28,57.19,45.64,64.87,81.36,90.08,76.86,27.74,73.47,51.32,79.47,44,98.47,61.28,98.47H5Z"/></g></g></svg>