<svg xmlns="http://www.w3.org/2000/svg" xmlns:xlink="http://www.w3.org/1999/xlink" viewBox="0 0 786.4 299.42"><defs><style>.cls-1{fill:#fff;}.cls-2{stroke:#232323;stroke-miterlimit:10;stroke-width:2px;fill:url(#linear-gradient);}</style><linearGradient id="linear-gradient" x1="390.99" y1="5" x2="390.99" y2="294.42" gradientUnits="userSpaceOnUse"><stop offset="0" stop-color="#c1dcca"/><stop offset="1" stop-color="#64a979"/></linearGradient></defs><title>bg-mt-2</title><g id="Layer_2" data-name="Layer 2"><g id="Hills"><path class="cls-1" d="M0,299.42l4.38-6.76v-3.24H6.74c6.61-9.72,34.2-49.86,65.22-89.55,20.88-26.71,39.23-48,54.55-63.34,20.5-20.5,35.06-30,45.84-30a15,15,0,0,1,7.65,2,26.18,26.18,0,0,0,13.4,3.89c11.84,0,22.46-8.8,31.84-16.56,7.77-6.44,13.91-11.52,20.4-11.52a11.12,11.12,0,0,1,4.35.87c4.28,0,15.7-12.17,23.26-20.21,13.89-14.77,28.25-30.05,41.38-30.05a16.18,16.18,0,0,1,3.39.35,11.47,11.47,0,0,0,2.34.21c10.94,0,34.31-9.51,54.92-17.91C397.4,8.51,418.3,0,429.79,0a16.32,16.32,0,0,1,5.54.84c5.14,1.84,13.54,6,23.26,10.91,20.2,10.11,47.87,24,61.26,24a10.13,10.13,0,0,0,3.19-.42,10.83,10.83,0,0,1,3.56-.6c10.4,0,20.19,14.53,32.58,32.92,11.92,17.69,26.74,39.7,38.49,39.7l.58,0c.42,0,.85,0,1.27,0,16.27,0,32,19.71,48.74,40.58,13,16.25,27.73,34.66,37.69,34.66,16.59,0,41.83,31.68,59.37,55.5,19.57,26.59,36.22,53.54,36.38,53.81l4.7,7.62Z"/><path class="cls-2" d="M9.39,294.42S144.47,93.56,177.47,112.77,234.54,84,248,89.73,296,35.61,317,40.11,416.83-.45,433.64,5.55,507.4,46,524.68,40s46.52,74.05,73.9,72.27,61.87,75.2,87.37,75.2,91.5,106.93,91.5,106.93Z"/></g></g></svg>