<svg xmlns="http://www.w3.org/2000/svg" xmlns:xlink="http://www.w3.org/1999/xlink" viewBox="0 0 428 297.02"><defs><style>.cls-1{fill:#fff;}.cls-2{stroke:#232323;stroke-miterlimit:10;stroke-width:2px;fill:url(#linear-gradient);}</style><linearGradient id="linear-gradient" x1="211.54" y1="5" x2="211.54" y2="292.02" gradientUnits="userSpaceOnUse"><stop offset="0" stop-color="#c1dcca"/><stop offset="0.16" stop-color="#a6cdb3"/><stop offset="0.37" stop-color="#89bd9a"/><stop offset="0.59" stop-color="#75b287"/><stop offset="0.8" stop-color="#68ab7d"/><stop offset="1" stop-color="#64a979"/></linearGradient></defs><title>bg-mt-3</title><g id="Layer_2" data-name="Layer 2"><g id="Hills"><path class="cls-1" d="M0,297V287c17,0,26.23-35,34.52-65.79,9.67-36,18.83-70,41.18-72.61,17-2,30.2-19.44,41.81-34.85,11-14.63,20.56-27.27,32.94-27.27a18.94,18.94,0,0,1,9.66,2.78,9.17,9.17,0,0,0,4.76,1.34c11.75,0,27-20.61,37.17-34.24,9.53-12.84,13.6-18,18.73-18a6.41,6.41,0,0,1,4.51,1.84c4-1.45,14-10.61,20.76-16.82,10.57-9.7,21.5-19.72,29.83-22.54a15,15,0,0,1,4.81-.8c10.22,0,18.65,10.29,26.8,20.25,5.91,7.21,12.6,15.38,17.49,15.86.3,0,.6,0,.9,0,5.76,0,11.23-5.63,16.52-11.07,5.75-5.91,11.19-11.5,18.26-11.5,5.45,0,11.75,2.94,19.72,6.66C391.79,25.57,406,32.2,423.24,33l4.76.23V297Z"/><path class="cls-2" d="M423,292V38c-29.93-1.43-51.26-19.43-62.34-19.43s-20.75,24-36.17,22.5S293.87,0,277.47,5.53s-49.4,47.55-55.4,38.55-39,64.5-64.5,49.5-42.57,55.5-81.28,60S40.59,292,.09,292Z"/></g></g></svg>