<svg xmlns="http://www.w3.org/2000/svg" viewBox="0 0 181.77 101.79"><defs><style>.cls-1,.cls-2{fill:#fff;}.cls-2{stroke:#232323;stroke-miterlimit:10;stroke-width:2px;}.cls-3{fill:#dfe7ff;}</style></defs><title>cloud3</title><g id="Layer_2" data-name="Layer 2"><g id="Hills"><path class="cls-1" d="M105.38,101.79a30.94,30.94,0,0,1-26.6-15.27,44.68,44.68,0,0,1-25.5,1.87A23.28,23.28,0,0,1,10.41,70.3a21.19,21.19,0,0,1,10-39.41A44.71,44.71,0,0,1,101,21.34a30.81,30.81,0,0,1,49.72,1.09q.7,0,1.39,0a29.65,29.65,0,1,1-16.46,54.32A30.86,30.86,0,0,1,105.38,101.79Z"/><path class="cls-2" d="M152.12,25.4a26.92,26.92,0,0,0-2.93.16,27.81,27.81,0,0,0-48.4,1.7A41.72,41.72,0,0,0,22.6,33.93c-.47,0-.94-.06-1.42-.06a18.18,18.18,0,0,0-6.85,35A20.28,20.28,0,1,0,51.46,84.83a41.68,41.68,0,0,0,28.7-2.14,27.81,27.81,0,0,0,53-11.71c0-.06,0-.11,0-.17A26.65,26.65,0,1,0,152.12,25.4Z"/><path class="cls-3" d="M22,62.3,16.37,60a12.72,12.72,0,0,1-7.81-9.85,12.64,12.64,0,0,0,7.81,13.72l3.87,1.58Z"/><path class="cls-3" d="M105.38,89.52a22.49,22.49,0,0,1-20.32-13L82.8,71.68,77.92,73.9a36.27,36.27,0,0,1-25,1.86l-5-1.42-1.62,4.94a14.86,14.86,0,0,1-28.87-2.75,15.16,15.16,0,0,0-.13,2,14.87,14.87,0,0,0,29,4.63l1.62-4.94,5,1.42a36.27,36.27,0,0,0,25-1.86l4.88-2.22,2.26,4.86A22.4,22.4,0,0,0,127.79,71l0-2.68A22.43,22.43,0,0,1,105.38,89.52Z"/><path class="cls-3" d="M152.12,69.43A21.09,21.09,0,0,1,137,63.14l-9.42-9.51.05,3.91L137,67a21.24,21.24,0,0,0,36.33-14.95c0-.65,0-1.29-.09-1.93A21.27,21.27,0,0,1,152.12,69.43Z"/></g></g></svg>