<svg xmlns="http://www.w3.org/2000/svg" xmlns:xlink="http://www.w3.org/1999/xlink" viewBox="0 0 75.92 145.65"><defs><style>.cls-1{fill:#fff;}.cls-2{stroke:#232323;stroke-miterlimit:10;stroke-width:2px;fill:url(#linear-gradient);}</style><linearGradient id="linear-gradient" x1="5" y1="72.38" x2="70.93" y2="72.38" gradientTransform="matrix(-1, 0, 0, 1, 75.92, 0)" gradientUnits="userSpaceOnUse"><stop offset="0" stop-color="#54795e"/><stop offset="1" stop-color="#1b4c29"/></linearGradient></defs><title>clover-right</title><g id="Layer_2" data-name="Layer 2"><g id="Hills"><path class="cls-1" d="M56.83,140.77a211.29,211.29,0,0,0,3.74-37.31,170.51,170.51,0,0,0-3.08-36.21A14.45,14.45,0,0,0,71,52.74a14.45,14.45,0,0,0-3.58-24.05,15.81,15.81,0,0,0-2.83-.92A15.87,15.87,0,0,0,66,25.35,14.61,14.61,0,0,0,52.79,4.83h-.1c-1.36-1-3-2.74-4.94-3.59A14.29,14.29,0,0,0,41.83,0,14.5,14.5,0,0,0,28.65,8.54a16,16,0,0,0-.92,2.84A15.76,15.76,0,0,0,25.32,10a14.33,14.33,0,0,0-5.93-1.27A14.45,14.45,0,0,0,4.93,23.26,14.45,14.45,0,0,0,8.52,47.31a15.8,15.8,0,0,0,2.83.92A15.78,15.78,0,0,0,10,50.64,14.23,14.23,0,0,0,23.13,70.83h.1a10.58,10.58,0,0,0,4.94,3.76,14.29,14.29,0,0,0,13.67-.9c5.39,31.16-1.16,63.27-1.24,63.63l-1,4.89,16.21,3.44Z"/><path class="cls-2" d="M5.83,30.25a9.41,9.41,0,0,1,4.43-4.6,9.45,9.45,0,0,1,13-11.11c2,.89,5.43,3.8,8.54,7.43-.12-4.85.5-9.38,1.4-11.38A9.45,9.45,0,0,1,50.3,10.3a9.45,9.45,0,0,1,11.11,13c-.89,2-3.8,5.43-7.43,8.54,4.85-.12,9.38.5,11.38,1.4a9.45,9.45,0,0,1,.31,17.09,9.45,9.45,0,0,1-13,11.11,12.08,12.08,0,0,1-2-1.2c4.13,15.18,5.05,30.85,4.87,43.14a206.94,206.94,0,0,1-3.64,36.34l-6.45-1.36c.11-.5,8.75-42.49-1.63-78.14a19.05,19.05,0,0,1-1.15,5.17,9.45,9.45,0,0,1-17.09.31,9.45,9.45,0,0,1-11.11-13c.89-2,3.8-5.43,7.43-8.54-4.85.12-9.38-.5-11.38-1.4A9.45,9.45,0,0,1,5.83,30.25Z"/></g></g></svg>