<?xml version="1.0" encoding="utf-8"?>
<!-- Generator: Adobe Illustrator 20.1.0, SVG Export Plug-In . SVG Version: 6.00 Build 0)  -->
<svg version="1.1" id="Layer_1" xmlns="http://www.w3.org/2000/svg" xmlns:xlink="http://www.w3.org/1999/xlink" x="0px" y="0px"
	 viewBox="0 0 1120 200" style="enable-background:new 0 0 1120 200;" xml:space="preserve">
<style type="text/css">
	.st0{fill:#FFFFFF;}
	.st1{fill:url(#SVGID_1_);stroke:#000000;stroke-width:2;stroke-miterlimit:10;}
	.st2{fill:#169B62;}
	.st3{fill:#FF883E;}
	.st4{fill:url(#SVGID_2_);stroke:#000000;stroke-width:2;stroke-miterlimit:10;}
	.st5{fill:url(#SVGID_3_);stroke:#000000;stroke-width:2;stroke-miterlimit:10;}
	.st6{fill:url(#SVGID_4_);stroke:#000000;stroke-width:2;stroke-miterlimit:10;}
	.st7{fill:url(#SVGID_5_);stroke:#000000;stroke-width:2;stroke-miterlimit:10;}
	.st8{fill:url(#SVGID_6_);stroke:#000000;stroke-width:2;stroke-miterlimit:10;}
	.st9{fill:url(#SVGID_7_);stroke:#000000;stroke-width:2;stroke-miterlimit:10;}
	.st10{fill:url(#SVGID_8_);stroke:#000000;stroke-width:2;stroke-miterlimit:10;}
</style>
<path class="st0" d="M10.4,193.4V27.1c-2-2.2-3.7-5.4-3.7-8.7C6.7,12.3,12.1,7,18.6,7c6.2,0,11.3,5.1,11.3,11.4c0,4-2.5,7.1-4.5,8.7
	v166.3H10.4z"/>
<linearGradient id="SVGID_1_" gradientUnits="userSpaceOnUse" x1="18.2642" y1="10.0437" x2="18.2642" y2="190.4323">
	<stop  offset="0" style="stop-color:#CCCCCC"/>
	<stop  offset="1" style="stop-color:#808080"/>
</linearGradient>
<path class="st1" d="M26.9,18.5c0-4.7-3.6-8.4-8.3-8.4c-4.7,0-8.9,3.8-8.9,8.4c0,3.1,1.7,5.8,3.7,7.3v164.7h5.3h3.7V25.7
	C24.4,24.3,26.9,21.6,26.9,18.5z"/>
<g>
	<rect x="16.4" y="31.4" class="st0" width="114" height="64"/>
	<g>
		<rect x="20.1" y="35.4" class="st2" width="35.6" height="56.1"/>
		<rect x="55.6" y="35.4" class="st0" width="35.6" height="56.1"/>
		<rect x="91.2" y="35.4" class="st3" width="35.6" height="56.1"/>
	</g>
	<path d="M126.4,35.4v56H92.5H56.9H20.4v-56h36.5h35.6H126.4 M128.4,33.4h-2.1H92.5H56.9H20.3h-1.9v0.9v56v3.1h1.9h36.6h35.6h33.8
		h2.1v-3.1v-56V33.4L128.4,33.4z"/>
</g>
<path class="st0" d="M150.4,193.4V27.1c-2-2.2-3.7-5.4-3.7-8.7c0-6.2,5.5-11.4,11.9-11.4c6.2,0,11.3,5.1,11.3,11.4
	c0,4-2.5,7.1-4.5,8.7v166.3H150.4z"/>
<linearGradient id="SVGID_2_" gradientUnits="userSpaceOnUse" x1="158.2642" y1="10.0437" x2="158.2642" y2="190.4323">
	<stop  offset="0" style="stop-color:#CCCCCC"/>
	<stop  offset="1" style="stop-color:#808080"/>
</linearGradient>
<path class="st4" d="M166.9,18.5c0-4.7-3.6-8.4-8.3-8.4c-4.7,0-8.9,3.8-8.9,8.4c0,3.1,1.7,5.8,3.7,7.3v164.7h5.3h3.7V25.7
	C164.4,24.3,166.9,21.6,166.9,18.5z"/>
<g>
	<g>
		<path class="st0" d="M156.4,95.4c0-21.3,0-42.7,0-64c38-12.8,76,12.8,114,0c0,21.3,0,42.7,0,64C232.4,108.2,194.4,82.6,156.4,95.4
			z"/>
		<g>
			<path class="st2" d="M195.6,88.8c-11.9-1.4-23.7-1.7-35.6,1.6c0-18.7,0-37.4,0-56.1c11.9-3.2,23.7-3,35.6-1.6
				C195.6,51.4,195.6,70.1,195.6,88.8z"/>
			<path class="st0" d="M231.2,94.2c-11.9-1.4-23.7-4-35.6-5.4c0-18.7,0-37.4,0-56.1c11.9,1.4,23.7,4,35.6,5.4
				C231.2,56.8,231.2,75.5,231.2,94.2z"/>
			<path class="st3" d="M266.7,92.6c-11.9,3.2-23.7,3-35.6,1.6c0-18.7,0-37.4,0-56.1c11.9,1.4,23.7,1.7,35.6-1.6
				C266.7,55.2,266.7,73.9,266.7,92.6z"/>
		</g>
		<path d="M266.4,36.6c0,18.7,0,37.3,0,56c-11.3,3-22.6,2.9-33.9,1.6c-11.9-1.3-23.7-3.9-35.6-5.4c-12.2-1.5-24.4-1.9-36.5,1.3
			c0-18.7,0-37.3,0-56c12.2-3.3,24.4-2.9,36.5-1.3c11.9,1.5,23.7,4.1,35.6,5.4C243.8,39.6,255.1,39.7,266.4,36.6 M268.4,34.1
			c-0.7,0.2-1.4,0.4-2.1,0.6c-11.3,3-22.6,2.9-33.8,1.6c-11.9-1.3-23.7-3.9-35.6-5.4c-12.2-1.5-24.4-1.9-36.6,1.3
			c-0.6,0.2-1.3,0.4-1.9,0.6c0,0.3,0,0.6,0,0.9c0,18.7,0,37.3,0,56c0,1,0,2.1,0,3.1c0.6-0.2,1.3-0.4,1.9-0.6
			c12.2-3.3,24.4-2.9,36.6-1.4c11.9,1.5,23.7,4.1,35.6,5.4c11.3,1.3,22.6,1.4,33.8-1.6c0.7-0.2,1.4-0.4,2.1-0.6c0-1,0-2.1,0-3.1
			c0-18.7,0-37.3,0-56C268.4,34.7,268.4,34.4,268.4,34.1L268.4,34.1z"/>
	</g>
</g>
<path class="st0" d="M290.4,193.4V27.1c-2-2.2-3.7-5.4-3.7-8.7c0-6.2,5.5-11.4,11.9-11.4c6.2,0,11.3,5.1,11.3,11.4
	c0,4-2.5,7.1-4.5,8.7v166.3H290.4z"/>
<linearGradient id="SVGID_3_" gradientUnits="userSpaceOnUse" x1="298.2642" y1="10.0437" x2="298.2642" y2="190.4323">
	<stop  offset="0" style="stop-color:#CCCCCC"/>
	<stop  offset="1" style="stop-color:#808080"/>
</linearGradient>
<path class="st5" d="M306.9,18.5c0-4.7-3.6-8.4-8.3-8.4c-4.7,0-8.9,3.8-8.9,8.4c0,3.1,1.7,5.8,3.7,7.3v164.7h5.3h3.7V25.7
	C304.4,24.3,306.9,21.6,306.9,18.5z"/>
<g>
	<g>
		<path class="st0" d="M296.4,95.4c0-21.3,0-42.7,0-64c38-25.6,76,25.6,114,0c0,21.3,0,42.7,0,64C372.4,121,334.4,69.8,296.4,95.4z"
			/>
		<g>
			<path class="st2" d="M335.6,86.1c-11.9-2.8-23.7-3.3-35.6,3.2c0-18.7,0-37.4,0-56.1c11.9-6.5,23.7-6,35.6-3.2
				C335.6,48.7,335.6,67.4,335.6,86.1z"/>
			<path class="st0" d="M371.2,96.9c-11.9-2.8-23.7-8-35.6-10.8c0-18.7,0-37.4,0-56.1c11.9,2.8,23.7,8,35.6,10.8
				C371.2,59.5,371.2,78.2,371.2,96.9z"/>
			<path class="st3" d="M406.7,93.7c-11.9,6.5-23.7,6-35.6,3.2c0-18.7,0-37.4,0-56.1c11.9,2.8,23.7,3.3,35.6-3.2
				C406.7,56.3,406.7,75,406.7,93.7z"/>
		</g>
		<path d="M406.4,37.9c0,18.7,0,37.3,0,56c-11.3,6.1-22.6,5.8-33.9,3.3c-11.9-2.6-23.7-7.8-35.6-10.8c-12.2-3.1-24.4-3.9-36.5,2.7
			c0-18.7,0-37.3,0-56c12.2-6.5,24.4-5.7,36.5-2.7c11.9,3,23.7,8.1,35.6,10.8C383.8,43.7,395.1,43.9,406.4,37.9 M408.4,34.7
			c-0.7,0.4-1.4,0.8-2.1,1.2c-11.3,6-22.6,5.8-33.8,3.3c-11.9-2.6-23.7-7.8-35.6-10.8c-12.2-3.1-24.4-3.9-36.6,2.7
			c-0.6,0.3-1.3,0.7-1.9,1.1c0,0.3,0,0.6,0,0.9c0,18.7,0,37.3,0,56c0,1,0,2.1,0,3.1c0.6-0.4,1.3-0.8,1.9-1.1
			c12.2-6.6,24.4-5.8,36.6-2.7c11.9,3,23.7,8.1,35.6,10.8c11.3,2.5,22.6,2.8,33.8-3.3c0.7-0.4,1.4-0.8,2.1-1.2c0-1,0-2.1,0-3.1
			c0-18.7,0-37.3,0-56C408.4,35.3,408.4,35,408.4,34.7C408.4,34.7,408.4,34.7,408.4,34.7z"/>
	</g>
</g>
<path class="st0" d="M430.4,193.4V27.1c-2-2.2-3.7-5.4-3.7-8.7c0-6.2,5.5-11.4,11.9-11.4c6.2,0,11.3,5.1,11.3,11.4
	c0,4-2.5,7.1-4.5,8.7v166.3H430.4z"/>
<linearGradient id="SVGID_4_" gradientUnits="userSpaceOnUse" x1="438.2642" y1="10.0437" x2="438.2642" y2="190.4323">
	<stop  offset="0" style="stop-color:#CCCCCC"/>
	<stop  offset="1" style="stop-color:#808080"/>
</linearGradient>
<path class="st6" d="M446.9,18.5c0-4.7-3.6-8.4-8.3-8.4c-4.7,0-8.9,3.8-8.9,8.4c0,3.1,1.7,5.8,3.7,7.3v164.7h5.3h3.7V25.7
	C444.4,24.3,446.9,21.6,446.9,18.5z"/>
<g>
	<g>
		<path class="st0" d="M436.4,95.4c0-21.3,0-42.7,0-64c38-12.8,76,12.8,114,0c0,21.3,0,42.7,0,64C512.4,108.2,474.4,82.6,436.4,95.4
			z"/>
		<g>
			<path class="st2" d="M475.6,88.8c-11.9-1.4-23.7-1.7-35.6,1.6c0-18.7,0-37.4,0-56.1c11.9-3.2,23.7-3,35.6-1.6
				C475.6,51.4,475.6,70.1,475.6,88.8z"/>
			<path class="st0" d="M511.2,94.2c-11.9-1.4-23.7-4-35.6-5.4c0-18.7,0-37.4,0-56.1c11.9,1.4,23.7,4,35.6,5.4
				C511.2,56.8,511.2,75.5,511.2,94.2z"/>
			<path class="st3" d="M546.7,92.6c-11.9,3.2-23.7,3-35.6,1.6c0-18.7,0-37.4,0-56.1c11.9,1.4,23.7,1.7,35.6-1.6
				C546.7,55.2,546.7,73.9,546.7,92.6z"/>
		</g>
		<path d="M546.4,36.6c0,18.7,0,37.3,0,56c-11.3,3-22.6,2.9-33.9,1.6c-11.9-1.3-23.7-3.9-35.6-5.4c-12.2-1.5-24.4-1.9-36.5,1.3
			c0-18.7,0-37.3,0-56c12.2-3.3,24.4-2.9,36.5-1.3c11.9,1.5,23.7,4.1,35.6,5.4C523.8,39.6,535.1,39.7,546.4,36.6 M548.4,34.1
			c-0.7,0.2-1.4,0.4-2.1,0.6c-11.3,3-22.6,2.9-33.8,1.6c-11.9-1.3-23.7-3.9-35.6-5.4c-12.2-1.5-24.4-1.9-36.6,1.3
			c-0.6,0.2-1.3,0.4-1.9,0.6c0,0.3,0,0.6,0,0.9c0,18.7,0,37.3,0,56c0,1,0,2.1,0,3.1c0.6-0.2,1.3-0.4,1.9-0.6
			c12.2-3.3,24.4-2.9,36.6-1.4c11.9,1.5,23.7,4.1,35.6,5.4c11.3,1.3,22.6,1.4,33.8-1.6c0.7-0.2,1.4-0.4,2.1-0.6c0-1,0-2.1,0-3.1
			c0-18.7,0-37.3,0-56C548.4,34.7,548.4,34.4,548.4,34.1L548.4,34.1z"/>
	</g>
</g>
<path class="st0" d="M570.4,193.4V27.1c-2-2.2-3.7-5.4-3.7-8.7c0-6.2,5.5-11.4,11.9-11.4c6.2,0,11.3,5.1,11.3,11.4
	c0,4-2.5,7.1-4.5,8.7v166.3H570.4z"/>
<linearGradient id="SVGID_5_" gradientUnits="userSpaceOnUse" x1="578.2642" y1="10.0437" x2="578.2642" y2="190.4323">
	<stop  offset="0" style="stop-color:#CCCCCC"/>
	<stop  offset="1" style="stop-color:#808080"/>
</linearGradient>
<path class="st7" d="M586.9,18.5c0-4.7-3.6-8.4-8.3-8.4c-4.7,0-8.9,3.8-8.9,8.4c0,3.1,1.7,5.8,3.7,7.3v164.7h5.3h3.7V25.7
	C584.4,24.3,586.9,21.6,586.9,18.5z"/>
<g>
	<rect x="576.4" y="31.4" class="st0" width="114" height="64"/>
	<g>
		<rect x="580.1" y="35.4" class="st2" width="35.6" height="56.1"/>
		<rect x="615.6" y="35.4" class="st0" width="35.6" height="56.1"/>
		<rect x="651.2" y="35.4" class="st3" width="35.6" height="56.1"/>
	</g>
	<path d="M686.4,35.4v56h-33.9h-35.6h-36.5v-56h36.5h35.6H686.4 M688.4,33.4h-2.1h-33.8h-35.6h-36.6h-1.9v0.9v56v3.1h1.9h36.6h35.6
		h33.8h2.1v-3.1v-56V33.4L688.4,33.4z"/>
</g>
<path class="st0" d="M710.4,193.4V27.1c-2-2.2-3.7-5.4-3.7-8.7c0-6.2,5.5-11.4,11.9-11.4c6.2,0,11.3,5.1,11.3,11.4
	c0,4-2.5,7.1-4.5,8.7v166.3H710.4z"/>
<linearGradient id="SVGID_6_" gradientUnits="userSpaceOnUse" x1="718.2642" y1="10.0437" x2="718.2642" y2="190.4323">
	<stop  offset="0" style="stop-color:#CCCCCC"/>
	<stop  offset="1" style="stop-color:#808080"/>
</linearGradient>
<path class="st8" d="M726.9,18.5c0-4.7-3.6-8.4-8.3-8.4c-4.7,0-8.9,3.8-8.9,8.4c0,3.1,1.7,5.8,3.7,7.3v164.7h5.3h3.7V25.7
	C724.4,24.3,726.9,21.6,726.9,18.5z"/>
<g>
	<g>
		<path class="st0" d="M716.4,95.4c0-21.3,0-42.7,0-64c38,12.8,76-12.8,114,0c0,21.3,0,42.7,0,64C792.4,82.6,754.4,108.2,716.4,95.4
			z"/>
		<g>
			<path class="st2" d="M755.6,94.2c-11.9,1.4-23.7,1.7-35.6-1.6c0-18.7,0-37.4,0-56.1c11.9,3.2,23.7,3,35.6,1.6
				C755.6,56.8,755.6,75.5,755.6,94.2z"/>
			<path class="st0" d="M791.2,88.8c-11.9,1.4-23.7,4-35.6,5.4c0-18.7,0-37.4,0-56.1c11.9-1.4,23.7-4,35.6-5.4
				C791.2,51.4,791.2,70.1,791.2,88.8z"/>
			<path class="st3" d="M826.7,90.4c-11.9-3.2-23.7-3-35.6-1.6c0-18.7,0-37.4,0-56.1c11.9-1.4,23.7-1.7,35.6,1.6
				C826.7,53,826.7,71.7,826.7,90.4z"/>
		</g>
		<path d="M826.4,34.2c0,18.7,0,37.3,0,56c-11.3-3-22.6-2.9-33.9-1.6c-11.9,1.3-23.7,3.9-35.6,5.4c-12.2,1.5-24.4,1.9-36.5-1.3
			c0-18.7,0-37.3,0-56c12.2,3.3,24.4,2.9,36.5,1.3c11.9-1.5,23.7-4.1,35.6-5.4C803.8,31.3,815.1,31.2,826.4,34.2 M828.4,32.8
			c-0.7-0.2-1.4-0.4-2.1-0.6c-11.3-3-22.6-2.9-33.8-1.6c-11.9,1.3-23.7,3.9-35.6,5.4c-12.2,1.5-24.4,1.9-36.6-1.3
			c-0.6-0.2-1.3-0.4-1.9-0.6c0,0.3,0,0.6,0,0.9c0,18.7,0,37.3,0,56c0,1,0,2.1,0,3.1c0.6,0.2,1.3,0.4,1.9,0.6
			c12.2,3.3,24.4,2.9,36.6,1.4c11.9-1.5,23.7-4.1,35.6-5.4c11.3-1.3,22.6-1.4,33.8,1.6c0.7,0.2,1.4,0.4,2.1,0.6c0-1,0-2.1,0-3.1
			c0-18.7,0-37.3,0-56C828.4,33.4,828.4,33.1,828.4,32.8L828.4,32.8z"/>
	</g>
</g>
<path class="st0" d="M850.4,193.4V27.1c-2-2.2-3.7-5.4-3.7-8.7c0-6.2,5.5-11.4,11.9-11.4c6.2,0,11.3,5.1,11.3,11.4
	c0,4-2.5,7.1-4.5,8.7v166.3H850.4z"/>
<linearGradient id="SVGID_7_" gradientUnits="userSpaceOnUse" x1="858.2642" y1="10.0437" x2="858.2642" y2="190.4323">
	<stop  offset="0" style="stop-color:#CCCCCC"/>
	<stop  offset="1" style="stop-color:#808080"/>
</linearGradient>
<path class="st9" d="M866.9,18.5c0-4.7-3.6-8.4-8.3-8.4c-4.7,0-8.9,3.8-8.9,8.4c0,3.1,1.7,5.8,3.7,7.3v164.7h5.3h3.7V25.7
	C864.4,24.3,866.9,21.6,866.9,18.5z"/>
<g>
	<g>
		<path class="st0" d="M856.4,95.4c0-21.3,0-42.7,0-64c38,25.6,76-25.6,114,0c0,21.3,0,42.7,0,64C932.4,69.8,894.4,121,856.4,95.4z"
			/>
		<g>
			<path class="st2" d="M895.6,96.9c-11.9,2.8-23.7,3.3-35.6-3.2c0-18.7,0-37.4,0-56.1c11.9,6.5,23.7,6,35.6,3.2
				C895.6,59.5,895.6,78.2,895.6,96.9z"/>
			<path class="st0" d="M931.2,86.1c-11.9,2.8-23.7,8-35.6,10.8c0-18.7,0-37.4,0-56.1c11.9-2.8,23.7-8,35.6-10.8
				C931.2,48.7,931.2,67.4,931.2,86.1z"/>
			<path class="st3" d="M966.7,89.3c-11.9-6.5-23.7-6-35.6-3.2c0-18.7,0-37.4,0-56.1c11.9-2.8,23.7-3.3,35.6,3.2
				C966.7,51.8,966.7,70.5,966.7,89.3z"/>
		</g>
		<path d="M966.4,33c0,18.7,0,37.3,0,56c-11.3-6.1-22.6-5.8-33.9-3.3c-11.9,2.6-23.7,7.8-35.6,10.8c-12.2,3.1-24.4,3.9-36.5-2.7
			c0-18.7,0-37.3,0-56c12.2,6.5,24.4,5.7,36.5,2.7c11.9-3,23.7-8.1,35.6-10.8C943.8,27.2,955.1,26.9,966.4,33 M968.4,32.2
			c-0.7-0.4-1.4-0.8-2.1-1.2c-11.3-6-22.6-5.8-33.8-3.3c-11.9,2.6-23.7,7.8-35.6,10.8c-12.2,3.1-24.4,3.9-36.6-2.7
			c-0.6-0.3-1.3-0.7-1.9-1.1c0,0.3,0,0.6,0,0.9c0,18.7,0,37.3,0,56c0,1,0,2.1,0,3.1c0.6,0.4,1.3,0.8,1.9,1.1
			c12.2,6.6,24.4,5.8,36.6,2.7c11.9-3,23.7-8.1,35.6-10.8c11.3-2.5,22.6-2.8,33.8,3.3c0.7,0.4,1.4,0.8,2.1,1.2c0-1,0-2.1,0-3.1
			c0-18.7,0-37.3,0-56C968.4,32.8,968.4,32.5,968.4,32.2C968.4,32.2,968.4,32.2,968.4,32.2z"/>
	</g>
</g>
<path class="st0" d="M990.4,193.4V27.1c-2-2.2-3.7-5.4-3.7-8.7c0-6.2,5.5-11.4,11.9-11.4c6.2,0,11.3,5.1,11.3,11.4
	c0,4-2.5,7.1-4.5,8.7v166.3H990.4z"/>
<linearGradient id="SVGID_8_" gradientUnits="userSpaceOnUse" x1="998.2642" y1="10.0437" x2="998.2642" y2="190.4323">
	<stop  offset="0" style="stop-color:#CCCCCC"/>
	<stop  offset="1" style="stop-color:#808080"/>
</linearGradient>
<path class="st10" d="M1006.9,18.5c0-4.7-3.6-8.4-8.3-8.4c-4.7,0-8.9,3.8-8.9,8.4c0,3.1,1.7,5.8,3.7,7.3v164.7h5.3h3.7V25.7
	C1004.4,24.3,1006.9,21.6,1006.9,18.5z"/>
<g>
	<g>
		<path class="st0" d="M996.4,95.4c0-21.3,0-42.7,0-64c38,12.8,76-12.8,114,0c0,21.3,0,42.7,0,64
			C1072.4,82.6,1034.4,108.2,996.4,95.4z"/>
		<g>
			<path class="st2" d="M1035.6,94.2c-11.9,1.4-23.7,1.7-35.6-1.6c0-18.7,0-37.4,0-56.1c11.9,3.2,23.7,3,35.6,1.6
				C1035.6,56.8,1035.6,75.5,1035.6,94.2z"/>
			<path class="st0" d="M1071.2,88.8c-11.9,1.4-23.7,4-35.6,5.4c0-18.7,0-37.4,0-56.1c11.9-1.4,23.7-4,35.6-5.4
				C1071.2,51.4,1071.2,70.1,1071.2,88.8z"/>
			<path class="st3" d="M1106.7,90.4c-11.9-3.2-23.7-3-35.6-1.6c0-18.7,0-37.4,0-56.1c11.9-1.4,23.7-1.7,35.6,1.6
				C1106.7,53,1106.7,71.7,1106.7,90.4z"/>
		</g>
		<path d="M1106.4,34.2c0,18.7,0,37.3,0,56c-11.3-3-22.6-2.9-33.9-1.6c-11.9,1.3-23.7,3.9-35.6,5.4c-12.2,1.5-24.4,1.9-36.5-1.3
			c0-18.7,0-37.3,0-56c12.2,3.3,24.4,2.9,36.5,1.3c11.9-1.5,23.7-4.1,35.6-5.4C1083.8,31.3,1095.1,31.2,1106.4,34.2 M1108.4,32.8
			c-0.7-0.2-1.4-0.4-2.1-0.6c-11.3-3-22.6-2.9-33.8-1.6c-11.9,1.3-23.7,3.9-35.6,5.4c-12.2,1.5-24.4,1.9-36.6-1.3
			c-0.6-0.2-1.3-0.4-1.9-0.6c0,0.3,0,0.6,0,0.9c0,18.7,0,37.3,0,56c0,1,0,2.1,0,3.1c0.6,0.2,1.3,0.4,1.9,0.6
			c12.2,3.3,24.4,2.9,36.6,1.4c11.9-1.5,23.7-4.1,35.6-5.4c11.3-1.3,22.6-1.4,33.8,1.6c0.7,0.2,1.4,0.4,2.1,0.6c0-1,0-2.1,0-3.1
			c0-18.7,0-37.3,0-56C1108.4,33.4,1108.4,33.1,1108.4,32.8C1108.4,32.8,1108.4,32.8,1108.4,32.8z"/>
	</g>
</g>
</svg>
