<svg xmlns="http://www.w3.org/2000/svg" xmlns:xlink="http://www.w3.org/1999/xlink" viewBox="0 0 22.71 28.87"><defs><style>.cls-1{fill:url(#linear-gradient);}</style><linearGradient id="linear-gradient" x1="11.36" x2="11.36" y2="28.87" gradientUnits="userSpaceOnUse"><stop offset="0" stop-color="#54795e"/><stop offset="1" stop-color="#1b4c29"/></linearGradient></defs><title>grass</title><g id="Layer_2" data-name="Layer 2"><g id="Hills"><path class="cls-1" d="M15.19,25.3A56.1,56.1,0,0,1,22.71,3.7c-5.77,6-8.49,13.87-9.72,19C12.79,16.54,11.55,6.39,6.08,0a79.16,79.16,0,0,1,4.31,23.31C9.24,18.26,6.63,10.35.94,5.14c0,0,3.68,4.26,7.17,20.24A19.27,19.27,0,0,0,0,17.8s5.67,5.25,7,10.25l1.31.81,1.22-.81,1,.81,1.5-.81.93.81.84-.81,1.22.81,1.14-.81c1.26-5,6.56-10.25,6.56-10.25A18.53,18.53,0,0,0,15.19,25.3Z"/></g></g></svg>