<svg xmlns="http://www.w3.org/2000/svg" xmlns:xlink="http://www.w3.org/1999/xlink" viewBox="0 0 255.35 351.81"><defs><style>.cls-1{fill:#fff;}.cls-2{fill:url(#linear-gradient);}.cls-3{fill:#232323;}.cls-4{fill:url(#linear-gradient-2);}.cls-5{fill:url(#linear-gradient-3);}.cls-6{fill:url(#linear-gradient-4);}.cls-7{fill:url(#linear-gradient-5);}</style><linearGradient id="linear-gradient" x1="124.5" y1="1013.16" x2="124.5" y2="-44.36" gradientUnits="userSpaceOnUse"><stop offset="0" stop-color="#dfe7ff"/><stop offset="0.53" stop-color="#d0dbff"/><stop offset="1" stop-color="#c7d4ff"/></linearGradient><linearGradient id="linear-gradient-2" x1="57.8" y1="79.98" x2="57.8" y2="230.65" gradientUnits="userSpaceOnUse"><stop offset="0" stop-color="#cfdaff"/><stop offset="0" stop-color="#cfdaff"/><stop offset="0.62" stop-color="#b8c8ff"/><stop offset="1" stop-color="#afc2ff"/></linearGradient><linearGradient id="linear-gradient-3" x1="175" y1="234.87" x2="175" y2="348.8" xlink:href="#linear-gradient-2"/><linearGradient id="linear-gradient-4" x1="72.07" y1="241.37" x2="72.07" y2="320.71" xlink:href="#linear-gradient-2"/><linearGradient id="linear-gradient-5" x1="160.05" y1="15.07" x2="160.05" y2="131.74" xlink:href="#linear-gradient-2"/></defs><title>moon</title><g id="Layer_2" data-name="Layer 2"><g id="Hills"><path class="cls-1" d="M175.91,351.81a175.42,175.42,0,0,1-93.47-26.87,178,178,0,0,1-53.07-51.71A176,176,0,0,1,244.49,13.88l10.86,4.6-10.86,4.6a166,166,0,0,0,0,305.65l10.86,4.6-10.86,4.6A174.82,174.82,0,0,1,175.91,351.81Z"/><path class="cls-2" d="M175.91,347.75A171.36,171.36,0,0,1,84.6,321.5,173.88,173.88,0,0,1,32.75,271,171.9,171.9,0,0,1,242.9,17.62l2,.86-2,.86a170.09,170.09,0,0,0,0,313.14l2,.86-2,.86A170.77,170.77,0,0,1,175.91,347.75Z"/><path class="cls-3" d="M175.91,5a170.36,170.36,0,0,1,66.63,13.48,171,171,0,0,0,0,314.86A170.93,170.93,0,1,1,175.91,5m0-1.87A172.71,172.71,0,0,0,32,271.5a174.82,174.82,0,0,0,52.13,50.79,173,173,0,0,0,159.16,12.77l4.06-1.72-4.06-1.72a169.16,169.16,0,0,1,0-311.42l4.06-1.72-4.06-1.72A171.68,171.68,0,0,0,175.91,3.13Z"/><path class="cls-4" d="M110.61,155.32A75.33,75.33,0,0,0,35.28,80l-.85,0A171.24,171.24,0,0,0,12.86,227.26a75.39,75.39,0,0,0,97.75-71.94Z"/><path class="cls-5" d="M148.71,234.87a57,57,0,0,0,72.68,87.7A171.46,171.46,0,0,1,148.71,234.87Z"/><path class="cls-6" d="M110.61,283.65a39.67,39.67,0,0,0-77.08-13.19A171.8,171.8,0,0,0,85.1,320.71,39.67,39.67,0,0,0,110.61,283.65Z"/><path class="cls-7" d="M110.61,79A58.33,58.33,0,0,0,144,131.74a171.12,171.12,0,0,1,65.46-94.67A58.32,58.32,0,0,0,110.61,79Z"/></g></g></svg>