<svg xmlns="http://www.w3.org/2000/svg" xmlns:xlink="http://www.w3.org/1999/xlink" viewBox="0 0 165.14 162.63"><defs><style>.cls-1{fill:#fff;}.cls-2{stroke:#232323;stroke-miterlimit:10;stroke-width:2px;fill:url(#linear-gradient);}.cls-3{fill:url(#linear-gradient-2);}</style><linearGradient id="linear-gradient" x1="4.73" y1="81.46" x2="160.4" y2="81.46" gradientUnits="userSpaceOnUse"><stop offset="0" stop-color="#eac687"/><stop offset="1" stop-color="#d68e0f"/></linearGradient><linearGradient id="linear-gradient-2" x1="133.1" y1="83.84" x2="32.04" y2="83.84" gradientUnits="userSpaceOnUse"><stop offset="0" stop-color="#fbf089"/><stop offset="1" stop-color="#f7e114"/></linearGradient></defs><title>sun</title><g id="Layer_2" data-name="Layer 2"><g id="Hills"><polygon class="cls-1" points="82.57 145.14 53.89 162.63 43.16 130.8 9.96 125.76 22.2 94.49 0 69.28 29.48 53.19 28.68 19.61 61.6 26.24 82.57 0 103.53 26.24 136.46 19.61 135.66 53.19 165.14 69.28 142.94 94.49 155.18 125.76 121.97 130.8 111.24 162.63 82.57 145.14"/><polygon class="cls-2" points="82.57 4.81 102.33 29.54 133.37 23.3 132.61 54.95 160.4 70.12 139.48 93.88 151.01 123.36 119.71 128.11 109.6 158.11 82.57 141.63 55.54 158.11 45.42 128.11 14.12 123.36 25.66 93.88 4.73 70.12 32.52 54.95 31.77 23.3 62.8 29.54 82.57 4.81"/><circle class="cls-3" cx="82.57" cy="83.84" r="50.53"/></g></g></svg>