<svg xmlns="http://www.w3.org/2000/svg" viewBox="0 0 175.33 95.95"><defs><style>.cls-1,.cls-2{fill:#fff;}.cls-2{stroke:#232323;stroke-miterlimit:10;stroke-width:2px;}.cls-3{fill:#dfe7ff;}</style></defs><title>cloud2</title><g id="Layer_2" data-name="Layer 2"><g id="Hills"><path class="cls-1" d="M126.28,95.95a36.48,36.48,0,0,1-29.8-15.55A30.38,30.38,0,0,1,58,72.11,37.57,37.57,0,0,1,37.9,77.88a37.9,37.9,0,1,1,0-75.81A37.5,37.5,0,0,1,58.61,8.23,25.83,25.83,0,0,1,77.46,0a25.55,25.55,0,0,1,20,9.56,21.23,21.23,0,0,1,31.32,13.8A35.93,35.93,0,0,1,146,29.09a17.87,17.87,0,1,1,16.6,30.85A36.38,36.38,0,0,1,126.28,95.95Z"/><path class="cls-2" d="M172.33,42.83a14.87,14.87,0,0,0-26-9.87,33.19,33.19,0,0,0-20-6.7h-.08A18.21,18.21,0,0,0,96.73,13.68a22.71,22.71,0,0,0-37.58-1.4,34.9,34.9,0,1,0-.36,55.66,27.37,27.37,0,0,0,38.64,8.37,33.34,33.34,0,0,0,62.19-16.71c0-.69,0-1.37-.07-2.05A14.88,14.88,0,0,0,172.33,42.83Z"/><path class="cls-3" d="M158.79,48.3l-5,.7.23,3.84,4.73-.67a9.43,9.43,0,0,0,7.91-11.31A9.49,9.49,0,0,1,158.79,48.3Z"/><path class="cls-3" d="M154.12,57.65a27.9,27.9,0,0,1-52,12.07l-2.92-5-4.82,3.26a21.95,21.95,0,0,1-31-6.72L60.3,56.16l-4.76,3.56A29.47,29.47,0,0,1,8.5,38c0,.64-.07,1.29-.07,1.94A29.48,29.48,0,0,0,55.54,63.6L60.3,60l3.11,5.06a21.95,21.95,0,0,0,31,6.72l4.82-3.26,2.92,5a27.91,27.91,0,0,0,52.07-14c0-.51,0-1.06-.06-1.73Z"/></g></g></svg>