<svg xmlns="http://www.w3.org/2000/svg" viewBox="0 0 144.46 84.45"><defs><style>.cls-1,.cls-2{fill:#fff;}.cls-2{stroke:#232323;stroke-miterlimit:10;stroke-width:2px;}.cls-3{fill:#dfe7ff;}</style></defs><title>cloud1</title><g id="Layer_2" data-name="Layer 2"><g id="Hills"><path class="cls-1" d="M80.83,84.45A30.33,30.33,0,0,1,54.45,68.89h-.82a34,34,0,0,1-6.24-.59,27.82,27.82,0,1,1-25.6-46.94,34.42,34.42,0,0,1,51.77-15,28.4,28.4,0,0,1,42.26,7.46l1.07,0a27.56,27.56,0,1,1,0,55.12,27.16,27.16,0,0,1-8.92-1.5A30.28,30.28,0,0,1,80.83,84.45Z"/><path class="cls-2" d="M116.9,16.78a24.75,24.75,0,0,0-2.76.17A25.4,25.4,0,0,0,73.7,10.24,31.42,31.42,0,0,0,24,24,24.83,24.83,0,1,0,46.37,65a31.44,31.44,0,0,0,7.26.88c.87,0,1.73-.06,2.59-.13a27.16,27.16,0,0,0,50.15-2.26A24.55,24.55,0,1,0,116.9,16.78Z"/><path class="cls-3" d="M116.9,55.91a17.38,17.38,0,0,1-7.52-1.71l-7-3.31L99.8,58.13A20.16,20.16,0,0,1,62.56,59.8L60.5,55.4l-4.84.39c-.82.07-1.44.11-2,.11A24.6,24.6,0,0,1,48,55.22l-4.06-1-2.78,3.12A17.81,17.81,0,0,1,10.07,46.93C10,47.46,10,48,10,48.52A17.82,17.82,0,0,0,41.15,60.37l2.78-3.12,4.06,1a24.6,24.6,0,0,0,5.65.69c.58,0,1.21,0,2-.11l4.84-.39,2.06,4.4A20.16,20.16,0,0,0,99.8,61.13l2.63-7.24,7,3.31a17.38,17.38,0,0,0,7.52,1.71,17.58,17.58,0,0,0,17.56-17.56c0-.51,0-1-.08-1.5A17.58,17.58,0,0,1,116.9,55.91Z"/></g></g></svg>