<svg xmlns="http://www.w3.org/2000/svg" xmlns:xlink="http://www.w3.org/1999/xlink" viewBox="0 0 102.53 162.54"><defs><style>.cls-1{fill:#fff;}.cls-2{stroke:#232323;stroke-miterlimit:10;stroke-width:1.87px;fill:url(#linear-gradient);}</style><linearGradient id="linear-gradient" x1="51.27" y1="152.54" x2="51.27" y2="21.06" gradientUnits="userSpaceOnUse"><stop offset="0" stop-color="#dfe7ff"/><stop offset="0.53" stop-color="#d0dbff"/><stop offset="1" stop-color="#c7d4ff"/></linearGradient></defs><title>raindrop</title><g id="Layer_2" data-name="Layer 2"><g id="Hills"><path class="cls-1" d="M51.27,162.54C23,162.54,0,138.48,0,108.9A55.23,55.23,0,0,1,8.24,79.73L51.27,0l43,79.74a55.24,55.24,0,0,1,8.24,29.16C102.53,138.48,79.53,162.54,51.27,162.54Z"/><path class="cls-2" d="M85.62,84.72h0L51.27,21.06,16.91,84.72h0A45.22,45.22,0,0,0,10,108.9c0,24.1,18.48,43.64,41.27,43.64S92.53,133,92.53,108.9A45.22,45.22,0,0,0,85.62,84.72Z"/></g></g></svg>