<svg xmlns="http://www.w3.org/2000/svg" xmlns:xlink="http://www.w3.org/1999/xlink" viewBox="0 0 1763 885.02"><defs><style>.cls-1{fill:#fff;}.cls-2{fill:url(#linear-gradient);}.cls-3{fill:url(#linear-gradient-2);}.cls-4{fill:url(#linear-gradient-3);}.cls-5{fill:url(#linear-gradient-4);}.cls-6{fill:url(#linear-gradient-5);}.cls-7{fill:url(#linear-gradient-6);}.cls-8{fill:url(#linear-gradient-7);}.cls-9{fill:none;stroke:#232323;stroke-miterlimit:10;stroke-width:2px;}</style><linearGradient id="linear-gradient" x1="4.16" y1="440.91" x2="1759.29" y2="440.91" gradientUnits="userSpaceOnUse"><stop offset="0.75" stop-color="#f99"/><stop offset="1" stop-color="#ff4c4c"/></linearGradient><linearGradient id="linear-gradient-2" x1="25.27" y1="451.46" x2="1738.18" y2="451.46" gradientUnits="userSpaceOnUse"><stop offset="0.75" stop-color="#fc9"/><stop offset="1" stop-color="#ffa54c"/></linearGradient><linearGradient id="linear-gradient-3" x1="46.38" y1="462.02" x2="1717.07" y2="462.02" gradientUnits="userSpaceOnUse"><stop offset="0.75" stop-color="#ffc"/><stop offset="1" stop-color="#ffff4c"/></linearGradient><linearGradient id="linear-gradient-4" x1="69" y1="473.33" x2="1694.45" y2="473.33" gradientUnits="userSpaceOnUse"><stop offset="0.75" stop-color="#9f9"/><stop offset="1" stop-color="#4cff4c"/></linearGradient><linearGradient id="linear-gradient-5" x1="91.62" y1="484.63" x2="1671.83" y2="484.63" gradientUnits="userSpaceOnUse"><stop offset="0.75" stop-color="#99f"/><stop offset="1" stop-color="#4c4cff"/></linearGradient><linearGradient id="linear-gradient-6" x1="112.73" y1="495.19" x2="1650.72" y2="495.19" gradientUnits="userSpaceOnUse"><stop offset="0.75" stop-color="#b799cd"/><stop offset="1" stop-color="#814ca7"/></linearGradient><linearGradient id="linear-gradient-7" x1="135.34" y1="506.5" x2="1628.11" y2="506.5" gradientUnits="userSpaceOnUse"><stop offset="0.75" stop-color="#d299ff"/><stop offset="1" stop-color="#b14cff"/></linearGradient></defs><title>rainbow-2</title><g id="Layer_2" data-name="Layer 2"><g id="Hills"><path class="cls-1" d="M1602,885v-3.63c0-222.48-78-409.21-225.16-540-65.94-58.6-143.63-104-230.74-135-84-29.87-173.08-45-264.59-45s-180.54,15.15-264.57,45c-87.1,31-164.88,76.37-230.81,135C239,472.18,161,658.91,161,881.39V885H0v-3.63c0-272.23,95.39-500.81,275.59-661C356.31,148.59,451.36,93,558,55.07,660.7,18.53,769.56,0,881.43,0s220.71,18.53,323.46,55.07c106.59,37.91,201.75,93.52,282.47,165.29,180.2,160.22,275.64,388.8,275.64,661V885Z"/><path class="cls-2" d="M1736.67,879.69c0-1139.93-1709.9-1139.93-1709.9,0H4.16c0-1170.09,1755.13-1170.09,1755.13,0Z"/><path class="cls-3" d="M1715.56,879.69c0-1111.78-1667.67-1111.78-1667.67,0H25.27c0-1141.94,1712.91-1141.94,1712.91,0Z"/><path class="cls-4" d="M1694.45,879.69C1694.45-203.95,69-203.95,69,879.69H46.38c0-1113.79,1670.69-1113.79,1670.69,0Z"/><path class="cls-5" d="M1671.83,879.69c0-1053.48-1580.22-1053.48-1580.22,0H69c0-1083.64,1625.45-1083.64,1625.45,0Z"/><path class="cls-6" d="M1649.22,879.69c0-1023.32-1535-1023.32-1535,0H91.62c0-1053.48,1580.22-1053.48,1580.22,0Z"/><path class="cls-7" d="M1628.11,879.69c0-995.17-1492.76-995.17-1492.76,0H112.73c0-1025.33,1538-1025.33,1538,0Z"/><path class="cls-8" d="M1605.49,879.69c0-965-1447.53-965-1447.53,0H135.34c0-995.17,1492.76-995.17,1492.76,0Z"/><path class="cls-9" d="M3.9,881H157.7c0-964,1447.53-964,1447.53,0H1759C1759-289,3.9-289,3.9,881Z"/></g></g></svg>