<svg xmlns="http://www.w3.org/2000/svg" xmlns:xlink="http://www.w3.org/1999/xlink" viewBox="0 0 1800 335"><defs><style>.cls-1{fill:url(#linear-gradient);}.cls-2{fill:url(#linear-gradient-2);}.cls-3{fill:url(#linear-gradient-3);}.cls-4{fill:url(#linear-gradient-4);}.cls-5{fill:url(#linear-gradient-5);}.cls-6{fill:url(#linear-gradient-6);}.cls-7{fill:#232323;}.cls-8{fill:#f7e8cf;}.cls-12,.cls-8{stroke:#232323;stroke-miterlimit:10;}.cls-9{font-size:27.77px;font-family:Charter-Bold, Charter;font-weight:700;}.cls-13,.cls-9{fill:#e9e9e9;}.cls-10{font-size:22.56px;}.cls-11{fill:#fff;fill-opacity:0.25;}.cls-12{fill:none;}.cls-14{fill:url(#linear-gradient-7);}.cls-15{fill:url(#linear-gradient-8);}.cls-16{fill:url(#linear-gradient-9);}.cls-17{fill:url(#linear-gradient-10);}.cls-18{fill:url(#linear-gradient-11);}.cls-19{fill:url(#linear-gradient-12);}</style><linearGradient id="linear-gradient" x1="355.05" y1="167.5" x2="397.31" y2="167.5" gradientUnits="userSpaceOnUse"><stop offset="0" stop-color="#afc2ff"/><stop offset="1" stop-color="#6085ff"/></linearGradient><linearGradient id="linear-gradient-2" x1="247.05" y1="167.5" x2="289.31" y2="167.5" gradientTransform="matrix(-1, 0, 0, 1, 944.35, 0)" xlink:href="#linear-gradient"/><linearGradient id="linear-gradient-3" x1="955.05" y1="167.5" x2="997.31" y2="167.5" xlink:href="#linear-gradient"/><linearGradient id="linear-gradient-4" x1="847.05" y1="167.5" x2="889.31" y2="167.5" gradientTransform="matrix(-1, 0, 0, 1, 2144.35, 0)" xlink:href="#linear-gradient"/><linearGradient id="linear-gradient-5" x1="1555.05" y1="167.5" x2="1597.31" y2="167.5" xlink:href="#linear-gradient"/><linearGradient id="linear-gradient-6" x1="3247.05" y1="167.5" x2="3289.31" y2="167.5" gradientTransform="matrix(-1, 0, 0, 1, 3344.35, 0)" xlink:href="#linear-gradient"/><linearGradient id="linear-gradient-7" x1="377.42" y1="167.23" x2="337.48" y2="167.23" xlink:href="#linear-gradient"/><linearGradient id="linear-gradient-8" x1="269.42" y1="167.23" x2="229.48" y2="167.23" gradientTransform="matrix(-1, 0, 0, 1, 906.9, 0)" xlink:href="#linear-gradient"/><linearGradient id="linear-gradient-9" x1="977.42" y1="167.23" x2="937.48" y2="167.23" xlink:href="#linear-gradient"/><linearGradient id="linear-gradient-10" x1="869.42" y1="167.23" x2="829.48" y2="167.23" gradientTransform="matrix(-1, 0, 0, 1, 2106.9, 0)" xlink:href="#linear-gradient"/><linearGradient id="linear-gradient-11" x1="1577.42" y1="167.23" x2="1537.48" y2="167.23" xlink:href="#linear-gradient"/><linearGradient id="linear-gradient-12" x1="3269.42" y1="167.23" x2="3229.48" y2="167.23" gradientTransform="matrix(-1, 0, 0, 1, 3306.9, 0)" xlink:href="#linear-gradient"/></defs><title>beer-sprite</title><g id="splash-back"><path class="cls-1" d="M397.07,279.22c-.79-4.82-3.42-8.88-5.2-13.35-2.47-6.21.88-11,1.09-17.28.19-5.9-3.17-10.19-4-15.74-.76-4.9,2.47-10.18,3.28-14.94.91-5.33,0-10.42-3.31-14.76-1.35-1.74-3.06-2.86-3-5.08,0-2.83,3.26-6.58,4.41-9,2.09-4.47,3.48-9.66,2.07-14.56a15.18,15.18,0,0,0-4.33-6.8c-1.86-1.73-3.61-2.13-3.89-4.8-.53-5,3.67-10.75,4.5-15.7,1.12-6.71-1-11.14-4.37-16.67-1.24-2-1.27-1.17-.46-2.68,1-1.91,3-3.52,4.29-5.32a15.55,15.55,0,0,0,2-15.11c-1.34-3.4-3.69-6.05-6.11-8.75-.91-1-3.52-4.28-3.51-4.33.18-.71,2.35-2,2.94-2.59a13.75,13.75,0,0,0,2.74-4.11,14.59,14.59,0,0,0,.8-8.61c-.9-4.89-5.59-10.14-3.34-15.07,2.7-5.9,7.32-10.3,7.31-17.3a14.43,14.43,0,0,0-4.14-10.21c.07-.18.14-.36.21-.54a13.44,13.44,0,0,0-4.29-14.66c-.07-.12-.14-.25-.22-.37a23.32,23.32,0,0,0-19-10.39,6.8,6.8,0,0,0-6.81,5.17,6.83,6.83,0,0,0-1,1.75,7.34,7.34,0,0,0,1.17,7.54,9.66,9.66,0,0,0,.79,2.7l4.89,10.75,0,.08a17,17,0,0,0-1.56,6.22,18.78,18.78,0,0,0,.79,6.4q-2,5.95-3.65,12c-1.34,4.86,2.38,8.81,7,9.2.48,0,.95.06,1.41.06-1.57,3.34-5,7.63-5.67,8.86-2.75,5.1-4.56,11-2.65,16.67,1,3,2.81,4.16,5,6.15.63.58,1,0,.82,2-.65,5.74-3.59,10.84-2.95,16.82.35,3.28,1.83,5.19,3,8.11-.93-2.38,1,1.7,1,1.58.07,1.26-1.42,3.18-1.92,4.28-2.5,5.52-2.74,10.93-1.66,16.84.84,4.63,3.06,9.6,2.31,14.39-.86,5.41-4.11,9.72-3.47,15.47a13.39,13.39,0,0,0,3.38,7.68c1.49,1.64,2.64,2,3.15,4.22,1.43,6.31.08,14.62-1.11,20.88-1.08,5.75-3.34,11.29-4,17.11-.72,6.43,2,11.25,3.26,17.33,1.06,5.22-2.83,9.55-4,14.45-1.76,7.12,1.52,12,3.35,18.63,1.43,5.17.17,10.68-.66,16.06l-2,6.37c-.94,3-2.32,6.06-2.23,9.22a8.79,8.79,0,0,0,5.31,8,8.42,8.42,0,0,0,2.86.66,8.82,8.82,0,0,0,5,.09,8.07,8.07,0,0,0,4.56-3.15c6.17-.61,11.88-6.17,13.52-12.9,1.14-4.69-.41-10.06,2.21-14.26C395.85,289,398.06,285.31,397.07,279.22Z"/><path class="cls-2" d="M655.29,279.22c.79-4.82,3.42-8.88,5.2-13.35,2.47-6.21-.88-11-1.09-17.28-.19-5.9,3.17-10.19,4-15.74.76-4.9-2.47-10.18-3.28-14.94-.91-5.33,0-10.42,3.31-14.76,1.35-1.74,3.06-2.86,3-5.08,0-2.83-3.26-6.58-4.41-9-2.09-4.47-3.48-9.66-2.07-14.56a15.18,15.18,0,0,1,4.33-6.8c1.86-1.73,3.61-2.13,3.89-4.8.53-5-3.67-10.75-4.5-15.7-1.12-6.71,1-11.14,4.37-16.67,1.24-2,1.27-1.17.46-2.68-1-1.91-3-3.52-4.29-5.32a15.55,15.55,0,0,1-2-15.11c1.34-3.4,3.69-6.05,6.11-8.75.91-1,3.52-4.28,3.51-4.33-.18-.71-2.35-2-2.94-2.59a13.75,13.75,0,0,1-2.74-4.11,14.59,14.59,0,0,1-.8-8.61c.9-4.89,5.59-10.14,3.34-15.07-2.7-5.9-7.32-10.3-7.31-17.3a14.43,14.43,0,0,1,4.14-10.21c-.07-.18-.14-.36-.21-.54a13.44,13.44,0,0,1,4.29-14.66c.07-.12.14-.25.22-.37a23.32,23.32,0,0,1,19-10.39,6.8,6.8,0,0,1,6.81,5.17,6.83,6.83,0,0,1,1,1.75,7.34,7.34,0,0,1-1.17,7.54,9.66,9.66,0,0,1-.79,2.7l-4.89,10.75,0,.08a17,17,0,0,1,1.56,6.22,18.78,18.78,0,0,1-.79,6.4q2,5.95,3.65,12c1.34,4.86-2.38,8.81-7,9.2-.48,0-.95.06-1.41.06,1.57,3.34,5,7.63,5.67,8.86,2.75,5.1,4.56,11,2.65,16.67-1,3-2.81,4.16-5,6.15-.63.58-1,0-.82,2,.65,5.74,3.59,10.84,2.95,16.82-.35,3.28-1.83,5.19-3,8.11.93-2.38-1,1.7-1,1.58-.07,1.26,1.42,3.18,1.92,4.28,2.5,5.52,2.74,10.93,1.66,16.84-.84,4.63-3.06,9.6-2.31,14.39.86,5.41,4.11,9.72,3.47,15.47a13.39,13.39,0,0,1-3.38,7.68c-1.49,1.64-2.64,2-3.15,4.22-1.43,6.31-.08,14.62,1.11,20.88,1.08,5.75,3.34,11.29,4,17.11.72,6.43-2,11.25-3.26,17.33-1.06,5.22,2.83,9.55,4,14.45,1.76,7.12-1.52,12-3.35,18.63-1.43,5.17-.17,10.68.66,16.06l2,6.37c.94,3,2.32,6.06,2.23,9.22a8.79,8.79,0,0,1-5.31,8,8.42,8.42,0,0,1-2.86.66,8.82,8.82,0,0,1-5,.09,8.07,8.07,0,0,1-4.56-3.15c-6.17-.61-11.88-6.17-13.52-12.9-1.14-4.69.41-10.06-2.21-14.26C656.51,289,654.3,285.31,655.29,279.22Z"/><path class="cls-3" d="M997.07,279.22c-.79-4.82-3.42-8.88-5.2-13.35-2.47-6.21.88-11,1.09-17.28.19-5.9-3.17-10.19-4-15.74-.76-4.9,2.47-10.18,3.28-14.94.91-5.33,0-10.42-3.31-14.76-1.35-1.74-3.06-2.86-3-5.08,0-2.83,3.26-6.58,4.41-9,2.09-4.47,3.48-9.66,2.07-14.56a15.18,15.18,0,0,0-4.33-6.8c-1.86-1.73-3.61-2.13-3.89-4.8-.53-5,3.67-10.75,4.5-15.7,1.12-6.71-1-11.14-4.37-16.67-1.24-2-1.27-1.17-.46-2.68,1-1.91,3-3.52,4.29-5.32a15.55,15.55,0,0,0,2-15.11c-1.34-3.4-3.69-6.05-6.11-8.75-.91-1-3.52-4.28-3.51-4.33.18-.71,2.35-2,2.94-2.59a13.75,13.75,0,0,0,2.74-4.11,14.59,14.59,0,0,0,.8-8.61c-.9-4.89-5.59-10.14-3.34-15.07,2.7-5.9,7.32-10.3,7.31-17.3a14.43,14.43,0,0,0-4.14-10.21c.07-.18.14-.36.21-.54a13.44,13.44,0,0,0-4.29-14.66c-.07-.12-.14-.25-.22-.37a23.32,23.32,0,0,0-19-10.39,6.8,6.8,0,0,0-6.81,5.17,6.83,6.83,0,0,0-1,1.75,7.34,7.34,0,0,0,1.17,7.54,9.66,9.66,0,0,0,.79,2.7l4.89,10.75,0,.08a17,17,0,0,0-1.56,6.22,18.78,18.78,0,0,0,.79,6.4q-2,5.95-3.65,12c-1.34,4.86,2.38,8.81,7,9.2.48,0,.95.06,1.41.06-1.57,3.34-5,7.63-5.67,8.86-2.75,5.1-4.56,11-2.65,16.67,1,3,2.81,4.16,5,6.15.63.58,1,0,.82,2-.65,5.74-3.59,10.84-2.95,16.82.35,3.28,1.83,5.19,3,8.11-.93-2.38,1,1.7,1,1.58.07,1.26-1.42,3.18-1.92,4.28-2.5,5.52-2.74,10.93-1.66,16.84.84,4.63,3.06,9.6,2.31,14.39-.86,5.41-4.11,9.72-3.47,15.47a13.39,13.39,0,0,0,3.38,7.68c1.49,1.64,2.64,2,3.15,4.22,1.43,6.31.08,14.62-1.11,20.88-1.08,5.75-3.34,11.29-4,17.11-.72,6.43,2,11.25,3.26,17.33,1.06,5.22-2.83,9.55-4,14.45-1.76,7.12,1.52,12,3.35,18.63,1.43,5.17.17,10.68-.66,16.06l-2,6.37c-.94,3-2.32,6.06-2.23,9.22a8.79,8.79,0,0,0,5.31,8,8.42,8.42,0,0,0,2.86.66,8.82,8.82,0,0,0,5,.09,8.07,8.07,0,0,0,4.56-3.15c6.17-.61,11.88-6.17,13.52-12.9,1.14-4.69-.41-10.06,2.21-14.26C995.85,289,998.06,285.31,997.07,279.22Z"/><path class="cls-4" d="M1255.29,279.22c.79-4.82,3.42-8.88,5.2-13.35,2.47-6.21-.88-11-1.09-17.28-.19-5.9,3.17-10.19,4-15.74.76-4.9-2.47-10.18-3.28-14.94-.91-5.33,0-10.42,3.31-14.76,1.35-1.74,3.06-2.86,3-5.08,0-2.83-3.26-6.58-4.41-9-2.09-4.47-3.48-9.66-2.07-14.56a15.18,15.18,0,0,1,4.33-6.8c1.86-1.73,3.61-2.13,3.89-4.8.53-5-3.67-10.75-4.5-15.7-1.12-6.71,1-11.14,4.37-16.67,1.24-2,1.27-1.17.46-2.68-1-1.91-3-3.52-4.29-5.32a15.55,15.55,0,0,1-2-15.11c1.34-3.4,3.69-6.05,6.11-8.75.91-1,3.52-4.28,3.51-4.33-.18-.71-2.35-2-2.94-2.59a13.75,13.75,0,0,1-2.74-4.11,14.59,14.59,0,0,1-.8-8.61c.9-4.89,5.59-10.14,3.34-15.07-2.7-5.9-7.32-10.3-7.31-17.3a14.43,14.43,0,0,1,4.14-10.21c-.07-.18-.14-.36-.21-.54a13.44,13.44,0,0,1,4.29-14.66c.07-.12.14-.25.22-.37a23.32,23.32,0,0,1,19-10.39,6.8,6.8,0,0,1,6.81,5.17,6.83,6.83,0,0,1,1,1.75,7.34,7.34,0,0,1-1.17,7.54,9.66,9.66,0,0,1-.79,2.7l-4.89,10.75,0,.08a17,17,0,0,1,1.56,6.22,18.78,18.78,0,0,1-.79,6.4q2,5.95,3.65,12c1.34,4.86-2.38,8.81-7,9.2-.48,0-.95.06-1.41.06,1.57,3.34,5,7.63,5.67,8.86,2.75,5.1,4.56,11,2.65,16.67-1,3-2.81,4.16-5,6.15-.63.58-1,0-.82,2,.65,5.74,3.59,10.84,2.95,16.82-.35,3.28-1.83,5.19-3,8.11.93-2.38-1,1.7-1,1.58-.07,1.26,1.42,3.18,1.92,4.28,2.5,5.52,2.74,10.93,1.66,16.84-.84,4.63-3.06,9.6-2.31,14.39.86,5.41,4.11,9.72,3.47,15.47a13.39,13.39,0,0,1-3.38,7.68c-1.49,1.64-2.64,2-3.15,4.22-1.43,6.31-.08,14.62,1.11,20.88,1.08,5.75,3.34,11.29,4,17.11.72,6.43-2,11.25-3.26,17.33-1.06,5.22,2.83,9.55,4,14.45,1.76,7.12-1.52,12-3.35,18.63-1.43,5.17-.17,10.68.66,16.06l2,6.37c.94,3,2.32,6.06,2.23,9.22a8.79,8.79,0,0,1-5.31,8,8.42,8.42,0,0,1-2.86.66,8.82,8.82,0,0,1-5,.09,8.07,8.07,0,0,1-4.56-3.15c-6.17-.61-11.88-6.17-13.52-12.9-1.14-4.69.41-10.06-2.21-14.26C1256.51,289,1254.3,285.31,1255.29,279.22Z"/><path class="cls-5" d="M1597.07,279.22c-.79-4.82-3.42-8.88-5.2-13.35-2.47-6.21.88-11,1.09-17.28.19-5.9-3.17-10.19-4-15.74-.76-4.9,2.47-10.18,3.28-14.94.91-5.33,0-10.42-3.31-14.76-1.35-1.74-3.06-2.86-3-5.08,0-2.83,3.26-6.58,4.41-9,2.09-4.47,3.48-9.66,2.07-14.56a15.18,15.18,0,0,0-4.33-6.8c-1.86-1.73-3.61-2.13-3.89-4.8-.53-5,3.67-10.75,4.5-15.7,1.12-6.71-1-11.14-4.37-16.67-1.24-2-1.27-1.17-.46-2.68,1-1.91,3-3.52,4.29-5.32a15.55,15.55,0,0,0,2-15.11c-1.34-3.4-3.69-6.05-6.11-8.75-.91-1-3.52-4.28-3.51-4.33.18-.71,2.35-2,2.94-2.59a13.75,13.75,0,0,0,2.74-4.11,14.59,14.59,0,0,0,.8-8.61c-.9-4.89-5.59-10.14-3.34-15.07,2.7-5.9,7.32-10.3,7.31-17.3a14.43,14.43,0,0,0-4.14-10.21c.07-.18.14-.36.21-.54a13.44,13.44,0,0,0-4.29-14.66c-.07-.12-.14-.25-.22-.37a23.32,23.32,0,0,0-19-10.39,6.8,6.8,0,0,0-6.81,5.17,6.83,6.83,0,0,0-1,1.75,7.34,7.34,0,0,0,1.17,7.54,9.66,9.66,0,0,0,.79,2.7l4.89,10.75,0,.08a17,17,0,0,0-1.56,6.22,18.78,18.78,0,0,0,.79,6.4q-2,5.95-3.65,12c-1.34,4.86,2.38,8.81,7,9.2.48,0,.95.06,1.41.06-1.57,3.34-5,7.63-5.67,8.86-2.75,5.1-4.56,11-2.65,16.67,1,3,2.81,4.16,5,6.15.63.58,1,0,.82,2-.65,5.74-3.59,10.84-2.95,16.82.35,3.28,1.83,5.19,3,8.11-.93-2.38,1,1.7,1,1.58.07,1.26-1.42,3.18-1.92,4.28-2.5,5.52-2.74,10.93-1.66,16.84.84,4.63,3.06,9.6,2.31,14.39-.86,5.41-4.11,9.72-3.47,15.47a13.39,13.39,0,0,0,3.38,7.68c1.49,1.64,2.64,2,3.15,4.22,1.43,6.31.08,14.62-1.11,20.88-1.08,5.75-3.34,11.29-4,17.11-.72,6.43,2,11.25,3.26,17.33,1.06,5.22-2.83,9.55-4,14.45-1.76,7.12,1.52,12,3.35,18.63,1.43,5.17.17,10.68-.66,16.06l-2,6.37c-.94,3-2.32,6.06-2.23,9.22a8.79,8.79,0,0,0,5.31,8,8.42,8.42,0,0,0,2.86.66,8.82,8.82,0,0,0,5,.09,8.07,8.07,0,0,0,4.56-3.15c6.17-.61,11.88-6.17,13.52-12.9,1.14-4.69-.41-10.06,2.21-14.26C1595.85,289,1598.06,285.31,1597.07,279.22Z"/><path class="cls-6" d="M55.29,279.22c.79-4.82,3.42-8.88,5.2-13.35,2.47-6.21-.88-11-1.09-17.28-.19-5.9,3.17-10.19,4-15.74.76-4.9-2.47-10.18-3.28-14.94-.91-5.33,0-10.42,3.31-14.76,1.35-1.74,3.06-2.86,3-5.08,0-2.83-3.26-6.58-4.41-9-2.09-4.47-3.48-9.66-2.07-14.56a15.18,15.18,0,0,1,4.33-6.8c1.86-1.73,3.61-2.13,3.89-4.8.53-5-3.67-10.75-4.5-15.7-1.12-6.71,1-11.14,4.37-16.67,1.24-2,1.27-1.17.46-2.68-1-1.91-3-3.52-4.29-5.32a15.55,15.55,0,0,1-2-15.11c1.34-3.4,3.69-6.05,6.11-8.75.91-1,3.52-4.28,3.51-4.33-.18-.71-2.35-2-2.94-2.59a13.75,13.75,0,0,1-2.74-4.11,14.59,14.59,0,0,1-.8-8.61c.9-4.89,5.59-10.14,3.34-15.07-2.7-5.9-7.32-10.3-7.31-17.3a14.43,14.43,0,0,1,4.14-10.21c-.07-.18-.14-.36-.21-.54a13.44,13.44,0,0,1,4.29-14.66c.07-.12.14-.25.22-.37a23.32,23.32,0,0,1,19-10.39,6.8,6.8,0,0,1,6.81,5.17,6.83,6.83,0,0,1,1,1.75,7.34,7.34,0,0,1-1.17,7.54,9.66,9.66,0,0,1-.79,2.7L89.91,38.37l0,.08a17,17,0,0,1,1.56,6.22,18.78,18.78,0,0,1-.79,6.4q2,5.95,3.65,12c1.34,4.86-2.38,8.81-7,9.2-.48,0-.95.06-1.41.06,1.57,3.34,5,7.63,5.67,8.86,2.75,5.1,4.56,11,2.65,16.67-1,3-2.81,4.16-5,6.15-.63.58-1,0-.82,2,.65,5.74,3.59,10.84,2.95,16.82-.35,3.28-1.83,5.19-3,8.11.93-2.38-1,1.7-1,1.58-.07,1.26,1.42,3.18,1.92,4.28,2.5,5.52,2.74,10.93,1.66,16.84-.84,4.63-3.06,9.6-2.31,14.39.86,5.41,4.11,9.72,3.47,15.47a13.39,13.39,0,0,1-3.38,7.68c-1.49,1.64-2.64,2-3.15,4.22-1.43,6.31-.08,14.62,1.11,20.88,1.08,5.75,3.34,11.29,4,17.11.72,6.43-2,11.25-3.26,17.33-1.06,5.22,2.83,9.55,4,14.45,1.76,7.12-1.52,12-3.35,18.63-1.43,5.17-.17,10.68.66,16.06l2,6.37c.94,3,2.32,6.06,2.23,9.22a8.79,8.79,0,0,1-5.31,8,8.42,8.42,0,0,1-2.86.66,8.82,8.82,0,0,1-5,.09,8.07,8.07,0,0,1-4.56-3.15c-6.17-.61-11.88-6.17-13.52-12.9-1.14-4.69.41-10.06-2.21-14.26C56.51,289,54.3,285.31,55.29,279.22Z"/></g><g id="beer-body"><path class="cls-7" d="M1754.6,60.91c2.42,21.36,6.74,69.71-.26,105.57v.06c-6,35.86-17.61,94.25-11.16,131.25h0c-6,18-90.26,17.34-99.52-.38,6.45-36.26-5.24-94.88-11.69-130.74s-2.55-84.28-.13-105.63Z"/><path class="cls-7" d="M1426.6,60.91c2.42,21.36,6.74,69.71-.26,105.57v.06c-6,35.86-17.61,94.25-11.16,131.25h0c-6,18-90.26,17.34-99.52-.38,6.45-36.26-5.24-94.88-11.69-130.74s-2.55-84.28-.13-105.63Z"/><path class="cls-7" d="M1075.6,60.91c2.42,21.36,6.74,69.71-.26,105.57v.06c-6,35.86-17.61,94.25-11.16,131.25h0c-6,18-90.26,17.34-99.52-.38,6.45-36.26-5.24-94.88-11.69-130.74S950.4,82.39,952.82,61Z"/></g><g id="beer-head"><path class="cls-8" d="M1754.72,61.76c.66,5.82,1.43,14.53,2.07,23.53h-127c.64-9,1.42-17.65,2.07-23.45,0,0-2.07-12.94,61.42-12.94S1754.72,61.76,1754.72,61.76Z"/><path class="cls-8" d="M1426.72,61.76c.66,5.82,1.43,14.53,2.07,23.53h-127c.64-9,1.42-17.65,2.07-23.45,0,0-2.07-12.94,61.42-12.94S1426.72,61.76,1426.72,61.76Z"/><path class="cls-8" d="M1075.72,61.76c.66,5.82,1.43,14.53,2.07,23.53h-127c.64-9,1.42-17.65,2.07-23.45,0,0-2.07-12.94,61.42-12.94S1075.72,61.76,1075.72,61.76Z"/></g><g id="beer-details"><text class="cls-9" transform="translate(1663.31 145.64)">B<tspan class="cls-10" x="17.44" y="0">EER</tspan></text><path class="cls-11" d="M1645.19,283.53a123.07,123.07,0,0,1-1.56,13.84c9.27,17.72,93.48,18.87,99.52.33h0a129.14,129.14,0,0,1-1.54-13.3C1729.28,299.41,1659.08,298.32,1645.19,283.53Z"/><path class="cls-12" d="M1631.94,61c-2.42,21.36-6.44,69.71,0,105.57s18.13,94.35,11.69,130.62c9.27,17.72,93.48,19.13,99.52.13h0c-6.45-36,4.66-94.89,11.66-130.75v-.06c6-35.86,2.43-84.21,0-105.57Z"/><text class="cls-9" transform="translate(1335.31 145.64)">B<tspan class="cls-10" x="17.44" y="0">EER</tspan></text><path class="cls-11" d="M1317.19,283.53a123.07,123.07,0,0,1-1.56,13.84c9.27,17.72,93.48,18.87,99.52.33h0a129.14,129.14,0,0,1-1.54-13.3C1401.28,299.41,1331.08,298.32,1317.19,283.53Z"/><path class="cls-12" d="M1303.94,61c-2.42,21.36-6.44,69.71,0,105.57s18.13,94.35,11.69,130.62c9.27,17.72,93.48,19.13,99.52.13h0c-6.45-36,4.66-94.89,11.66-130.75v-.06c6-35.86,2.43-84.21,0-105.57Z"/><text class="cls-9" transform="translate(984.31 145.64)">B<tspan class="cls-10" x="17.44" y="0">EER</tspan></text><path class="cls-11" d="M966.19,283.53a123.07,123.07,0,0,1-1.56,13.84c9.27,17.72,93.48,18.87,99.52.33h0a129.14,129.14,0,0,1-1.54-13.3C1050.28,299.41,980.08,298.32,966.19,283.53Z"/><path class="cls-12" d="M952.94,61c-2.42,21.36-6.44,69.71,0,105.57s18.13,94.35,11.69,130.62c9.27,17.72,93.48,19.13,99.52.13h0c-6.45-36,4.66-94.89,11.66-130.75v-.06c6-35.86,2.43-84.21,0-105.57Z"/><path class="cls-7" d="M735.74,60.91,655.33,61V309.64c28,3.69,64.88-.11,68.83-11.85h0c-6.45-37,5.16-95.39,11.16-131.25v-.06C742.33,130.62,738.16,82.27,735.74,60.91Z"/><path class="cls-11" d="M722.64,284.4c-8.19,9.95-41.82,12.82-67.59,9.32v16c28,3.8,65.17.08,69.11-12h0A129.13,129.13,0,0,1,722.64,284.4Z"/><path class="cls-8" d="M654.83,85.29h83c-.64-9-1.41-17.71-2.07-23.53,0,0,2-12.85-61.53-12.85-7.24,0-13.36.17-19.36.47Z"/><path class="cls-13" d="M662.39,145.64v-1.1l1.38-.12.36-.35V132l-.36-.32-1.38-.11v-1.1h11.38V134H672.2l-.38-2-.24-.3h-4.52v5.38H670l.31-.32.23-1.62h1.33v5.23h-1.33l-.23-1.63-.31-.31h-2.94v5.86h5.27l.26-.36.36-2.39h1.55v4Z"/><path class="cls-13" d="M675.84,145.64v-1.1l1.38-.12.36-.35V132l-.36-.32-1.38-.11v-1.1h11.38V134h-1.56l-.39-2-.24-.3h-4.52v5.38h2.94l.31-.32.23-1.62h1.33v5.23H684l-.23-1.63-.31-.31h-2.94v5.86h5.27L686,144l.36-2.39H688v4Z"/><path class="cls-13" d="M689.33,130.51h6.86a6.68,6.68,0,0,1,3.95,1,3.33,3.33,0,0,1,1.35,2.88,3.41,3.41,0,0,1-1,2.53,5.38,5.38,0,0,1-2.9,1.33,5.23,5.23,0,0,1,1.42.53,3,3,0,0,1,1,.87,8.45,8.45,0,0,1,.95,2.25q.23.74.36,1.09a2.39,2.39,0,0,0,.91,1.24,3.46,3.46,0,0,0,1.76.35h.29v1.08q-.63.09-1.2.13c-.38,0-.73,0-1.06,0a4.57,4.57,0,0,1-1.31-.18,3.17,3.17,0,0,1-1-.51,5.21,5.21,0,0,1-1.61-2.61l-.12-.4a5.53,5.53,0,0,0-1.38-2.52,3.46,3.46,0,0,0-2.19-.59H694v5.08l.36.35,1.38.12v1.1h-6.37v-1.1l1.33-.12.36-.35V132l-.36-.32-1.33-.11ZM694,131.8v5.88l.31,0h.49a4.11,4.11,0,0,0,2.7-.74,2.83,2.83,0,0,0,.87-2.28,2.68,2.68,0,0,0-.86-2.15,3.7,3.7,0,0,0-2.48-.74Z"/><path class="cls-12" d="M735.74,60.91l-80.91,0v248.6c28,3.84,65.38.13,69.33-12.26h0c-6.45-36,4.66-94.89,11.66-130.75v-.06C741.83,130.62,738.16,82.27,735.74,60.91Z"/></g><g id="Layer_7" data-name="Layer 7"><path class="cls-7" d="M406.81,60.91l-43.47,0V310.3c16-1.55,29.53-5.69,31.83-12.51h0c-6.45-37,5.16-95.39,11.16-131.25v-.06C413.33,130.62,409.23,82.27,406.81,60.91Z"/><path class="cls-8" d="M362.83,85.29h46c-.64-9-1.45-17.71-2.11-23.53,0,0,2.15-10.34-43.85-12.47Z"/><path class="cls-11" d="M393.64,284.4c-4.47,5.43-16.52,8.75-30.73,10.08v16c16.42-1.54,30-5.73,32.25-12.76h0A129.13,129.13,0,0,1,393.64,284.4Z"/><path class="cls-12" d="M406.81,60.91l-44,0V310.32c16-1.56,30-5.83,32.33-13h0c-6.45-36,4.66-94.89,11.66-130.75v-.06C412.83,130.62,409.23,82.27,406.81,60.91Z"/><path class="cls-13" d="M346.84,145.64v-1.1l1.38-.12.36-.35V132l-.36-.32-1.38-.11v-1.1h11.38V134h-1.56l-.39-2-.24-.3h-4.52v5.38h2.94l.31-.32.23-1.62h1.33v5.23H355l-.23-1.63-.31-.31h-2.94v5.86h5.27L357,144l.36-2.39H359v4Z"/><path class="cls-13" d="M360.33,130.51h6.86a6.68,6.68,0,0,1,3.95,1,3.33,3.33,0,0,1,1.35,2.88,3.41,3.41,0,0,1-1,2.53,5.38,5.38,0,0,1-2.9,1.33,5.23,5.23,0,0,1,1.42.53,3,3,0,0,1,1,.87,8.45,8.45,0,0,1,.95,2.25q.23.74.36,1.09a2.39,2.39,0,0,0,.91,1.24,3.46,3.46,0,0,0,1.76.35h.29v1.08q-.63.09-1.2.13c-.38,0-.73,0-1.06,0a4.57,4.57,0,0,1-1.31-.18,3.17,3.17,0,0,1-1-.51,5.21,5.21,0,0,1-1.61-2.61l-.12-.4a5.53,5.53,0,0,0-1.38-2.52,3.46,3.46,0,0,0-2.19-.59H365v5.08l.36.35,1.38.12v1.1h-6.37v-1.1l1.33-.12.36-.35V132l-.36-.32-1.33-.11ZM365,131.8v5.88l.31,0h.49a4.11,4.11,0,0,0,2.7-.74,2.83,2.83,0,0,0,.87-2.28,2.68,2.68,0,0,0-.86-2.15,3.7,3.7,0,0,0-2.48-.74Z"/></g><g id="splash-front"><path class="cls-14" d="M371,300.45c.42-4.13-.37-8.55,1.86-12.12,3.07-4.9,5.28-8.61,4.29-14.7-.79-4.82-3.42-8.88-5.2-13.35-2.47-6.21.88-11,1.09-17.28.19-5.9-3.17-10.19-4-15.74-.76-4.9,2.47-10.18,3.28-14.94.91-5.33,0-10.42-3.31-14.76-1.35-1.74-3.06-2.86-3-5.08,0-2.83,3.26-6.58,4.41-9,2.09-4.47,3.48-9.66,2.07-14.56a15.18,15.18,0,0,0-4.33-6.8c-1.86-1.73-3.61-2.13-3.89-4.8-.53-5,3.67-10.75,4.5-15.7,1.12-6.71-1-11.14-4.37-16.67-1.24-2-1.27-1.17-.46-2.68,1-1.91,3-3.52,4.29-5.32a15.55,15.55,0,0,0,2-15.11c-1.34-3.4-3.69-6.05-6.11-8.75-.91-1-3.52-4.28-3.51-4.33.18-.71,2.35-2,2.94-2.59A13.75,13.75,0,0,0,366.23,82a14.59,14.59,0,0,0,.8-8.61c-.9-4.89-5.59-10.14-3.34-15.07C366.4,52.45,371,48,371,41a14.43,14.43,0,0,0-4.14-10.21c.07-.18.14-.36.21-.54,3.09-9.3-4.73-19.54-14.75-16.62a12.77,12.77,0,0,0-8.41,16.88A16.78,16.78,0,0,0,341,39.08a18.78,18.78,0,0,0,.79,6.4q-2,5.95-3.65,12c-1.34,4.86,2.38,8.81,7,9.2.48,0,.95.06,1.41.06-1.57,3.34-5,7.63-5.67,8.86-2.75,5.1-4.56,11-2.65,16.67,1,3,2.81,4.16,5,6.15.63.58,1,0,.82,2-.65,5.74-3.59,10.84-2.95,16.82.35,3.28,1.83,5.19,3,8.11-.93-2.38,1,1.7,1,1.58.07,1.26-1.42,3.18-1.92,4.28-2.5,5.52-2.74,10.93-1.66,16.84.84,4.63,3.06,9.6,2.31,14.39-.86,5.41-4.11,9.72-3.47,15.47a13.39,13.39,0,0,0,3.38,7.68c1.49,1.64,2.64,2,3.15,4.22,1.43,6.31.08,14.62-1.11,20.88-1.08,5.75-3.34,11.29-4,17.11-.72,6.43,2,11.25,3.26,17.33,1.06,5.22-2.83,9.55-4,14.45-1.76,7.12,1.52,12,3.35,18.63,3,10.86-5.88,23.26,2.39,32.74a7,7,0,0,0,2,3.52,18.33,18.33,0,0,0,8.64,4.88l.43.08a12.69,12.69,0,0,0,2.16.54c.58.09,1.15.15,1.72.18a10.6,10.6,0,0,0,2.26.25c4,2.17,8.87.2,10.5-4.38a7.78,7.78,0,0,0-.92-7A26.23,26.23,0,0,0,371,300.45Z"/><path class="cls-15" d="M643.88,300.45c-.42-4.13.37-8.55-1.86-12.12-3.07-4.9-5.28-8.61-4.29-14.7.79-4.82,3.42-8.88,5.2-13.35,2.47-6.21-.88-11-1.09-17.28-.19-5.9,3.17-10.19,4-15.74.76-4.9-2.47-10.18-3.28-14.94-.91-5.33,0-10.42,3.31-14.76,1.35-1.74,3.06-2.86,3-5.08,0-2.83-3.26-6.58-4.41-9-2.09-4.47-3.48-9.66-2.07-14.56a15.18,15.18,0,0,1,4.33-6.8c1.86-1.73,3.61-2.13,3.89-4.8.53-5-3.67-10.75-4.5-15.7-1.12-6.71,1-11.14,4.37-16.67,1.24-2,1.27-1.17.46-2.68-1-1.91-3-3.52-4.29-5.32a15.55,15.55,0,0,1-2-15.11c1.34-3.4,3.69-6.05,6.11-8.75.91-1,3.52-4.28,3.51-4.33-.18-.71-2.35-2-2.94-2.59A13.75,13.75,0,0,1,648.67,82a14.59,14.59,0,0,1-.8-8.61c.9-4.89,5.59-10.14,3.34-15.07-2.7-5.9-7.32-10.3-7.31-17.3A14.43,14.43,0,0,1,648,30.83c-.07-.18-.14-.36-.21-.54-3.09-9.3,4.73-19.54,14.75-16.62A12.77,12.77,0,0,1,671,30.55a16.78,16.78,0,0,1,2.87,8.53,18.78,18.78,0,0,1-.79,6.4q2,5.95,3.65,12c1.34,4.86-2.38,8.81-7,9.2-.48,0-.95.06-1.41.06,1.57,3.34,5,7.63,5.67,8.86,2.75,5.1,4.56,11,2.65,16.67-1,3-2.81,4.16-5,6.15-.63.58-1,0-.82,2,.65,5.74,3.59,10.84,2.95,16.82-.35,3.28-1.83,5.19-3,8.11.93-2.38-1,1.7-1,1.58-.07,1.26,1.42,3.18,1.92,4.28,2.5,5.52,2.74,10.93,1.66,16.84-.84,4.63-3.06,9.6-2.31,14.39.86,5.41,4.11,9.72,3.47,15.47a13.39,13.39,0,0,1-3.38,7.68c-1.49,1.64-2.64,2-3.15,4.22-1.43,6.31-.08,14.62,1.11,20.88,1.08,5.75,3.34,11.29,4,17.11.72,6.43-2,11.25-3.26,17.33-1.06,5.22,2.83,9.55,4,14.45,1.76,7.12-1.52,12-3.35,18.63-3,10.86,5.88,23.26-2.39,32.74a7,7,0,0,1-2,3.52,18.33,18.33,0,0,1-8.64,4.88l-.43.08a12.69,12.69,0,0,1-2.16.54c-.58.09-1.15.15-1.72.18a10.6,10.6,0,0,1-2.26.25c-4,2.17-8.87.2-10.5-4.38a7.78,7.78,0,0,1,.92-7A26.23,26.23,0,0,1,643.88,300.45Z"/><path class="cls-16" d="M971,300.45c.42-4.13-.37-8.55,1.86-12.12,3.07-4.9,5.28-8.61,4.29-14.7-.79-4.82-3.42-8.88-5.2-13.35-2.47-6.21.88-11,1.09-17.28.19-5.9-3.17-10.19-4-15.74-.76-4.9,2.47-10.18,3.28-14.94.91-5.33,0-10.42-3.31-14.76-1.35-1.74-3.06-2.86-3-5.08,0-2.83,3.26-6.58,4.41-9,2.09-4.47,3.48-9.66,2.07-14.56a15.18,15.18,0,0,0-4.33-6.8c-1.86-1.73-3.61-2.13-3.89-4.8-.53-5,3.67-10.75,4.5-15.7,1.12-6.71-1-11.14-4.37-16.67-1.24-2-1.27-1.17-.46-2.68,1-1.91,3-3.52,4.29-5.32a15.55,15.55,0,0,0,2-15.11c-1.34-3.4-3.69-6.05-6.11-8.75-.91-1-3.52-4.28-3.51-4.33.18-.71,2.35-2,2.94-2.59A13.75,13.75,0,0,0,966.23,82a14.59,14.59,0,0,0,.8-8.61c-.9-4.89-5.59-10.14-3.34-15.07C966.4,52.45,971,48,971,41a14.43,14.43,0,0,0-4.14-10.21c.07-.18.14-.36.21-.54,3.09-9.3-4.73-19.54-14.75-16.62a12.77,12.77,0,0,0-8.41,16.88A16.78,16.78,0,0,0,941,39.08a18.78,18.78,0,0,0,.79,6.4q-2,5.95-3.65,12c-1.34,4.86,2.38,8.81,7,9.2.48,0,.95.06,1.41.06-1.57,3.34-5,7.63-5.67,8.86-2.75,5.1-4.56,11-2.65,16.67,1,3,2.81,4.16,5,6.15.63.58,1,0,.82,2-.65,5.74-3.59,10.84-2.95,16.82.35,3.28,1.83,5.19,3,8.11-.93-2.38,1,1.7,1,1.58.07,1.26-1.42,3.18-1.92,4.28-2.5,5.52-2.74,10.93-1.66,16.84.84,4.63,3.06,9.6,2.31,14.39-.86,5.41-4.11,9.72-3.47,15.47a13.39,13.39,0,0,0,3.38,7.68c1.49,1.64,2.64,2,3.15,4.22,1.43,6.31.08,14.62-1.11,20.88-1.08,5.75-3.34,11.29-4,17.11-.72,6.43,2,11.25,3.26,17.33,1.06,5.22-2.83,9.55-4,14.45-1.76,7.12,1.52,12,3.35,18.63,3,10.86-5.88,23.26,2.39,32.74a7,7,0,0,0,2,3.52,18.33,18.33,0,0,0,8.64,4.88l.43.08a12.69,12.69,0,0,0,2.16.54c.58.09,1.15.15,1.72.18a10.6,10.6,0,0,0,2.26.25c4,2.17,8.87.2,10.5-4.38a7.78,7.78,0,0,0-.92-7A26.23,26.23,0,0,0,971,300.45Z"/><path class="cls-17" d="M1243.88,300.45c-.42-4.13.37-8.55-1.86-12.12-3.07-4.9-5.28-8.61-4.29-14.7.79-4.82,3.42-8.88,5.2-13.35,2.47-6.21-.88-11-1.09-17.28-.19-5.9,3.17-10.19,4-15.74.76-4.9-2.47-10.18-3.28-14.94-.91-5.33,0-10.42,3.31-14.76,1.35-1.74,3.06-2.86,3-5.08,0-2.83-3.26-6.58-4.41-9-2.09-4.47-3.48-9.66-2.07-14.56a15.18,15.18,0,0,1,4.33-6.8c1.86-1.73,3.61-2.13,3.89-4.8.53-5-3.67-10.75-4.5-15.7-1.12-6.71,1-11.14,4.37-16.67,1.24-2,1.27-1.17.46-2.68-1-1.91-3-3.52-4.29-5.32a15.55,15.55,0,0,1-2-15.11c1.34-3.4,3.69-6.05,6.11-8.75.91-1,3.52-4.28,3.51-4.33-.18-.71-2.35-2-2.94-2.59a13.75,13.75,0,0,1-2.74-4.11,14.59,14.59,0,0,1-.8-8.61c.9-4.89,5.59-10.14,3.34-15.07-2.7-5.9-7.32-10.3-7.31-17.3A14.43,14.43,0,0,1,1248,30.83c-.07-.18-.14-.36-.21-.54-3.09-9.3,4.73-19.54,14.75-16.62A12.77,12.77,0,0,1,1271,30.55a16.78,16.78,0,0,1,2.87,8.53,18.78,18.78,0,0,1-.79,6.4q2,5.95,3.65,12c1.34,4.86-2.38,8.81-7,9.2-.48,0-.95.06-1.41.06,1.57,3.34,5,7.63,5.67,8.86,2.75,5.1,4.56,11,2.65,16.67-1,3-2.81,4.16-5,6.15-.63.58-1,0-.82,2,.65,5.74,3.59,10.84,2.95,16.82-.35,3.28-1.83,5.19-3,8.11.93-2.38-1,1.7-1,1.58-.07,1.26,1.42,3.18,1.92,4.28,2.5,5.52,2.74,10.93,1.66,16.84-.84,4.63-3.06,9.6-2.31,14.39.86,5.41,4.11,9.72,3.47,15.47a13.39,13.39,0,0,1-3.38,7.68c-1.49,1.64-2.64,2-3.15,4.22-1.43,6.31-.08,14.62,1.11,20.88,1.08,5.75,3.34,11.29,4,17.11.72,6.43-2,11.25-3.26,17.33-1.06,5.22,2.83,9.55,4,14.45,1.76,7.12-1.52,12-3.35,18.63-3,10.86,5.88,23.26-2.39,32.74a7,7,0,0,1-2,3.52,18.33,18.33,0,0,1-8.64,4.88l-.43.08a12.69,12.69,0,0,1-2.16.54c-.58.09-1.15.15-1.72.18a10.6,10.6,0,0,1-2.26.25c-4,2.17-8.87.2-10.5-4.38a7.78,7.78,0,0,1,.92-7A26.23,26.23,0,0,1,1243.88,300.45Z"/><path class="cls-18" d="M1571,300.45c.42-4.13-.37-8.55,1.86-12.12,3.07-4.9,5.28-8.61,4.29-14.7-.79-4.82-3.42-8.88-5.2-13.35-2.47-6.21.88-11,1.09-17.28.19-5.9-3.17-10.19-4-15.74-.76-4.9,2.47-10.18,3.28-14.94.91-5.33,0-10.42-3.31-14.76-1.35-1.74-3.06-2.86-3-5.08,0-2.83,3.26-6.58,4.41-9,2.09-4.47,3.48-9.66,2.07-14.56a15.18,15.18,0,0,0-4.33-6.8c-1.86-1.73-3.61-2.13-3.89-4.8-.53-5,3.67-10.75,4.5-15.7,1.12-6.71-1-11.14-4.37-16.67-1.24-2-1.27-1.17-.46-2.68,1-1.91,3-3.52,4.29-5.32a15.55,15.55,0,0,0,2-15.11c-1.34-3.4-3.69-6.05-6.11-8.75-.91-1-3.52-4.28-3.51-4.33.18-.71,2.35-2,2.94-2.59a13.75,13.75,0,0,0,2.74-4.11,14.59,14.59,0,0,0,.8-8.61c-.9-4.89-5.59-10.14-3.34-15.07,2.7-5.9,7.32-10.3,7.31-17.3a14.43,14.43,0,0,0-4.14-10.21c.07-.18.14-.36.21-.54,3.09-9.3-4.73-19.54-14.75-16.62a12.77,12.77,0,0,0-8.41,16.88,16.78,16.78,0,0,0-2.87,8.53,18.78,18.78,0,0,0,.79,6.4q-2,5.95-3.65,12c-1.34,4.86,2.38,8.81,7,9.2.48,0,.95.06,1.41.06-1.57,3.34-5,7.63-5.67,8.86-2.75,5.1-4.56,11-2.65,16.67,1,3,2.81,4.16,5,6.15.63.58,1,0,.82,2-.65,5.74-3.59,10.84-2.95,16.82.35,3.28,1.83,5.19,3,8.11-.93-2.38,1,1.7,1,1.58.07,1.26-1.42,3.18-1.92,4.28-2.5,5.52-2.74,10.93-1.66,16.84.84,4.63,3.06,9.6,2.31,14.39-.86,5.41-4.11,9.72-3.47,15.47a13.39,13.39,0,0,0,3.38,7.68c1.49,1.64,2.64,2,3.15,4.22,1.43,6.31.08,14.62-1.11,20.88-1.08,5.75-3.34,11.29-4,17.11-.72,6.43,2,11.25,3.26,17.33,1.06,5.22-2.83,9.55-4,14.45-1.76,7.12,1.52,12,3.35,18.63,3,10.86-5.88,23.26,2.39,32.74a7,7,0,0,0,2,3.52,18.33,18.33,0,0,0,8.64,4.88l.43.08a12.69,12.69,0,0,0,2.16.54c.58.09,1.15.15,1.72.18a10.6,10.6,0,0,0,2.26.25c4,2.17,8.87.2,10.5-4.38a7.78,7.78,0,0,0-.92-7A26.23,26.23,0,0,0,1571,300.45Z"/><path class="cls-19" d="M43.88,300.45c-.42-4.13.37-8.55-1.86-12.12-3.07-4.9-5.28-8.61-4.29-14.7.79-4.82,3.42-8.88,5.2-13.35,2.47-6.21-.88-11-1.09-17.28-.19-5.9,3.17-10.19,4-15.74.76-4.9-2.47-10.18-3.28-14.94-.91-5.33,0-10.42,3.31-14.76,1.35-1.74,3.06-2.86,3-5.08,0-2.83-3.26-6.58-4.41-9-2.09-4.47-3.48-9.66-2.07-14.56a15.18,15.18,0,0,1,4.33-6.8c1.86-1.73,3.61-2.13,3.89-4.8.53-5-3.67-10.75-4.5-15.7-1.12-6.71,1-11.14,4.37-16.67,1.24-2,1.27-1.17.46-2.68-1-1.91-3-3.52-4.29-5.32a15.55,15.55,0,0,1-2-15.11c1.34-3.4,3.69-6.05,6.11-8.75.91-1,3.52-4.28,3.51-4.33-.18-.71-2.35-2-2.94-2.59A13.75,13.75,0,0,1,48.67,82a14.59,14.59,0,0,1-.8-8.61c.9-4.89,5.59-10.14,3.34-15.07C48.51,52.45,43.89,48,43.9,41A14.43,14.43,0,0,1,48,30.83c-.07-.18-.14-.36-.21-.54C44.75,21,52.57,10.75,62.59,13.67A12.77,12.77,0,0,1,71,30.55a16.78,16.78,0,0,1,2.87,8.53,18.78,18.78,0,0,1-.79,6.4q2,5.95,3.65,12c1.34,4.86-2.38,8.81-7,9.2-.48,0-.95.06-1.41.06,1.57,3.34,5,7.63,5.67,8.86,2.75,5.1,4.56,11,2.65,16.67-1,3-2.81,4.16-5,6.15-.63.58-1,0-.82,2,.65,5.74,3.59,10.84,2.95,16.82-.35,3.28-1.83,5.19-3,8.11.93-2.38-1,1.7-1,1.58-.07,1.26,1.42,3.18,1.92,4.28,2.5,5.52,2.74,10.93,1.66,16.84-.84,4.63-3.06,9.6-2.31,14.39.86,5.41,4.11,9.72,3.47,15.47a13.39,13.39,0,0,1-3.38,7.68c-1.49,1.64-2.64,2-3.15,4.22-1.43,6.31-.08,14.62,1.11,20.88,1.08,5.75,3.34,11.29,4,17.11.72,6.43-2,11.25-3.26,17.33-1.06,5.22,2.83,9.55,4,14.45,1.76,7.12-1.52,12-3.35,18.63-3,10.86,5.88,23.26-2.39,32.74a7,7,0,0,1-2,3.52,18.33,18.33,0,0,1-8.64,4.88l-.43.08a12.69,12.69,0,0,1-2.16.54c-.58.09-1.15.15-1.72.18a10.6,10.6,0,0,1-2.26.25c-4,2.17-8.87.2-10.5-4.38a7.78,7.78,0,0,1,.92-7A26.23,26.23,0,0,1,43.88,300.45Z"/></g></svg>