<svg xmlns="http://www.w3.org/2000/svg" xmlns:xlink="http://www.w3.org/1999/xlink" viewBox="0 0 217.36 221.67"><defs><style>.cls-1{fill:#fff;}.cls-2{fill:url(#linear-gradient);}.cls-3{fill:url(#linear-gradient-2);}.cls-4{fill:#7b7b7b;}.cls-10,.cls-11,.cls-12,.cls-13,.cls-14,.cls-15,.cls-16,.cls-17,.cls-18,.cls-19,.cls-20,.cls-21,.cls-22,.cls-23,.cls-24,.cls-25,.cls-26,.cls-27,.cls-28,.cls-29,.cls-30,.cls-31,.cls-32,.cls-33,.cls-34,.cls-35,.cls-36,.cls-37,.cls-38,.cls-5,.cls-6,.cls-7,.cls-8,.cls-9{stroke:#232323;stroke-miterlimit:10;stroke-width:1.25px;}.cls-5{fill:url(#linear-gradient-3);}.cls-6{fill:url(#linear-gradient-4);}.cls-7{fill:url(#linear-gradient-5);}.cls-8{fill:url(#linear-gradient-6);}.cls-9{fill:url(#linear-gradient-7);}.cls-10{fill:url(#linear-gradient-8);}.cls-11{fill:url(#linear-gradient-9);}.cls-12{fill:url(#linear-gradient-10);}.cls-13{fill:url(#linear-gradient-11);}.cls-14{fill:url(#linear-gradient-12);}.cls-15{fill:url(#linear-gradient-13);}.cls-16{fill:url(#linear-gradient-14);}.cls-17{fill:url(#linear-gradient-15);}.cls-18{fill:url(#linear-gradient-16);}.cls-19{fill:url(#linear-gradient-17);}.cls-20{fill:url(#linear-gradient-18);}.cls-21{fill:url(#linear-gradient-19);}.cls-22{fill:url(#linear-gradient-20);}.cls-23{fill:url(#linear-gradient-21);}.cls-24{fill:url(#linear-gradient-22);}.cls-25{fill:url(#linear-gradient-23);}.cls-26{fill:url(#linear-gradient-24);}.cls-27{fill:url(#linear-gradient-25);}.cls-28{fill:url(#linear-gradient-26);}.cls-29{fill:url(#linear-gradient-27);}.cls-30{fill:url(#linear-gradient-28);}.cls-31{fill:url(#linear-gradient-29);}.cls-32{fill:url(#linear-gradient-30);}.cls-33{fill:url(#linear-gradient-31);}.cls-34{fill:url(#linear-gradient-32);}.cls-35{fill:url(#linear-gradient-33);}.cls-36{fill:url(#linear-gradient-34);}.cls-37{fill:url(#linear-gradient-35);}.cls-38{fill:url(#linear-gradient-36);}</style><linearGradient id="linear-gradient" x1="108.68" y1="215.7" x2="108.68" y2="35.42" gradientUnits="userSpaceOnUse"><stop offset="0" stop-color="#232323"/><stop offset="1" stop-color="#404040"/></linearGradient><linearGradient id="linear-gradient-2" x1="108.46" y1="79.67" x2="108.46" y2="31.05" xlink:href="#linear-gradient"/><linearGradient id="linear-gradient-3" x1="103.31" y1="-239.89" x2="103.31" y2="-250.99" gradientTransform="matrix(0.96, -0.29, 0.29, 0.96, 29.99, 316.38)" gradientUnits="userSpaceOnUse"><stop offset="0" stop-color="#d68e0f"/><stop offset="0.22" stop-color="#da9a28"/><stop offset="0.53" stop-color="#e0a745"/><stop offset="0.81" stop-color="#e3b058"/><stop offset="1" stop-color="#e4b35e"/></linearGradient><linearGradient id="linear-gradient-4" x1="103.31" y1="-243.4" x2="103.31" y2="-258.57" gradientTransform="matrix(1, 0, 0, 1, -47.44, 297.18)" gradientUnits="userSpaceOnUse"><stop offset="0" stop-color="#f7e114"/><stop offset="0.7" stop-color="#fbf089"/></linearGradient><linearGradient id="linear-gradient-5" x1="101.89" y1="-19.41" x2="101.89" y2="-30.5" gradientTransform="matrix(1, -0.04, 0.04, 1, 4.01, 94.7)" xlink:href="#linear-gradient-3"/><linearGradient id="linear-gradient-6" x1="101.89" y1="-22.92" x2="101.89" y2="-38.09" gradientTransform="matrix(1, 0, 0, 1, 2.7, 90.62)" xlink:href="#linear-gradient-4"/><linearGradient id="linear-gradient-7" x1="120.72" y1="93.88" x2="120.72" y2="82.78" gradientTransform="matrix(1, 0.02, -0.02, 1, -48.96, -29.16)" xlink:href="#linear-gradient-3"/><linearGradient id="linear-gradient-8" x1="120.72" y1="90.37" x2="120.72" y2="75.2" gradientTransform="matrix(0, 1, -1, 0, 152.51, -64.19)" xlink:href="#linear-gradient-4"/><linearGradient id="linear-gradient-9" x1="237.21" y1="495.9" x2="237.21" y2="484.8" gradientTransform="matrix(0.87, 0.5, -0.5, 0.87, 158.25, -495.41)" xlink:href="#linear-gradient-3"/><linearGradient id="linear-gradient-10" x1="237.21" y1="492.39" x2="237.21" y2="477.22" gradientTransform="matrix(0, 1, -1, 0, 608.29, -194.11)" xlink:href="#linear-gradient-4"/><linearGradient id="linear-gradient-11" x1="114.29" y1="-150.78" x2="114.29" y2="-161.87" gradientTransform="matrix(0.98, -0.19, 0.19, 0.98, 12.15, 213.51)" xlink:href="#linear-gradient-3"/><linearGradient id="linear-gradient-12" x1="114.29" y1="-154.28" x2="114.29" y2="-169.46" gradientTransform="matrix(1, 0, 0, 1, -20.2, 194.97)" xlink:href="#linear-gradient-4"/><linearGradient id="linear-gradient-13" x1="2032.15" y1="-533.74" x2="2032.15" y2="-544.84" gradientTransform="matrix(-0.87, 0.5, 0.5, 0.87, 2131.03, -495.41)" xlink:href="#linear-gradient-3"/><linearGradient id="linear-gradient-14" x1="2032.15" y1="-537.25" x2="2032.15" y2="-552.42" gradientTransform="matrix(-1, 0, 0, 1, 2128.86, 586.09)" xlink:href="#linear-gradient-4"/><linearGradient id="linear-gradient-15" x1="113.07" y1="162.29" x2="113.07" y2="151.2" gradientTransform="matrix(1, 0.1, -0.1, 0.99, -27.4, -128.59)" xlink:href="#linear-gradient-3"/><linearGradient id="linear-gradient-16" x1="113.07" y1="158.79" x2="113.07" y2="143.61" gradientTransform="matrix(0, 1, -1, 0, 220.76, -79.68)" xlink:href="#linear-gradient-4"/><linearGradient id="linear-gradient-17" x1="95.44" y1="256.72" x2="95.44" y2="245.63" gradientTransform="matrix(0.97, 0.23, -0.23, 0.97, 41.31, -214.8)" xlink:href="#linear-gradient-3"/><linearGradient id="linear-gradient-18" x1="95.44" y1="253.22" x2="95.44" y2="238.04" gradientTransform="matrix(0, 1, -1, 0, 322.84, -49.22)" xlink:href="#linear-gradient-4"/><linearGradient id="linear-gradient-19" x1="161.35" y1="-148.58" x2="161.35" y2="-159.67" gradientTransform="matrix(0.98, -0.2, 0.2, 0.98, -35.88, 212.67)" xlink:href="#linear-gradient-3"/><linearGradient id="linear-gradient-20" x1="161.35" y1="-152.09" x2="161.35" y2="-167.26" gradientTransform="matrix(1, 0, 0, 1, -71.41, 183.4)" xlink:href="#linear-gradient-4"/><linearGradient id="linear-gradient-21" x1="2083.49" y1="359.92" x2="2083.49" y2="348.82" gradientTransform="matrix(-0.96, -0.29, -0.29, 0.96, 2259.29, 316.38)" xlink:href="#linear-gradient-3"/><linearGradient id="linear-gradient-22" x1="2083.49" y1="356.41" x2="2083.49" y2="341.24" gradientTransform="matrix(0, -1, -1, 0, 512.49, 2128.44)" xlink:href="#linear-gradient-4"/><linearGradient id="linear-gradient-23" x1="2159.37" y1="61.69" x2="2159.37" y2="50.6" gradientTransform="matrix(-1, -0.04, -0.04, 1, 2285.27, 94.7)" xlink:href="#linear-gradient-3"/><linearGradient id="linear-gradient-24" x1="2159.37" y1="58.19" x2="2159.37" y2="43.01" gradientTransform="matrix(0, -1, -1, 0, 175.49, 2218.22)" xlink:href="#linear-gradient-4"/><linearGradient id="linear-gradient-25" x1="2189.04" y1="40.66" x2="2189.04" y2="29.57" gradientTransform="matrix(-1, 0.02, 0.02, 1, 2338.24, -29.16)" xlink:href="#linear-gradient-3"/><linearGradient id="linear-gradient-26" x1="2189.04" y1="37.15" x2="2189.04" y2="21.98" gradientTransform="matrix(-1, 0, 0, 1, 2339.64, 25.04)" xlink:href="#linear-gradient-4"/><linearGradient id="linear-gradient-27" x1="2146.91" y1="234.99" x2="2146.91" y2="223.9" gradientTransform="matrix(-0.98, -0.19, -0.19, 0.98, 2277.13, 213.51)" xlink:href="#linear-gradient-3"/><linearGradient id="linear-gradient-28" x1="2146.91" y1="231.49" x2="2146.91" y2="216.31" gradientTransform="matrix(0, -1, -1, 0, 349.33, 2178.86)" xlink:href="#linear-gradient-4"/><linearGradient id="linear-gradient-29" x1="2154.31" y1="45.78" x2="2154.31" y2="34.69" gradientTransform="matrix(-1, -0.01, -0.02, 1, 2281.64, 43.21)" xlink:href="#linear-gradient-3"/><linearGradient id="linear-gradient-30" x1="2154.31" y1="42.28" x2="2154.31" y2="27.1" gradientTransform="matrix(0, -1, -1, 0, 161.01, 2200.8)" xlink:href="#linear-gradient-4"/><linearGradient id="linear-gradient-31" x1="2170.9" y1="-52.63" x2="2170.9" y2="-63.73" gradientTransform="matrix(-1, 0.1, 0.1, 0.99, 2316.68, -128.59)" xlink:href="#linear-gradient-3"/><linearGradient id="linear-gradient-32" x1="2170.9" y1="-56.14" x2="2170.9" y2="-71.31" gradientTransform="matrix(-1, 0, 0, 1, 2321.65, 95.2)" xlink:href="#linear-gradient-4"/><linearGradient id="linear-gradient-33" x1="2165.75" y1="-210.51" x2="2165.75" y2="-221.61" gradientTransform="matrix(-0.97, 0.26, 0.25, 0.97, 2280.15, -320.25)" xlink:href="#linear-gradient-3"/><linearGradient id="linear-gradient-34" x1="2165.75" y1="-214.02" x2="2165.75" y2="-229.2" gradientTransform="matrix(-1, 0, 0, 1, 2295.25, 239.49)" xlink:href="#linear-gradient-4"/><linearGradient id="linear-gradient-35" x1="2227.45" y1="82.29" x2="2227.45" y2="71.19" gradientTransform="matrix(-1, -0.04, -0.04, 1, 2335.92, 27.24)" xlink:href="#linear-gradient-3"/><linearGradient id="linear-gradient-36" x1="2227.45" y1="78.78" x2="2227.45" y2="63.6" gradientTransform="matrix(0, -1, -1, 0, 179.38, 2236.74)" xlink:href="#linear-gradient-4"/></defs><title>gold</title><g id="Layer_2" data-name="Layer 2"><g id="Layer_3" data-name="Layer 3"><path class="cls-1" d="M108.68,221.67C48.75,221.67,0,178.56,0,125.56c0-20.67,7.55-40.74,21.39-57.24-5-3.82-7.54-8.16-7.54-13,0-9.7,10.21-17.42,30.35-22.95,17.24-4.73,40.06-7.33,64.26-7.33,45.57,0,94.61,9.47,94.61,30.28,0,4.71-2.44,9-7.28,12.75,14,16.54,21.57,36.69,21.57,57.45C217.36,178.56,168.61,221.67,108.68,221.67Z"/><ellipse class="cls-2" cx="108.68" cy="125.56" rx="102.71" ry="90.14"/><ellipse class="cls-3" cx="108.46" cy="55.36" rx="88.64" ry="24.31"/><path class="cls-4" d="M108.46,70.22c-19.59,0-38-2.08-51.75-5.86C42.39,60.43,37.3,55.81,37.3,53.05s5.08-7.38,19.41-11.31c13.78-3.78,32.16-5.86,51.75-5.86s38,2.08,51.75,5.86c14.33,3.93,19.41,8.55,19.41,11.31s-5.08,7.38-19.41,11.31C146.43,68.14,128,70.22,108.46,70.22Z"/><path class="cls-1" d="M59.64,59.26c-9.79,3-20.55,2.63-22.48-3.71l-1-3.35C34.22,45.87,43,39.59,52.75,36.61S73.31,34,75.23,40.32l1,3.35C78.17,50,69.43,56.29,59.64,59.26Z"/><path class="cls-5" d="M74.4,44.24c1.22,4-5.63,9.64-15.3,12.58s-18.5,2.07-19.72-1.94l-1-3.35,35-10.64Z"/><ellipse class="cls-6" cx="55.88" cy="46.2" rx="18.3" ry="7.59" transform="translate(-11.02 18.24) rotate(-16.9)"/><path class="cls-1" d="M105,73.7c-10.22.41-20.55-2.64-20.82-9.25L84,60.95c-.27-6.61,9.78-10.48,20-10.9s20.55,2.64,20.82,9.25l.14,3.5C125.24,69.41,115.19,73.29,105,73.7Z"/><path class="cls-7" d="M123,62.88c.17,4.19-7.88,7.91-18,8.32s-18.42-2.66-18.59-6.84l-.14-3.5,36.57-1.48Z"/><ellipse class="cls-8" cx="104.61" cy="60.11" rx="18.3" ry="7.59" transform="translate(-2.34 4.27) rotate(-2.31)"/><path class="cls-1" d="M69.2,70.16C59,69.91,48.86,66.19,49,59.58l.09-3.5c.16-6.62,10.44-9.83,20.67-9.57s20.34,4,20.17,10.58l-.09,3.5C89.7,67.21,79.42,70.41,69.2,70.16Z"/><path class="cls-9" d="M87.94,60.54c-.1,4.19-8.38,7.38-18.48,7.13s-18.21-3.85-18.11-8l.09-3.5L88,57Z"/><ellipse class="cls-10" cx="69.73" cy="56.58" rx="7.59" ry="18.3" transform="translate(11.44 124.89) rotate(-88.58)"/><path class="cls-1" d="M116.58,54.94c-8.88-5.08-16-13.15-12.72-18.9l1.74-3c3.29-5.75,13.86-3.69,22.74,1.39s16,13.15,12.72,18.9l-1.74,3C136,62.08,125.46,60,116.58,54.94Z"/><path class="cls-11" d="M137.64,55.38C135.56,59,126.76,57.9,118,52.88s-14.2-12-12.12-15.67l1.74-3,31.77,18.18Z"/><ellipse class="cls-12" cx="123.5" cy="43.25" rx="7.59" ry="18.3" transform="translate(24.63 128.96) rotate(-60.22)"/><path class="cls-1" d="M96.45,46.48c-10,1.92-20.71.42-22-6.08L73.84,37C72.6,30.46,82,25.15,92,23.23s20.71-.42,22,6.08l.66,3.44C115.87,39.25,106.5,44.56,96.45,46.48Z"/><path class="cls-13" d="M112.73,33.11c.79,4.12-6.63,9-16.55,10.88s-18.61.09-19.4-4l-.66-3.44,36-6.86Z"/><ellipse class="cls-14" cx="94.1" cy="33.1" rx="18.3" ry="7.59" transform="translate(-4.53 18.21) rotate(-10.8)"/><path class="cls-1" d="M103,53c8.88-5.08,16-13.15,12.72-18.9L114,31c-3.29-5.75-13.86-3.69-22.74,1.39s-16,13.15-12.72,18.9l1.74,3C83.52,60.09,94.09,58,103,53Z"/><path class="cls-15" d="M81.91,53.39C84,57,92.79,55.9,101.56,50.88s14.2-12,12.12-15.67l-1.74-3L80.17,50.34Z"/><ellipse class="cls-16" cx="96.06" cy="41.26" rx="18.3" ry="7.59" transform="translate(-7.81 53.15) rotate(-29.78)"/><path class="cls-1" d="M68,46.94C57.8,45.89,48,41.4,48.69,34.81l.36-3.49c.68-6.58,11.18-9,21.35-7.93s20,5.55,19.28,12.13L89.33,39C88.65,45.6,78.15,48,68,46.94Z"/><path class="cls-17" d="M87.41,38.82c-.43,4.17-8.93,6.7-19,5.66S50.58,39.22,51,35.05l.36-3.49,36.41,3.77Z"/><ellipse class="cls-18" cx="69.57" cy="33.45" rx="7.59" ry="18.3" transform="translate(29.14 99.21) rotate(-84.09)"/><path class="cls-1" d="M73.87,59.45c-10-2.37-19.07-8.11-17.53-14.55l.81-3.41c1.54-6.44,12.26-7.44,22.21-5.07S98.43,44.53,96.89,51l-.81,3.41C94.54,60.82,83.82,61.82,73.87,59.45Z"/><path class="cls-19" d="M94.2,53.93c-1,4.08-9.73,5.48-19.56,3.13s-17-7.55-16-11.63L59.41,42,95,50.52Z"/><ellipse class="cls-20" cx="77.21" cy="46.28" rx="7.59" ry="18.3" transform="translate(14.28 110.65) rotate(-76.58)"/><path class="cls-1" d="M92.53,37.07c-10,2.06-20.71.73-22-5.75l-.71-3.43c-1.34-6.48,8-11.93,18-14s20.71-.73,22,5.75l.71,3.43C111.83,29.56,102.55,35,92.53,37.07Z"/><path class="cls-21" d="M108.61,23.47c.85,4.1-6.49,9.08-16.39,11.12S73.61,35,72.76,30.85l-.71-3.43L107.9,20Z"/><ellipse class="cls-22" cx="89.98" cy="23.73" rx="18.3" ry="7.59" transform="translate(-2.94 18.64) rotate(-11.64)"/><path class="cls-1" d="M159.91,57.27c9.79,3,20.55,2.63,22.48-3.71l1-3.35c1.93-6.33-6.82-12.61-16.61-15.58S146.25,32,144.32,38.33l-1,3.35C141.38,48,150.12,54.3,159.91,57.27Z"/><path class="cls-23" d="M145.15,42.25c-1.22,4,5.63,9.64,15.3,12.58s18.5,2.07,19.72-1.94l1-3.35-35-10.64Z"/><ellipse class="cls-24" cx="163.67" cy="44.21" rx="7.59" ry="18.3" transform="translate(73.79 187.96) rotate(-73.1)"/><path class="cls-1" d="M124.54,71.71c10.22.41,20.55-2.64,20.82-9.25l.14-3.5c.27-6.61-9.78-10.48-20-10.9s-20.55,2.64-20.82,9.25l-.14,3.5C104.27,67.42,114.32,71.29,124.54,71.71Z"/><path class="cls-25" d="M106.46,60.89c-.17,4.19,7.88,7.91,18,8.32s18.42-2.66,18.59-6.84l.14-3.5-36.57-1.48Z"/><ellipse class="cls-26" cx="124.89" cy="58.12" rx="7.59" ry="18.3" transform="translate(61.78 180.57) rotate(-87.69)"/><path class="cls-1" d="M150.36,68.17c10.23-.25,20.34-4,20.17-10.58l-.09-3.5c-.16-6.62-10.44-9.83-20.67-9.57s-20.34,4-20.17,10.58l.09,3.5C129.85,65.21,140.13,68.42,150.36,68.17Z"/><path class="cls-27" d="M131.61,58.55c.1,4.19,8.38,7.38,18.48,7.13s18.21-3.85,18.11-8l-.09-3.5L131.53,55Z"/><ellipse class="cls-28" cx="149.82" cy="54.59" rx="18.3" ry="7.59" transform="translate(-1.31 3.73) rotate(-1.42)"/><path class="cls-1" d="M123.1,44.49c10,1.92,20.71.42,22-6.08l.66-3.44c1.24-6.5-8.12-11.81-18.17-13.73s-20.71-.42-22,6.08l-.66,3.44C103.68,37.26,113.05,42.57,123.1,44.49Z"/><path class="cls-29" d="M106.82,31.12c-.79,4.12,6.63,9,16.55,10.88s18.61.09,19.4-4l.66-3.44-36-6.86Z"/><ellipse class="cls-30" cx="125.45" cy="31.1" rx="7.59" ry="18.3" transform="translate(71.4 148.51) rotate(-79.2)"/><path class="cls-1" d="M126.32,59.35c10.23.15,20.48-3.16,20.58-9.78l.05-3.51c.1-6.62-10-10.23-20.27-10.39s-20.48,3.16-20.58,9.78L106,49C105.95,55.58,116.09,59.2,126.32,59.35Z"/><path class="cls-31" d="M108,49c-.06,4.19,8.08,7.71,18.18,7.86s18.35-3.12,18.41-7.31l.05-3.5L108,45.49Z"/><ellipse class="cls-32" cx="126.33" cy="45.76" rx="7.59" ry="18.3" transform="translate(78.69 171.39) rotate(-89.15)"/><path class="cls-1" d="M151.57,45c10.18-1.05,20-5.55,19.28-12.13l-.36-3.49c-.68-6.58-11.18-9-21.35-7.93s-20,5.55-19.28,12.13l.36,3.49C130.9,43.61,141.4,46,151.57,45Z"/><path class="cls-33" d="M132.14,36.83c.43,4.17,8.93,6.7,19,5.66s17.85-5.26,17.42-9.43l-.36-3.49-36.41,3.77Z"/><ellipse class="cls-34" cx="149.98" cy="31.46" rx="18.3" ry="7.59" transform="translate(-2.44 15.6) rotate(-5.91)"/><path class="cls-1" d="M132.43,31c9.89-2.61,18.87-8.56,17.18-15l-.89-3.39C147,6.21,136.29,5.46,126.4,8.07s-18.87,8.56-17.18,15l.89,3.39C111.8,32.81,122.54,33.56,132.43,31Z"/><path class="cls-35" d="M112,25.92c1.07,4.05,9.86,5.25,19.63,2.67s16.83-8,15.76-12l-.89-3.39-35.39,9.33Z"/><ellipse class="cls-36" cx="128.78" cy="17.87" rx="18.3" ry="7.59" transform="translate(-0.3 33.43) rotate(-14.77)"/><path class="cls-1" d="M107.86,23.69c10.22.41,20.53-2.65,20.8-9.26l.14-3.5C129.06,4.3,119,.44,108.8,0S88.27,2.69,88,9.3l-.14,3.5C87.6,19.42,97.65,23.28,107.86,23.69Z"/><path class="cls-37" d="M89.79,12.88c-.17,4.19,7.88,7.91,18,8.31s18.41-2.67,18.58-6.86l.14-3.5L89.93,9.38Z"/><ellipse class="cls-38" cx="108.2" cy="10.1" rx="7.59" ry="18.29" transform="translate(93.82 117.82) rotate(-87.73)"/></g></g></svg>