<svg xmlns="http://www.w3.org/2000/svg" xmlns:xlink="http://www.w3.org/1999/xlink" viewBox="0 0 169.91 243.32"><defs><style>.cls-1,.cls-21,.cls-3{fill:#fff;}.cls-10,.cls-11,.cls-12,.cls-13,.cls-14,.cls-18,.cls-2,.cls-20,.cls-21,.cls-23,.cls-24,.cls-25,.cls-26,.cls-3,.cls-4,.cls-5,.cls-6,.cls-7,.cls-8,.cls-9{stroke:#232323;}.cls-10,.cls-11,.cls-12,.cls-13,.cls-14,.cls-18,.cls-2,.cls-20,.cls-21,.cls-22,.cls-23,.cls-24,.cls-25,.cls-26,.cls-3,.cls-4,.cls-5,.cls-6,.cls-7,.cls-8,.cls-9{stroke-miterlimit:10;}.cls-10,.cls-14,.cls-2,.cls-24,.cls-25,.cls-26,.cls-3,.cls-4,.cls-5{stroke-width:0.75px;}.cls-2{fill:url(#linear-gradient);}.cls-19,.cls-4{fill:#232323;}.cls-5{fill:url(#linear-gradient-2);}.cls-11,.cls-12,.cls-13,.cls-23,.cls-6,.cls-7,.cls-8,.cls-9{stroke-width:0.5px;}.cls-6{fill:url(#linear-gradient-3);}.cls-7{fill:#007400;}.cls-15,.cls-8{fill:#e4b694;}.cls-9{fill:url(#linear-gradient-4);}.cls-10,.cls-18,.cls-20,.cls-22{fill:none;}.cls-11{fill:url(#linear-gradient-5);}.cls-12{fill:url(#linear-gradient-6);}.cls-13{fill:url(#linear-gradient-7);}.cls-14,.cls-17{fill:#d89a6e;}.cls-16{fill:#f1dac9;}.cls-18{stroke-width:0.83px;}.cls-20{stroke-width:0.41px;}.cls-21{stroke-width:0.21px;}.cls-22{stroke:#000;stroke-width:1.18px;}.cls-23{fill:url(#linear-gradient-8);}.cls-24{fill:url(#linear-gradient-9);}.cls-25{fill:url(#linear-gradient-10);}.cls-26{fill:url(#linear-gradient-11);}</style><linearGradient id="linear-gradient" x1="61.44" y1="201.66" x2="61.44" y2="182.38" gradientTransform="translate(-15.66 378.3) rotate(-139.77)" gradientUnits="userSpaceOnUse"><stop offset="0" stop-color="#d68e0f"/><stop offset="1" stop-color="#f7e114"/></linearGradient><linearGradient id="linear-gradient-2" x1="99.11" y1="222.26" x2="99.11" y2="202.99" gradientTransform="translate(-113.88 114.3) rotate(-40.23)" xlink:href="#linear-gradient"/><linearGradient id="linear-gradient-3" x1="81.85" y1="147.85" x2="81.85" y2="212.55" gradientUnits="userSpaceOnUse"><stop offset="0" stop-color="#318c4d"/><stop offset="1" stop-color="#1b4c29"/></linearGradient><linearGradient id="linear-gradient-4" x1="129.76" y1="104.13" x2="129.76" y2="172.66" xlink:href="#linear-gradient-3"/><linearGradient id="linear-gradient-5" x1="62.82" y1="97.63" x2="62.82" y2="165.13" xlink:href="#linear-gradient-3"/><linearGradient id="linear-gradient-6" x1="97.16" y1="134.08" x2="97.16" y2="114.73" gradientTransform="matrix(1, 0, 0, 1, 0, 0)" xlink:href="#linear-gradient"/><linearGradient id="linear-gradient-7" x1="97.16" y1="129.24" x2="97.16" y2="119.57" gradientTransform="translate(215.89 228.43) rotate(169.21)" xlink:href="#linear-gradient"/><linearGradient id="linear-gradient-8" x1="-1866.18" y1="125.49" x2="-1798.73" y2="125.49" gradientTransform="matrix(1.12, 0.14, -0.15, 1.2, 2182.34, 173.79)" gradientUnits="userSpaceOnUse"><stop offset="0" stop-color="#232323"/><stop offset="0.11" stop-color="#2d2d2d"/><stop offset="0.45" stop-color="#484848"/><stop offset="0.76" stop-color="#585858"/><stop offset="1" stop-color="#5e5e5e"/></linearGradient><linearGradient id="linear-gradient-9" x1="133.46" y1="3" x2="133.46" y2="55.47" xlink:href="#linear-gradient-3"/><linearGradient id="linear-gradient-10" x1="125.64" y1="51.45" x2="125.64" y2="19.72" gradientTransform="matrix(1, 0, 0, 1, 0, 0)" xlink:href="#linear-gradient"/><linearGradient id="linear-gradient-11" x1="123.9" y1="23.29" x2="123.9" y2="67.57" xlink:href="#linear-gradient-3"/></defs><title>henrechaun</title><g id="Layer_2" data-name="Layer 2"><g id="Layer_3" data-name="Layer 3"><path class="cls-1" d="M108.43,243.32c-4.35-.1-8.81-2.11-13.24-6-3.63-3.17-4.36-7.51-4.95-11-.09-.55-.18-1.09-.28-1.6l-.73.44L87.59,223c-.43-.58-4.25-5.7-5.36-8.28l-.92-2.16,1.87-1.42c.47-.36,1.36-1,1.71-1.37s4.46-4,8.48-4.58l1.75-.27.69-.81a8,8,0,0,1-.36-1.07l-.71-2.8,2.52-.74a37.34,37.34,0,0,0,3.57-4.77,45,45,0,0,1,5.9-7.55c-3.83-4.22-12.52-12.57-19.28-15.06l-.17-.06c-7.92-2.62-19.95-3.8-26-3.8h-.37c1.58,3.67,5.05,9.7,6.78,11.09l2.22,1.78-1.62,2.34a13.41,13.41,0,0,1-.93,1.14c4,.68,7.9,4.16,8.34,4.56s1.24,1,1.71,1.37l1.87,1.42-.92,2.16c-1.11,2.59-4.93,7.71-5.36,8.28l-1.63,2.17-.73-.44c-.1.51-.19,1.05-.28,1.6-.59,3.49-1.32,7.83-4.95,11-4.43,3.88-8.89,5.89-13.24,6h-.23c-3.63,0-8.65-2-10.54-5.14a6.13,6.13,0,0,1-.79-5.21c1-3.66,4.87-6.8,7.4-8.3a26.19,26.19,0,0,1,4.63-7.83l-.2-.31-1.54,1-1.48-3c-.58-1.17-4.32-9.74-7.69-17.94-7.23-17.58-6.83-18.56-6.28-19.91,1.79-4.41,11.1-7.7,27.68-9.79a7.85,7.85,0,0,1,.77-1.6,32.27,32.27,0,0,1,2.2-2.8c1.31-1.57,4.79-5.75,5-7.14a39.71,39.71,0,0,0-.87-7,26,26,0,0,0-3.09-.17c-1.74,0-3.52.13-5.41.27-2,.15-4.16.3-6.4.3H54.16c-4.54-.11-10.38-3.08-15.54-5.69-2.55-1.29-6-3.06-7.13-3.15l-7.62-.63,4.84-3.8-.47-.29c-.45.31-.95.67-1.46,1.06a25,25,0,0,1-8.43,4.57,21.4,21.4,0,0,1-5.3.82c-4.28,0-5.42-2.47-5.72-3.54a4.53,4.53,0,0,1-.14-.75,3.83,3.83,0,0,1-3.42-2.83,3.6,3.6,0,0,1-.08-1.08,4.07,4.07,0,0,1-2-2.24,3.87,3.87,0,0,1,.18-3.17,4.22,4.22,0,0,1,.52-.78A5.08,5.08,0,0,1,1,105.58a3.94,3.94,0,0,1-1-3.13c.56-4.47,6-5,11.8-5.58,1.51-.15,3.08-.3,4.55-.52l1.93-.26C16.66,95,14.78,93.5,14.41,91a10.17,10.17,0,0,1,2-7.76,4.14,4.14,0,0,1,3.18-1.62,3.49,3.49,0,0,1,.78.09c2.35.54,3.1,3,3.82,5.42.08.26.18.6.27.88.45.21,1.19.46,1.68.64a10.43,10.43,0,0,1,3.25,1.54,6.29,6.29,0,0,1,1.65,2.07,15.05,15.05,0,0,0,1.38,2.1A17.83,17.83,0,0,0,35,96.75l1.59.45.37.24c5.16,3.26,14.88,8.43,19,8.43a2.87,2.87,0,0,0,.43,0c6.78-1.07,10.12-4.94,12.56-7.78,1.58-1.84,3-3.43,5.09-3.43.37,0,1,0,2,.08a10.41,10.41,0,0,1-.69-5.41,18.66,18.66,0,0,1,1.9-5.57,5.32,5.32,0,0,1-.82-2.53l0-.73h-.31l0-3.06s0-1,0-1.38l.07-.73.08-.73-3.11-.86a23.8,23.8,0,0,1,.92-4.57l-.15,0a10.87,10.87,0,0,1,0-1.91L74,67.3l2.1-10.58a38.56,38.56,0,0,1,5.7-13.43l-.65-.59A14.59,14.59,0,0,1,86,37.55l-.2,0,.91-.41a21.32,21.32,0,0,1,4.51-2l1.23-.55c-2.85-.53-6.79-2.19-8-5.24a5.21,5.21,0,0,1,1.12-5.53,9.06,9.06,0,0,1,6.85-3.45,11,11,0,0,1,5.39,1.62,33.22,33.22,0,0,1,4.62,3.71,14.23,14.23,0,0,0,3-4c.34-.81.12-2.33-.11-3.94C104.79,14,104.06,9,108.19,3.83,110.22,1.29,113.86,0,119,0c10,0,24,4.78,29.09,7.46,6.54,3.47,22.32,21.31,21.79,27-.31,3.35-3.76,5.06-7.74,7-2.92,1.45-6.24,3.09-7.56,5.05a61.49,61.49,0,0,0-3.21,5.37A20.49,20.49,0,0,1,155.15,54c4,3,10.77,8.1,8,13.68a5.15,5.15,0,0,1-4.79,2.88h0a11.35,11.35,0,0,1-4.5-1.16,30.77,30.77,0,0,1,.32,3.45l-.71.08a89.32,89.32,0,0,1,.73,14.44L153.46,96l-.8-1.22L151,101.71l-2.11-3.24-3.79,11.46-3.3-6.15a7.23,7.23,0,0,1-.47-1.17,9.83,9.83,0,0,1-5,1.45,8,8,0,0,1-2.13-.29,7.7,7.7,0,0,1-1.25-.44,5.7,5.7,0,0,1-1.75-1.21c-1.45,1.43-2.76,2.82-3.93,3.9a38.39,38.39,0,0,1,8.12,3.91h0c.23,0,.45-.17.67-.19a9.76,9.76,0,0,1,1.2-.15,4.62,4.62,0,0,1,2.76.8c1.58,1.13,13.56,16.64,13.68,16.8,12.79,16.62,12.79,18,12.79,19.28,0,4.36-4.32,8.58-12.83,12.57-5.7,2.67-12.65,4.84-15.49,4.84a4.18,4.18,0,0,1-1.91-.4A8.58,8.58,0,0,1,133.1,160a58,58,0,0,1-9.63,3.67,27,27,0,0,1-1.18,5.19,61.88,61.88,0,0,1,6.26,25.65c.08,2.22-1.63,3.6-5.38,6.62-3.92,3.16-9.85,7.93-10.88,12.14l-.94,3.83-2.54-1.43a14.24,14.24,0,0,0-.83,1.18,26.19,26.19,0,0,1,4.63,7.83c2.54,1.5,6.4,4.64,7.4,8.3a6.13,6.13,0,0,1-.79,5.21c-1.9,3.18-6.91,5.14-10.54,5.14ZM128,139.1c1.63.42,3.21.94,4.37,1.35a16.85,16.85,0,0,0,3.2-1.36c-2.13-1.07-4.08-2-5.25-2.49C129.77,137.17,128.94,138.06,128,139.1Z"/><polygon class="cls-1" points="84.42 104.13 96.81 103.52 116.06 111.11 111.48 145.02 91.63 153.94 76.29 139.69 84.42 104.13"/><rect class="cls-2" x="56.42" y="183.64" width="10.05" height="16.75" transform="translate(232.37 298.94) rotate(139.77)"/><path class="cls-3" d="M73.65,191.38c.58.53,1.92,1.54,1.92,1.54-1,2.33-5,7.67-5,7.67l-1.58-1c-2.33,3.75-.92,10.75-5.58,14.83s-8.47,5.19-11.33,5.25-7-1.67-8.17-3.75"/><path class="cls-4" d="M73.65,191.38c-1.33,3.42-5.67,6.58-6.58,8.5s-1.58,10.08-5.62,13.5-15,6.08-17.54,2.58,3.75-8.58,6.58-9.83c.42-2.33,3.67-7.83,5.17-8.58s-1.75-4.62-1.75-4.62A6.11,6.11,0,0,1,58.49,191a21.16,21.16,0,0,1,1.83,3.83c2.5-.58,6.58-5.33,6.42-7.33C70,188,73.65,191.38,73.65,191.38Z"/><rect class="cls-5" x="94.09" y="204.25" width="10.05" height="16.75" transform="translate(160.76 -13.72) rotate(40.23)"/><path class="cls-3" d="M86.91,212c-.58.53-1.92,1.54-1.92,1.54,1,2.33,5,7.67,5,7.67l1.58-1c2.33,3.75.92,10.75,5.58,14.83s8.47,5.19,11.33,5.25,7-1.67,8.17-3.75"/><path class="cls-6" d="M38.19,157.22c2.82-6.94,44-11.11,55.88-8.66l0-.13c9.07-.2,30.37,15.38,31.43,46.18.07,2-14.18,9.82-16.18,17.94,0,0-9.78-5.48-11-10.25,2.73-.81,8.75-13.87,12.86-14.32-.94-1.71-13.23-15.17-22.74-18.68h0c-11-3.71-30-4.76-31.42-3.58,0,3.5,6.5,14.25,8.75,16-2.87,4-13.75,10.88-13.75,10.88C51.07,190.59,37.43,159.08,38.19,157.22Z"/><path class="cls-7" d="M99.56,159.3c-2.6,1.14-10,5.83-10,5.83-.17-2.17-1.5-10.67-1.5-10.67s.67-11.83,1.83-12.17,17.5-5.83,19-10.92S99.56,159.3,99.56,159.3Z"/><path class="cls-7" d="M90.57,150.8c-.47,3.37-.38,7.22-1.69,9a18,18,0,0,1-4.47,3.64c0-3.42-2.35-7-2.35-7l1.17-33.17s9.83,17.83,9.5,20.67S90.94,148.18,90.57,150.8Z"/><path class="cls-8" d="M135.49,144.92c-4.37-2-10.5-3.87-12.75-3.5a24.72,24.72,0,0,0-3.37.75l5,1c-4.75.15-16.37,1.65-16.37,4s12.38.63,12.38.63-13,3-13,5.13,13,0,13,0-11.62,1.63-11.37,2.88,11.63-.25,12.44.63-7.34,3.5-7.19,4.38c.63,3.63,19.5-3,22.13-6.62S135.49,144.92,135.49,144.92Z"/><path class="cls-4" d="M86.91,212c1.33,3.42,5.67,6.58,6.58,8.5s1.58,10.08,5.62,13.5,15,6.08,17.54,2.58-3.75-8.58-6.58-9.83c-.42-2.33-3.67-7.83-5.17-8.58s1.75-4.62,1.75-4.62a6.11,6.11,0,0,0-4.59-1.87,21.16,21.16,0,0,0-1.83,3.83c-2.5-.58-6.58-5.33-6.42-7.33C90.57,208.66,86.91,212,86.91,212Z"/><path class="cls-9" d="M115.7,169.15c-2.5-3.33-16.3.15-19.63-.18,1.17-3.79,1-19.5,1.67-22.33s8.17-14.33,8.5-18.83,1.58-23.67,1.58-23.67c9.08.67,23.92,6.33,25.58,7.83s3.67,0,4.83.83,25.22,31.17,25.22,33.67c0,7.5-23.88,15.33-25.88,14.33s-6.33-10.67-4.83-17.33c4.17-1,8.83-4.67,8.83-4.67s-10.62-5.67-11.81-5.5-8.86,9.17-9,11.33c-.14,1.83-1.22,12.25-.25,18.44.18,1.13-2,8.49-2.87,9.59A4.32,4.32,0,0,0,115.7,169.15Z"/><path class="cls-10" d="M121.9,113.63c1.83,4,4.67,8,6.83,9-2.5,1.67-10.33,5.67-11.83,6a14.45,14.45,0,0,0,9.17.83c.62,6.63-27,17-26.5,20.17"/><path class="cls-11" d="M65.15,153.72c.16-3.26.21-5.79,1.25-7.42,1.17-1.83,7.5-8.33,7.67-11.33s-1.33-9.83-1.33-9.83c-6-1.33-11.83.17-18.5,0s-18.5-8.5-22.5-8.83c6.17-4.83,6-15.33,3.67-16.33,0,0,15.46,9.78,21.5,8.83C68.57,107,71.74,97.63,74.08,97.63c1.85,0,16.65,1.17,19.82,0-2.67,6.5-6.83,17-6.83,20.33s-.5,20.33-1.17,25.67-2.5,19.67-3.83,21.5c-2.33-3.67-9.17-16.5-11.33-15.5-1.47.68-4.59,2.34-5.58,4.08"/><path class="cls-10" d="M84.4,144c.5-3.5-14.67-26-17.67-28.33,4.67,0,13.5,2,14.17,0s-6.33-8-6.33-8c2.17-1.83,6.82-3.09,7.67-6.33"/><path class="cls-8" d="M30.07,96.22c-1.92-2.54-1.55-2.85-2.55-3.68s-5-1.54-5.54-2.7-1.26-4.93-2.24-5.16-2.83,2.79-2.37,5.92,6.95,4.11,6.2,7c-.33,1.28-1.87,1-6.75,1.69-6.25.91-13.46.72-13.82,3.5-.33,2.59,10.2,3,16.33.33-4.93,3-15.86,3.71-14.86,6.37s12.36-.73,15.23-2.71c-6.09,2.52-13.27,5.23-13,6.44s9.6,1,15-3.75c-2.44,3.89-12.08,5-11.48,7.17.47,1.7,3.5,1.64,7.36.62,4.18-1.1,7.4-4.33,9.82-5.75s5.42.17,5.42.17,4.19-10,2.83-10.83A28.62,28.62,0,0,1,30.07,96.22Z"/><path class="cls-12" d="M86.15,114.81s8.8,1.68,11.7,6c4.29-3,13.09-1.29,13.09-1.29,2,.38,3.33,2,3,3.54l-1.67,8.75c-.3,1.58-2.14,2.55-4.12,2.18,0,0-8.8-1.68-11.7-6-4.29,3-13.09,1.29-13.09,1.29-2-.38-3.33-2-3-3.54L82,117C82.33,115.41,84.17,114.44,86.15,114.81Z"/><rect class="cls-13" x="93.77" y="119.55" width="6.78" height="9.71" rx="3.39" ry="3.39" transform="translate(169.32 264.8) rotate(-169.21)"/><path id="Glasses" d="M95.1,75.47l-15.73-.31c-.11,1,0,.1-.12,1.17,0,.28,0,1.11,0,1.11l15.86-.19v-.62l11.12-.3v-.89Z"/><path class="cls-14" d="M83.3,77.48c-1.11,5.3-4,7.21-4.9,12.32S84.52,102,86,103.23s7.19,8.58,12,9.7,18.67-3.38,22.13-5.3,13.62-12.58,13.62-12.58c-1,2.85-1.77,4.61.32,5.56,3.86,1.76,8.68-2.09,9.38-5.43s-3-7.66-5.08-8-3.91,1.51-4.25-.89.49-13.46-1.3-15.51-4.63-10.46-10.09-11.39-27.58-9.09-33.51-6S80,65.07,80.88,66.85,84.39,72.29,83.3,77.48Z"/><path class="cls-15" d="M83.3,77.48c-1.11,5.3-4,7.21-4.9,12.32S84.52,102,86,103.23s7.19,8.58,12,9.7c2.4.55,7-.27,11.47-1.48.61-2.75,8.43-10.18,10.33-14.35,2.54-5.58-1.07-12.89-4.37-15.5-3.51-2.78-9.06,1.38-13.39-.16-2.5-.89-2.8-3.16-4.84-3.65-4.63-1.12-3.71,4.08-8.47,2.7A14,14,0,0,1,83.3,77.48Z"/><path class="cls-16" d="M83.13,84.35c2.93-.45,3.66,1.72,3.66,1.72a6.52,6.52,0,0,0-3.34-.17,5.73,5.73,0,0,0-2.1,1.46C81.52,85.49,81.95,84.53,83.13,84.35Z"/><path class="cls-16" d="M93.52,86.21c-1,1.23-.3,2.47.51,2.64a2.57,2.57,0,0,0,2.43-2c.13-1.14-.45-2.42-1.17-2.26S94.52,84.94,93.52,86.21Z"/><path class="cls-16" d="M113.48,87.74A3.76,3.76,0,0,1,116.4,91c-2.23-.47-2.4-1.66-3.88-2.14a13.25,13.25,0,0,0-3.84-.33C109,86.81,111.58,87.23,113.48,87.74Z"/><path class="cls-17" d="M95.41,101.91a3.64,3.64,0,0,0-.59,1.33c-.21,1,.68,2,2,2.29a2.18,2.18,0,0,0,2.74-1.3,1.77,1.77,0,0,0-1.4-2.31"/><path class="cls-18" d="M98.51,101.72c-1.47,1-3.94.13-5-1"/><path class="cls-18" d="M89.2,94.23c1.49-.06,3.06,3.81,6.82,4.54s7.07-3,9.5-2.5c.71.15,1.41.82,1.82.91"/><path class="cls-19" d="M94.84,89.75a1.79,1.79,0,0,1-1.45,1.39c-1.18.12-1.75-1.22-1.75-1.22A5.06,5.06,0,0,0,94.84,89.75Z"/><path class="cls-19" d="M100.54,92.09a1.79,1.79,0,0,1-2,.22c-1-.62-.66-2-.66-2A5.08,5.08,0,0,0,100.54,92.09Z"/><path class="cls-20" d="M83.38,77.5c-1.11,5.3-4,7.21-4.9,12.32S84.6,102,86.13,103.25s7.19,8.58,12,9.7,18.67-3.38,22.13-5.3S133.9,95.07,133.9,95.07c-1,2.85-1.77,4.61.32,5.56,3.86,1.76,8.68-2.09,9.38-5.43s-3-7.66-5.08-8-3.91,1.51-4.25-.89.49-13.46-1.3-15.51-4.63-10.46-10.09-11.39-27.58-9.09-33.51-6S80.06,65.08,81,66.87,84.47,72.31,83.38,77.5Z"/><path class="cls-21" d="M87.71,76.56a3.38,3.38,0,0,0,.11,5.81h0a23.25,23.25,0,0,0,3.06.14h0A3.4,3.4,0,0,0,92,81.68h0A4.6,4.6,0,0,0,87.71,76.56Z"/><path class="cls-19" d="M90.07,77.4A4.22,4.22,0,0,1,92,80.16h0a1.69,1.69,0,1,1-1.91-2.77Z"/><path class="cls-18" d="M84.3,81.77a24.05,24.05,0,0,0,7.61.65,4.63,4.63,0,0,0-4.27-5.86c-2-.16-5.24,2.85-6.16,2.51"/><path class="cls-21" d="M113.37,79.74c2.4.87,4.38,3,4.32,5.52h0a3.63,3.63,0,0,1-1,.91h0a13.59,13.59,0,0,1-4.52-.68,3.62,3.62,0,0,1,1.23-5.75Z"/><path class="cls-19" d="M115.57,81a5.74,5.74,0,0,1,2,3.27h0a1.93,1.93,0,1,1-2-3.27Z"/><path class="cls-18" d="M105.26,82.08c2.1.57,4.6-3.31,7.53-2.52s5.44,3.5,4.79,6.57a12.35,12.35,0,0,1-8.52-2.2"/><path d="M106.84,76.38a37.39,37.39,0,0,1,5,.39c3.84.53,9.47,2.86,9.66,4s-.58,6.73-1.89,8.35c-.58.72-2.29.93-4.09.93a41.3,41.3,0,0,1-5.2-.4c-.92-.13-7.45-1.7-8.51-3.36s-1.66-7.43-.45-8.63c.8-.8,2.62-1.28,5.46-1.28m0-.79h0c-3,0-5,.51-6,1.51-1.62,1.61-.76,7.89.35,9.61,1.39,2.16,9,3.7,9.06,3.71a40.78,40.78,0,0,0,5.3.41c2.54,0,4-.39,4.7-1.22,1.52-1.87,2.25-7.78,2.05-9-.32-1.91-7-4.19-10.33-4.65a38.3,38.3,0,0,0-5.13-.39Z"/><path d="M83.35,72.61a32.43,32.43,0,0,1,4.21.38c3.12.43,7.53,2.54,8,3.72s-.22,5.91-1.78,7.93c-.64.82-2,1.08-3.44,1.08A24.37,24.37,0,0,1,85.21,85c-1.06-.24-5.55-1.44-5.7-4s-.46-6.73.87-7.76a5.07,5.07,0,0,1,3-.66m0-.79h0a5.62,5.62,0,0,0-3.45.82c-1.47,1.14-1.41,4.32-1.19,8l0,.39c.18,3.07,4.87,4.39,6.31,4.72h.05a24.73,24.73,0,0,0,5.21.7c2,0,3.35-.47,4.06-1.39C96,83,96.8,77.92,96.26,76.44c-.64-1.74-5.73-3.84-8.59-4.23a33.19,33.19,0,0,0-4.31-.39Z"/><path class="cls-22" d="M95.71,78.15a18.42,18.42,0,0,1,5,.95"/><polygon points="136.93 83.09 121.44 82.79 121.08 85.07 136.9 84.87 136.91 84.25 148.03 83.95 148.04 83.06 136.93 83.09"/><path class="cls-23" d="M86.83,56.35c-1.91,4.9-2,8.11.3,12.44.32-6.67.86-9.91,3-12-.08,5.13-.56,8.89,2.57,12.63a25.11,25.11,0,0,1-.16-6.82,16.33,16.33,0,0,0,2.81,5.87c-.81-5.8,1.73-13.75,1.73-13.75.45,4.93.05,8.09,2.47,14.46-.08-7.5,3.42-11.33,3.42-11.33s-3.17,7.71-.28,13.75a72.63,72.63,0,0,1,4.73-12.27s-1.6,6.41-.05,10.47a30.49,30.49,0,0,1,2.6-7,27.41,27.41,0,0,0-.84,6.69,75.2,75.2,0,0,1,4.24-9.57s-.39,9,1.16,13c.91-7.23,4-9.66,8.29-9.56,3.09.07,5,2.28,4.43,7.54s-2.24,5-3.84,6.86c2.52,3.63,6.39,5.17,6.34,9.12s.2,12.61.2,12.61l1.14-2.24-.21,1.63,1.29-2,.23,3s4-9.82,5.84-10.51,4.45.29,4.86,5.87,1.32,7.25,1.32,7.25L148,91.62l1.73,2.65c.71-2.93-.08-9.55-.08-9.55l1.58,2.4c.34-4.09-.58-14.65-1.21-16.47a5.08,5.08,0,0,1,1.17,2.26s-.17-9.57-5.56-17.14c1.73,1.23,1.75,1.78,1.75,1.78s-6.47-17.44-19.19-20.61a3.11,3.11,0,0,1,.84,1.48,38.45,38.45,0,0,0-12.9-5.21c.86.66,1.64,1.31,1.64,1.31s-11.62-.36-14.35.86a9.32,9.32,0,0,0,1.85,1s-7.06-1.17-10.24.27c.81.19,1.8.32,1.8.32s-9.38.56-13,7.18A18.89,18.89,0,0,1,85.77,43a35.87,35.87,0,0,0-6.68,14.32,8.48,8.48,0,0,1,2.47-1.89s-4.82,8.95-4.49,13.49a11.37,11.37,0,0,1,1.18-2.24,30.68,30.68,0,0,0-2,7.29C79.59,67.29,86.83,56.35,86.83,56.35Z"/><path class="cls-19" d="M93.26,108.52a17.6,17.6,0,0,1-1.13,3.3.62.62,0,0,0,1.07.63l2.17-3-1.13-.48a28.77,28.77,0,0,0-1.27,4c-.16.65.82,1.14,1.13.48a17.09,17.09,0,0,1,2.24-3.57l-1-.6a44.11,44.11,0,0,0-1,4.72c-.11.65.76,1.13,1.13.48a43.28,43.28,0,0,0,2.34-4.7l-1.16-.31c.11,1.76-.49,3.45-.26,5.2.08.64,1,.91,1.22.16L98.73,110l-1.22-.16.34,4.67a.62.62,0,0,0,1.22.16c.42-1.49.77-3,1.06-4.52L98.92,110a19.68,19.68,0,0,0,.15,4.62c.09.62,1.07.57,1.2,0l.9-3.9H100l.44,3a.63.63,0,0,0,1.2,0l.55-3.14c.14-.78-1.06-1.12-1.2-.33l-.55,3.14h1.2l-.44-3c-.09-.62-1.07-.57-1.2,0l-.9,3.9h1.2a18.26,18.26,0,0,1-.1-4.29.62.62,0,0,0-1.22-.16c-.29,1.52-.64,3-1.06,4.52l1.22.16-.34-4.67c0-.67-1-.88-1.22-.16l-1.19,4.82,1.22.16c-.23-1.75.38-3.45.26-5.2,0-.55-.89-.93-1.16-.31a43.28,43.28,0,0,1-2.34,4.7l1.13.48a44.11,44.11,0,0,1,1-4.72c.16-.56-.63-1.1-1-.6A18.42,18.42,0,0,0,93,112.78l1.13.48a28.77,28.77,0,0,1,1.27-4c.28-.7-.76-1-1.13-.48l-2.17,3,1.07.63a19.28,19.28,0,0,0,1.26-3.6c.19-.78-1-1.11-1.2-.33Z"/><path class="cls-3" d="M30.49,112.42c4.16-5.26,4.92-10.24,3.18-12.94l1.74.49c2.06.88,2.43,9.14-1.73,14.4Z"/><path class="cls-24" d="M146.32,55.47a70.83,70.83,0,0,1,5.78-10.6c3.48-5.16,14.48-7.27,14.8-10.69s-13.34-20.43-20.21-24.07S115.89-1,110.54,5.7s-.59,12.91-2.34,17.08S100.48,31,100,31.9s13.69,13.77,19.24,15.6S146.32,55.47,146.32,55.47Z"/><path class="cls-4" d="M146.32,55.47a70.83,70.83,0,0,1,5.78-10.6C154,42.1,140,29.81,128,24.23c-10.4-4.81-16.7-8.49-19.76-1.45-1.75,4.17-7.72,8.24-8.18,9.12s13.69,13.77,19.24,15.6S146.32,55.47,146.32,55.47Z"/><path class="cls-25" d="M144.93,33.91c-.5-1.81-22.58-17-31.17-13.74-4.12,1.55-7.43,11.94-7.43,11.94l.81,4.74,16.46,10.68L136,51.45S145.43,35.72,144.93,33.91Z"/><path class="cls-4" d="M134.07,39.37c-.47,2,0,5.43-1.31,5.49S110.66,36.2,110.56,35s3.3-9.89,6-11.11,21.35,10.17,21.85,11.22C136.16,36.12,134.55,37.32,134.07,39.37Z"/><path class="cls-26" d="M160.45,66.35c-2.21,4.44-12.42-4.47-17.39-6.66S121.21,54,115.81,50.42,97,31.93,93.83,31.67,85,28.81,87.76,25.72s5.45-2.94,8.53-1.2,18.34,17.3,23.77,19.64,28.41,8.59,33.28,12.25S161.9,63.45,160.45,66.35Z"/></g></g></svg>