<svg xmlns="http://www.w3.org/2000/svg" xmlns:xlink="http://www.w3.org/1999/xlink" viewBox="0 0 825.56 834.99"><defs><style>.cls-1{fill:#fff;}.cls-10,.cls-11,.cls-12,.cls-13,.cls-14,.cls-2,.cls-3,.cls-4,.cls-5,.cls-6,.cls-7,.cls-8,.cls-9{stroke:#232323;stroke-miterlimit:10;stroke-width:2.22px;}.cls-2{fill:url(#linear-gradient);}.cls-3{fill:url(#linear-gradient-2);}.cls-4{fill:url(#linear-gradient-3);}.cls-5{fill:url(#linear-gradient-4);}.cls-6{fill:url(#linear-gradient-5);}.cls-7{fill:url(#linear-gradient-6);}.cls-8{fill:url(#linear-gradient-7);}.cls-9{fill:url(#linear-gradient-8);}.cls-10{fill:url(#linear-gradient-9);}.cls-11{fill:url(#linear-gradient-10);}.cls-12{fill:url(#linear-gradient-11);}.cls-13{fill:url(#linear-gradient-12);}.cls-14{fill:url(#linear-gradient-13);}</style><linearGradient id="linear-gradient" x1="859.16" y1="224.98" x2="859.16" y2="1.82" gradientTransform="matrix(-1.01, -0.05, -0.05, 1, 1296.36, 47.44)" gradientUnits="userSpaceOnUse"><stop offset="0" stop-color="#919191"/><stop offset="1" stop-color="#d7e0ff"/></linearGradient><linearGradient id="linear-gradient-2" x1="764.48" y1="355.91" x2="764.48" y2="132.76" xlink:href="#linear-gradient"/><linearGradient id="linear-gradient-3" x1="953.99" y1="331.23" x2="953.99" y2="127.29" xlink:href="#linear-gradient"/><linearGradient id="linear-gradient-4" x1="691.37" y1="499.57" x2="691.37" y2="274.82" xlink:href="#linear-gradient"/><linearGradient id="linear-gradient-5" x1="877.14" y1="503.53" x2="877.14" y2="271.35" xlink:href="#linear-gradient"/><linearGradient id="linear-gradient-6" x1="1031.18" y1="488.19" x2="1031.18" y2="244.14" xlink:href="#linear-gradient"/><linearGradient id="linear-gradient-7" x1="647.54" y1="668.59" x2="647.54" y2="417.11" xlink:href="#linear-gradient"/><linearGradient id="linear-gradient-8" x1="829.58" y1="668.76" x2="829.58" y2="442.99" xlink:href="#linear-gradient"/><linearGradient id="linear-gradient-9" x1="1037.1" y1="659.34" x2="1037.1" y2="417.11" xlink:href="#linear-gradient"/><linearGradient id="linear-gradient-10" x1="3421.28" y1="5375.5" x2="3421.28" y2="5116.25" gradientTransform="matrix(0.05, -1, -1.01, -0.05, 5806.47, 4410.66)" xlink:href="#linear-gradient"/><linearGradient id="linear-gradient-11" x1="974.83" y1="1170.94" x2="974.83" y2="933.86" gradientTransform="matrix(-0.99, -0.21, -0.21, 0.98, 1723.3, -104.55)" xlink:href="#linear-gradient"/><linearGradient id="linear-gradient-12" x1="939.94" y1="820.87" x2="939.94" y2="602.88" xlink:href="#linear-gradient"/><linearGradient id="linear-gradient-13" x1="1102.72" y1="844.46" x2="1102.72" y2="578.87" xlink:href="#linear-gradient"/></defs><title>rocks</title><g id="Layer_2" data-name="Layer 2"><g id="Hills"><path class="cls-1" d="M403.27,230.44c-20.14,0-47.42-15.42-61.89-24.63-20.24-12.87-39.25-28.57-46.21-38.18-11.08-15.28,8.23-37.54,25.26-57.17,5.92-6.83,14-16.18,14.61-19.17,2.2-11.41,24.78-32.14,29.29-36.18C374.76,45.75,394.1,30,406.36,30h.46c15,0,50.71-17,65.2-27.71A11.37,11.37,0,0,1,478.88,0c10.33,0,18.71,13.7,29.32,31.06,8.1,13.25,17.28,28.27,25,31.61,17.89,7.71,17.45,48.67,16.89,61-.37,8.12-3,48.86-17.67,53.67-4.6,1.51-16.55,7.36-30.38,14.14-30.71,15.06-72.78,35.67-94,38.61a35.25,35.25,0,0,1-4.82.31Z"/><path class="cls-2" d="M531,67.75c-20.46-8.82-41-71.78-55.71-61s-52.11,29-68.82,28.79-63.58,44.15-66,56.77-53.93,53.94-40.82,72,77.53,64.45,107.67,60.27,108.16-47.56,123.39-52.54S552.53,77,531,67.75Z"/><path class="cls-1" d="M583.62,370.44c-19.95,0-29.5-13.41-38.74-26.76a145.67,145.67,0,0,0-9.27-12.26c-1.34-1.55-5.39-4.05-17.51-4.05-15.5,0-37.15,4.17-58.09,8.16-17.56,3.34-34.15,6.53-47.35,7.39-.61,0-1.2.07-1.79.07-13.54,0-22.68-10.14-27.17-30.14-3.56-15.89-4.15-36.53-4.73-56.48-.61-21.21-1.19-41.24-5.12-53.58-10.57-33.18,39.37-49.22,72.42-59.84,10.19-3.27,19.82-6.37,23.7-8.79a19.1,19.1,0,0,1,10.25-3c7.44,0,14.55,3.93,22.79,8.48,10.18,5.63,21.72,12,36.23,12a51.24,51.24,0,0,0,6.78-.46,40,40,0,0,1,5.3-.35c17.61,0,36.58,11.39,56.38,33.86,19.09,21.67,34.06,48.15,41.29,62,8.49,16.28-2.36,51.35-16.89,78.88-6.79,12.87-24.58,42.65-43.06,44.87a44.22,44.22,0,0,1-5.44-.06Z"/><path class="cls-3" d="M644.09,249.31c-21-40.2-60.26-97.56-97.32-92.58S490,128.18,472.92,138.86s-105.8,24.49-93.78,62.24S373.44,340,412.3,337.41,525.15,311,539.81,328s21.83,40.6,48.59,37.39S656.88,273.83,644.09,249.31Z"/><path class="cls-1" d="M334.14,333.44c-35.79,0-83.52-9.21-103.75-13.93-32-7.46-47.74-99.67-49.57-130.56-1.63-27.42,27.36-38.76,52.94-48.71,13.9-5.41,28.28-11,35.92-18.5a22,22,0,0,1,15.87-6.4c22.8,0,52.14,30.48,69.67,48.69,3.59,3.73,6.69,6.95,8.7,8.79,3.62,3.32,16.06,5.63,28.08,7.87,26.71,5,59.95,11.16,68,36.06,6.55,20.16-3.27,42.78-29.18,67.25-18.62,17.58-41.82,32.84-58,42.3-7.89,4.61-20.55,7.14-38.69,7.14Z"/><path class="cls-4" d="M454.75,218.46c-11-33.86-81.17-29.25-94.59-41.56s-63.89-73.42-86.62-51.23-89.4,25.58-87.19,62.81,19.49,119.33,45.3,125.35,113,22.28,138.39,7.4S468.35,260.33,454.75,218.46Z"/><path class="cls-1" d="M525.76,511.44c-31.57,0-46.34-42.28-59.37-79.82-5.81-16.74-11.3-32.4-17.6-42.91-6-10-6.89-21.64-2.69-34.79,10.69-33.46,51.3-66,66.27-72.54a24.18,24.18,0,0,1,9.73-1.89c8.59,0,18,3.66,28,7.53,10.8,4.19,22,8.52,32.64,8.52a31.12,31.12,0,0,0,15.58-3.91A78.05,78.05,0,0,1,636.86,282c21.19,0,39.84,7.41,50.23,14.35,34.77,23.21,26.11,105.58,21.46,149.83-.27,2.53-.52,4.9-.74,7.08-1.66,16.38-20.81,29.12-58.56,39-29.95,7.8-66.6,12.56-93.35,16-9.65,1.25-18,2.06-24.6,3.08a35.6,35.6,0,0,1-5.55.16Z"/><path class="cls-5" d="M684,300.92c-16.69-11.14-52.72-21.38-83-4.44s-66-18.88-86.4-10S432,350.06,453.54,386s32.54,127,76.92,120.08,168.11-16.52,171.85-53.43S718,323.61,684,300.92Z"/><path class="cls-1" d="M405,509.44c-14.54,0-35.13-8.65-56.92-17.84-20.94-8.83-42.6-17.94-56.41-17.94a20.42,20.42,0,0,0-5.6.69,18,18,0,0,1-5,.74,15.34,15.34,0,0,1-12.08-6c-7.33-8.93-10.31-28-9.11-58.34a434.12,434.12,0,0,1,6.65-59.57c5.65-28.44,44.34-40.74,62.83-40.74a28.33,28.33,0,0,1,3.39.19c2.63,0,10.39-6.11,16.63-11,15.46-12.17,38.83-30.56,68.29-32.65,1-.07,2-.11,3-.11,33.65,0,55.26,39.74,69.55,66,4.59,8.44,9.33,17.16,11.84,19.11,29.88,23.18,10.15,79.42-2.9,116.63l-1.38,3.93c-9.22,26.38-33.48,27.83-53,29-10.75.64-20.91,1.22-28.1,5.24A23.51,23.51,0,0,1,405,509.44Z"/><path class="cls-6" d="M498.68,356.37c-12.18-9.45-36.37-87-80.6-83.89s-73.73,45.13-86,43.64-54.61,8.4-60.12,36.13S255.21,477.48,284.51,469,391.15,514.78,414,502s66,4.68,78.55-31.26S526.4,377.87,498.68,356.37Z"/><path class="cls-1" d="M200.42,482.44c-13.1,0-31.38-11.49-55.89-35.92A587.84,587.84,0,0,1,100,396c-12.82-16.56,4.77-37.59,23.4-60,11.53-13.84,23.46-28.11,28.78-41.63,8.89-22.58,36.89-38.31,52.79-45.69,22.53-10.46,48.22-17.21,65.43-17.21,1.06,0,2.09,0,3.07.09,18.86,1,34.71,25.73,50,49.63,8,12.39,20,31.13,25.28,31.13h.15a15,15,0,0,1,2.8-.27c4.48,0,10.74,2.11,15.06,12.15,12.9,29.94,2,118.24-13.07,134.19-10.73,11.35-46,14.62-94.75,18-22.56,1.56-43.86,2.64-52.66,5.49a19.22,19.22,0,0,1-5.9.5Z"/><path class="cls-7" d="M350,317.84c-18.58,3.55-47.13-79.06-76.81-80.65S171.4,260.78,157.33,296.53s-69.81,74.52-52.95,96.3S180,485,204.61,477.05s128.74-5.11,145.08-22.4S378.43,312.4,350,317.84Z"/><path class="cls-1" d="M549.11,682.53c-13.31,0-26.85-12.84-41.38-39.25-11.08-20.14-20.58-44.37-26.59-61.15-4.7-13.12-1.32-29.43,9.79-47.19,16.39-26.21,47.61-51.87,65.5-53.83,9.87-1.08,28.73-11.05,48.7-21.61,23.84-12.6,50.86-26.89,73.27-32a24.2,24.2,0,0,1,5.39-.62c37.13,0,51.67,87.4,60.19,163.54l.31,2.75c3.28,29.17-43.6,57-83.5,75.38-7.69,3.54-16.91,4.92-29.89,4.92h0c-6.26,0-12.82-.16-19.17-.52s-12.9-.62-19.13-.62c-14.75,0-24.72,2.15-32.31,6.87A21,21,0,0,1,549.11,682.53Z"/><path class="cls-8" d="M738.76,593.77c-4.45-39.55-18.13-170.28-59.14-160.88s-99.4,51.2-122.6,53.74-83.38,58.16-70.67,93.63,43.48,111.34,71,94.25,74,1.64,101.1-10.83S742,622.22,738.76,593.77Z"/><path class="cls-1" d="M421.12,675.82c-16.21,0-32.11-8.88-47.49-17.47-14.33-8-29.15-16.28-42.85-16.28-1,0-2.07.09-3.07.18s-2.07.19-3.08.19h0c-14,0-24.18-9.28-30.16-27.51-4.82-14.71-6.75-34-8.61-52.55-.5-5-1-10.24-1.59-15.19-1.47-12.91,3.08-25.41,13.54-37.12,20.45-22.91,57.09-35.59,74.6-35.59a29,29,0,0,1,6.26.61,12.31,12.31,0,0,0,2.61.22c10.54,0,33.55-7.13,55.81-14,28-8.69,57-17.67,74.76-17.67a36.41,36.41,0,0,1,7.85.75c25.17,5.54,39,41,49.16,66.85,2.4,6.12,4.47,11.41,6.38,15.53l.58,1.25-5.3,99-.11.47c-3.08,13.41-24.56,24.91-65.67,35.13-30.84,7.67-65.19,12.52-81.86,13.19C422.29,675.81,421.7,675.82,421.12,675.82Z"/><path class="cls-9" d="M565,626.22c-5.79,25.2-111,42.77-142.35,44S359,633.76,327.19,636.69s-32.63-48.13-37.42-90.14,67.15-70.63,87.69-66,113.21-36.85,141-30.72,41.75,57.9,51.71,79.31Z"/><path class="cls-1" d="M171.79,653c-27.65,0-53.68-24.14-72.69-41.77C91.66,604.38,85.25,598.43,81,596c-6.35-3.55-14.8-13.8-14.75-61.49a614.5,614.5,0,0,1,4.89-72.42c3.08-23.41,31.81-29.7,59.59-35.78,14.18-3.1,28.85-6.31,39.4-11.62,14.37-7.24,36.3-10.61,69-10.61,18.05,0,37.3,1,54.28,1.94,8.83.47,17.17.92,24.89,1.21,11.21.42,21.1,5.78,29.41,15.94C373.51,454.8,376.28,522,373,542.27c-5.25,32.14-22.16,51.44-35.42,61.84-17.08,13.4-35,18.33-46,18.33h0a28.13,28.13,0,0,1-7.4-1,17,17,0,0,0-4.44-.56c-13.27,0-37.14,9-62.4,18.5-10,3.78-20.38,7.67-30.59,11.22A45.3,45.3,0,0,1,171.79,653Z"/><path class="cls-10" d="M367.5,541.38c4.52-27.63-3.78-126.85-49.45-128.56s-114-9-145.47,6.86-92,12.84-96,43.18S65.32,580.93,83.66,591.19s60.66,68.19,101.2,54.12,83.65-34,100.7-29.4S357.55,602.25,367.5,541.38Z"/><path class="cls-1" d="M752.78,830.44c-19.76,0-54.36-9.62-84.89-18-19.42-5.31-37.76-10.4-45-10.75-20.53-1-56.9-10.38-69.8-62-3.67-14.67,5.73-41.35,11.65-55.93,9-22.09,21-44.06,31.26-57.32,2.7-3.47,10.9-14,73.61-21.69a862.26,862.26,0,0,1,94-5.91c2.2,0,4.27,0,6.19,0,33.53.57,40.05,46.76,45.3,83.87,2.16,15.32,4.21,29.8,7.7,38.54,13.21,33.1-23.51,82.57-55.1,105.45-3.29,2.38-8,3.65-14.92,3.65Z"/><path class="cls-11" d="M764.45,822.14c28.61-20.72,65.47-68,53.2-98.75s-6.53-118.21-47.94-118.92-154.4,6.25-169.3,25.41c-20.15,25.91-47.22,87.24-41.91,108.47C570,784.2,601,795.05,623.18,796.11S747.66,834.29,764.45,822.14Z"/><path class="cls-1" d="M508.12,835c-22,0-48.24-8.81-71.95-24.17C412.85,795.71,396,777.1,390,759.76c-10.62-30.54-5.62-76.49,11.62-106.88,9-15.92,20.51-25.72,33.2-28.35,9.72-2,19.78-5.93,30.42-10.08,15.82-6.17,32.18-12.54,48.22-12.54,13.92,0,25.73,4.74,36.1,14.5,6.51,6.12,13,9,20.55,9,8.46,0,17.16-3.57,26.37-7.36,9.83-4,20-8.22,30.72-8.22a37.32,37.32,0,0,1,17,4c14.19,7.07,22.54,30.44,27,48.8a272.62,272.62,0,0,1,7.1,73.84c-2,41.75-14,54.93-23.71,58.65-14.5,5.55-30.29,6.47-45.56,7.37-22.23,1.31-43.22,2.54-58.93,17.35C539.45,829.88,525.31,835,508.12,835Z"/><path class="cls-12" d="M546.33,815.77c-41.5,39.13-135.77-13.71-151.1-57.83s4.4-120.47,40.71-128,77-40.39,109.81-9.51,63.33-17.94,96-1.69,45.26,158,10.92,171.15S574.9,788.84,546.33,815.77Z"/><path class="cls-1" d="M229.79,817.87c-.94,0-1.87,0-2.79,0-33.14-1.06-39.18-46.81-44-83.57-2-15.17-3.9-29.5-7.27-38.19-12.78-32.93,23.94-81.17,55.35-103.33,3.11-2.19,7.67-3.26,13.94-3.26,19.37,0,54,10,84.59,18.86,19.12,5.53,37.18,10.76,44.29,11.2,24.88,1.57,61.28,40.27,68.3,61.85,8,24.54,3.19,72.45-15,97.43-7.92,10.9-17.91,16.66-28.89,16.66h0a33.38,33.38,0,0,1-4.5-.31,113.72,113.72,0,0,0-15.33-1c-25.17,0-54.35,6.54-82.57,12.86C271.15,812.62,247.75,817.87,229.79,817.87Z"/><path class="cls-13" d="M234.24,597.27c-28.43,20.05-65.23,66.25-53.38,96.79S186.29,811,227.18,812.28s116.8-29.53,167.4-22.6c39.28,5.38,52.84-74.22,42.32-106.57-6.59-20.26-41.53-56.66-63.38-58S250.92,585.5,234.24,597.27Z"/><path class="cls-1" d="M73.76,833.21c-11.31,0-21.17-5.64-30.13-17.23-25.2-32.6-26.5-35.68-32.75-58.86C9,750,6.56,741.12,2.62,728.49-15.71,669.72,66.42,593.68,114.47,566a44.77,44.77,0,0,1,22.43-6.41c25.49,0,45.89,24.61,63.89,46.32,13.29,16,25.85,31.18,37.14,33,46.28,7.38,46.82,93.16,47,121.34.18,28.4-59.08,33.55-117.08,34.84-4.79.11-8.58.19-10.46.33-14.08,1-28,10.29-41.44,19.23C101.6,824.2,88,833.21,73.76,833.21Z"/><path class="cls-14" d="M237.05,644.39c-34.69-5.53-67.81-103.49-119.82-73.56S-8.48,674.3,7.92,726.83,14.7,769.48,48,812.59,116,793,157,789.91c14.81-1.1,122.61,1.39,122.41-29.61S277.54,650.85,237.05,644.39Z"/></g></g></svg>